<svg xmlns="http://www.w3.org/2000/svg" xmlns:svg="http://www.w3.org/2000/svg" xmlns:xlink="http://www.w3.org/1999/xlink" id="svg84" width="853.333" height="853.333" version="1" viewBox="0 0 640 640"><metadata id="metadata90"/><defs id="defs88"><path id="aLPcbdPll" d="M376.79 366.82C378.73 364.88 388.45 355.16 405.95 337.66C353.74 296.09 315.22 267.29 290.36 251.24C314.45 288.52 343.59 327.5 376.79 366.82Z"/><path id="ceNxOaGyB" d="M376.79 366.82C378.73 364.88 388.45 355.16 405.95 337.66C353.74 296.09 315.22 267.29 290.36 251.24C314.45 288.52 343.59 327.5 376.79 366.82Z"/><path id="c1oxbjmC8k" d="M256.58 183.27C321.66 210.38 399.28 260.16 478.24 326.93C481.49 323.68 497.74 307.43 526.99 278.18C382.37 176.35 285.21 121.44 235.51 113.44C238.9 134.35 246 157.84 256.58 183.27Z"/><path id="b7rJsR8HYN" d="M256.58 183.27C321.66 210.38 399.28 260.16 478.24 326.93C481.49 323.68 497.74 307.43 526.99 278.18C382.37 176.35 285.21 121.44 235.51 113.44C238.9 134.35 246 157.84 256.58 183.27Z"/><path id="f4cUqMfFSM" d="M235.59 61.08C311.37 44.3 454.01 113.71 601.1 238.03C604.6 234.53 622.09 217.04 653.59 185.56C425.7 40.74 292.33 -12.25 253.49 26.6C244.5 35.59 238.63 47.26 235.59 61.08Z"/><path id="cCmhwnkex" d="M235.59 61.08C311.37 44.3 454.01 113.71 601.1 238.03C604.6 234.53 622.09 217.04 653.59 185.56C425.7 40.74 292.33 -12.25 253.49 26.6C244.5 35.59 238.63 47.26 235.59 61.08Z"/><path id="a3vehuYUoD" d="M290.16 251.3C288.21 253.24 278.5 262.96 261.01 280.46C313.21 322.01 351.75 350.82 376.62 366.88C352.52 329.59 323.39 290.62 290.16 251.3Z"/><path id="d3o4ubsgZO" d="M290.16 251.3C288.21 253.24 278.5 262.96 261.01 280.46C313.21 322.01 351.75 350.82 376.62 366.88C352.52 329.59 323.39 290.62 290.16 251.3Z"/><path id="awbbZG8gd" d="M410.59 434.85C345.51 407.74 267.89 357.97 188.92 291.19C185.66 294.44 169.41 310.69 140.16 339.95C284.8 441.77 381.96 496.68 431.66 504.69C428.28 483.79 421.17 460.28 410.59 434.85Z"/><path id="b205xDlNMd" d="M410.59 434.85C345.51 407.74 267.89 357.97 188.92 291.19C185.66 294.44 169.41 310.69 140.16 339.95C284.8 441.77 381.96 496.68 431.66 504.69C428.28 483.79 421.17 460.28 410.59 434.85Z"/><path id="c1VxIfmmN9" d="M431.57 557.03C355.82 573.83 213.14 504.41 66.06 380.1C62.56 383.6 45.07 401.08 13.59 432.55C241.47 577.38 374.84 630.38 413.69 591.54C422.68 582.54 428.54 570.86 431.57 557.03Z"/><path id="b3wxQbJPql" d="M431.57 557.03C355.82 573.83 213.14 504.41 66.06 380.1C62.56 383.6 45.07 401.08 13.59 432.55C241.47 577.38 374.84 630.38 413.69 591.54C422.68 582.54 428.54 570.86 431.57 557.03Z"/></defs><g id="g374" transform="matrix(0.99263804,0,0,0.99263804,-11.919397,15.27717)"><g id="g284"><use id="use278" width="100%" height="100%" x="0" y="0" xlink:href="#aLPcbdPll" style="opacity:1;fill:#f47774;fill-opacity:1"/><g id="g282"><use id="use280" width="100%" height="100%" x="0" y="0" xlink:href="#aLPcbdPll" style="opacity:1;fill-opacity:0;stroke:#000;stroke-width:1;stroke-opacity:0"/></g></g><g id="g292"><use id="use286" width="100%" height="100%" x="0" y="0" xlink:href="#ceNxOaGyB" style="opacity:1;fill:#000;fill-opacity:0"/><g id="g290"><use id="use288" width="100%" height="100%" x="0" y="0" xlink:href="#ceNxOaGyB" style="opacity:1;fill-opacity:0;stroke:#000;stroke-width:1;stroke-opacity:0"/></g></g><g id="g300"><use id="use294" width="100%" height="100%" x="0" y="0" xlink:href="#c1oxbjmC8k" style="opacity:1;fill:#f47774;fill-opacity:1"/><g id="g298"><use id="use296" width="100%" height="100%" x="0" y="0" xlink:href="#c1oxbjmC8k" style="opacity:1;fill-opacity:0;stroke:#000;stroke-width:1;stroke-opacity:0"/></g></g><g id="g308"><use id="use302" width="100%" height="100%" x="0" y="0" xlink:href="#b7rJsR8HYN" style="opacity:1;fill:#000;fill-opacity:0"/><g id="g306"><use id="use304" width="100%" height="100%" x="0" y="0" xlink:href="#b7rJsR8HYN" style="opacity:1;fill-opacity:0;stroke:#000;stroke-width:1;stroke-opacity:0"/></g></g><g id="g316"><use id="use310" width="100%" height="100%" x="0" y="0" xlink:href="#f4cUqMfFSM" style="opacity:1;fill:#f47774;fill-opacity:1"/><g id="g314"><use id="use312" width="100%" height="100%" x="0" y="0" xlink:href="#f4cUqMfFSM" style="opacity:1;fill-opacity:0;stroke:#000;stroke-width:1;stroke-opacity:0"/></g></g><g id="g324"><use id="use318" width="100%" height="100%" x="0" y="0" xlink:href="#cCmhwnkex" style="opacity:1;fill:#000;fill-opacity:0"/><g id="g322"><use id="use320" width="100%" height="100%" x="0" y="0" xlink:href="#cCmhwnkex" style="opacity:1;fill-opacity:0;stroke:#000;stroke-width:1;stroke-opacity:0"/></g></g><g id="g332"><use id="use326" width="100%" height="100%" x="0" y="0" xlink:href="#a3vehuYUoD" style="opacity:1;fill:#4cbaba;fill-opacity:1"/><g id="g330"><use id="use328" width="100%" height="100%" x="0" y="0" xlink:href="#a3vehuYUoD" style="opacity:1;fill-opacity:0;stroke:#000;stroke-width:1;stroke-opacity:0"/></g></g><g id="g340"><use id="use334" width="100%" height="100%" x="0" y="0" xlink:href="#d3o4ubsgZO" style="opacity:1;fill:#000;fill-opacity:0"/><g id="g338"><use id="use336" width="100%" height="100%" x="0" y="0" xlink:href="#d3o4ubsgZO" style="opacity:1;fill-opacity:0;stroke:#000;stroke-width:1;stroke-opacity:0"/></g></g><g id="g348"><use id="use342" width="100%" height="100%" x="0" y="0" xlink:href="#awbbZG8gd" style="opacity:1;fill:#4cbaba;fill-opacity:1"/><g id="g346"><use id="use344" width="100%" height="100%" x="0" y="0" xlink:href="#awbbZG8gd" style="opacity:1;fill-opacity:0;stroke:#000;stroke-width:1;stroke-opacity:0"/></g></g><g id="g356"><use id="use350" width="100%" height="100%" x="0" y="0" xlink:href="#b205xDlNMd" style="opacity:1;fill:#000;fill-opacity:0"/><g id="g354"><use id="use352" width="100%" height="100%" x="0" y="0" xlink:href="#b205xDlNMd" style="opacity:1;fill-opacity:0;stroke:#000;stroke-width:1;stroke-opacity:0"/></g></g><g id="g364"><use id="use358" width="100%" height="100%" x="0" y="0" xlink:href="#c1VxIfmmN9" style="opacity:1;fill:#4cbaba;fill-opacity:1"/><g id="g362"><use id="use360" width="100%" height="100%" x="0" y="0" xlink:href="#c1VxIfmmN9" style="opacity:1;fill-opacity:0;stroke:#000;stroke-width:1;stroke-opacity:0"/></g></g><g id="g372"><use id="use366" width="100%" height="100%" x="0" y="0" xlink:href="#b3wxQbJPql" style="opacity:1;fill:#000;fill-opacity:0"/><g id="g370"><use id="use368" width="100%" height="100%" x="0" y="0" xlink:href="#b3wxQbJPql" style="opacity:1;fill-opacity:0;stroke:#000;stroke-width:1;stroke-opacity:0"/></g></g></g></svg>