<svg version="1" xmlns="http://www.w3.org/2000/svg" width="853.333" height="853.333" viewBox="0 0 640.000000 640.000000"><path d="M265.9 27.5c-.2.2-1.7.5-3.4.8-8.4 1.4-17.4 5.6-22.5 10.5-7.3 7.1-13.9 18.5-16.6 28.5-1.7 6.4-1.7 7-.2 6.1 3.8-2.4 40-2.3 50.8.1 1.4.3 4.1.8 6 1.1 5.9.9 20.1 4.4 29 7.2 4.7 1.4 8.7 2.6 9 2.7.3 0 1.9.5 3.5 1.2 1.7.6 5.7 2.1 9 3.3 3.3 1.2 7.4 2.8 9 3.5 1.7.7 6.1 2.5 9.9 4 3.8 1.5 7.7 3.1 8.5 3.6 3.6 2 29.2 13.8 29.5 13.6.2-.1 1.2.5 2.2 1.4 1.1.9 2.8 1.9 3.9 2.3 1.6.6 25.4 13.7 34.7 19.1 9.6 5.6 24.1 14.7 37.3 23.4 8.8 5.8 16.8 11 17.7 11.6 6.9 4.3 57.2 41.1 60.9 44.7.8.7 4.1 3.3 7.4 5.8 3.3 2.4 6.9 5.2 8 6.1 1.1 1 3.1 2.7 4.5 3.9 6.6 5.7 20.3 16.5 20.8 16.4 1-.2 51.2-50.7 51.2-51.5 0-.5-1-1.4-2.2-2-1.3-.7-6.3-3.8-11.3-6.9-10.3-6.6-34.5-21.6-45.3-28.1-4-2.4-8.8-5.3-10.6-6.4-4.7-2.9-28-16.6-32.9-19.4-2.3-1.3-4.3-2.8-4.5-3.2-.2-.5-1.2-.9-2.2-.9-.9 0-2.3-.7-3-1.5-.7-.8-1.6-1.5-2.1-1.5s-3.8-1.8-7.4-4c-3.6-2.2-6.7-4-7-4-.2 0-2.6-1.3-5.3-2.9-6.4-3.8-15.3-8.7-22.2-12.3-3-1.6-6-3.3-6.6-3.9-.6-.5-1.3-.7-1.6-.4-.3.3-1.1-.1-1.8-1-.7-.8-1.7-1.5-2.2-1.5-.5 0-4.4-1.9-8.6-4.2-4.2-2.4-7.9-4.1-8.1-3.9-.2.1-.7-.1-1-.6-.8-1-17.9-9.6-18.3-9.2-.2.2-1.6-.6-3.3-1.7-1.6-1.2-4.6-2.8-6.5-3.7-1.9-.8-6.6-3-10.5-4.8-3.8-1.8-7.2-3.4-7.5-3.4-.3 0-3.5-1.5-7.1-3.3-3.7-1.8-6.9-3.2-7.2-3.2-.2 0-3.1-1.2-6.3-2.7-3.3-1.4-6.3-2.7-6.9-2.8-.5-.2-3-1.2-5.5-2.3-4.9-2.2-24-9.3-30.5-11.3-2.2-.6-4.9-1.5-6-2-2.3-1-12.2-3.8-15.5-4.4-1.3-.2-3.7-.9-5.4-1.4-2.8-.9-7.9-1.9-17.6-3.6-3.9-.7-29.6-1.6-30.1-1zM222 127.4c0 1.1.5 4.1 1.1 6.6.6 2.5 1.2 5.2 1.4 6 .2.8.8 3.5 1.5 6s1.3 4.9 1.4 5.5c.2.8 2.2 7.4 4.1 13.5.4 1.2 1.4 4 5 13.5 2 5.5 4.2 11.4 4.7 13.1 1 3 1.9 3.5 10.3 6.9 3.9 1.6 39.9 19.5 45.3 22.6 1.5.8 5 2.7 7.7 4.2 2.8 1.5 5.7 3.1 6.5 3.7.8.5 6.2 3.7 12 7.1 19.1 11.3 56 35.9 74.2 49.5 3.6 2.7 7.8 5.8 9.4 6.9 4.6 3.4 27.8 21.4 29.9 23.3 1.9 1.7 22.7 18.6 25.2 20.4.8.6 8.9-6.8 25.2-23.1l24.1-24-3.3-2.5c-7.5-5.6-47-32.6-47.7-32.6-.5 0-1-.3-1.2-.8-.1-.4-5-3.9-10.8-7.7-5.8-3.9-10.7-7.2-11-7.5-.3-.3-1.7-1.1-3.2-1.9-1.6-.8-2.8-1.8-2.8-2.3 0-.4-.4-.8-.9-.8s-3.8-1.9-7.3-4.2c-3.5-2.3-13.9-9.1-23.3-15-9.3-5.9-17.5-11.2-18.2-11.8-.7-.5-1.5-1-1.7-1-.3 0-3.2-1.7-6.3-3.8-3.2-2-6.3-3.9-6.8-4.2-1.7-.8-25.8-15.1-29.7-17.6-2.1-1.3-4-2.4-4.4-2.4-.3 0-1.9-.9-3.5-2.1-1.6-1.1-2.9-1.7-2.9-1.3 0 .4-.8 0-1.7-.9-2.6-2.3-41-21.7-53.8-27.2-11.3-4.9-30.7-12.1-34.7-12.9-1.3-.3-4.9-1.2-8-1.9-5.7-1.4-5.8-1.4-5.8.7zM261.5 276.5c-13.4 13.4-14.4 14.6-12.8 15.9 6.7 5.5 33.5 26.6 33.9 26.6.3 0 1.4.8 6.4 5.1 1 .8 3.1 2.4 4.5 3.5 1.5 1 5.9 4.4 9.9 7.4 10.3 8 35.4 26.2 47.7 34.7l10.6 7.2 14.2-14c7.7-7.7 14.1-14.4 14.1-14.8 0-.4-5.1-4.8-11.2-9.7-6.2-4.8-11.5-9.1-11.8-9.4-.3-.3-2.1-1.7-4-3s-4.1-3.1-4.9-3.8c-.8-.8-5.7-4.6-11-8.5-5.3-3.9-9.8-7.4-10.1-7.7-.3-.3-7.9-6.1-17-12.8-9.1-6.7-16.9-12.5-17.5-13-.5-.4-6.7-4.7-13.8-9.5l-12.7-8.6-14.5 14.4zM151 326.1c-13.3 13.3-24 24.2-23.8 24.4.2.1 3.9 2.7 8.3 5.7s13 9 19 13.1c13.8 9.6 66.5 45 67.9 45.7 2.6 1.2 13.1 8.4 13.4 9.2.2.4.7.8 1.2.8.4 0 6.1 3.3 12.7 7.4 11.4 7.2 42.7 26.1 50.8 30.7 16.6 9.3 22.9 12.8 50.3 26.9 1 .4 4.9 2.2 8.7 4 3.9 1.7 7.8 3.6 8.9 4.1 1 .6 2.6 1.2 3.5 1.4 1 .2 4.1 1.4 7 2.8 2.8 1.4 6.6 2.9 8.4 3.2 1.8.4 4.6 1.3 6.2 2 3.9 1.8 18 5.5 20.6 5.5 1.8 0 1.9-.4 1.4-4.3-.3-2.3-1.1-6-1.7-8.2-.5-2.2-1.2-4.7-1.3-5.5-.8-3.4-4.9-17.7-5.8-20-.6-1.6-2.9-8.9-3.3-10.5-.2-.6-1.8-4.9-3.7-9.7-3.3-8.5-5.2-11.8-6.8-11.8-2.2 0-41.2-18.8-41.7-20.1-.2-.5-1-.9-1.7-.9s-8.6-4.2-17.4-9.3c-8.9-5-16.9-9.7-17.9-10.2-8.5-4.9-42.9-27-44.2-28.5-.3-.3-2.9-2.1-5.8-3.9-3-1.9-5.9-3.9-6.5-4.5-.7-.6-2.5-2-4.2-3-5-3.2-34.9-25.7-36.1-27.2-.6-.8-1.4-1.4-1.8-1.4-.7 0-30.6-23.9-34.6-27.8-5.5-5.1-4-6.1-30 19.9zM27.7 415.6C13.5 429.6 2 441.4 2 441.7c0 .9 4.5 4.2 5.8 4.3.6 0 1.2.4 1.2.9s1 1.3 2.2 1.7c1.2.3 2.6 1.1 3.2 1.6.6.5 7.9 5.1 16.1 10.2C63.2 480.6 77.1 489 78 489c.4 0 1 .3 1.2.8.2.4 5.3 3.6 11.3 7.1 29.8 17.3 34.8 20.1 35.6 20.1.5 0 .9.4.9.9s.8 1.1 1.8 1.4c.9.3 4.4 2.1 7.7 4 7.7 4.3 25.5 14.1 27.5 15 .8.4 4 2.1 7 3.8 7.1 4 50.6 25.9 58.5 29.4 3.3 1.5 8.7 4 12 5.5 5.6 2.6 9.3 4.2 10.5 4.5.3 0 2.6 1 5.2 2.2 2.5 1.2 5.7 2.4 7 2.8 1.2.4 2.8 1.1 3.3 1.5 1.1.8 25.7 10 26.7 10 .4 0 1.9.5 3.5 1.1 1.5.6 2.9 1 3 1 .2 0 2.2.7 4.5 1.5 3.9 1.3 17.7 5.1 22.1 6 1 .2 2.6.5 3.5.8.9.3 3.3.7 5.2 1 1.9.3 4.6.8 6 1.1 5.8 1.4 29.1 1.3 35.3-.1 13.9-3.3 23.9-10.9 30.9-23.5 3.2-5.6 7.8-17.6 7.8-20.1 0-.6-2.2-.6-5.2-.2-6.6 1-32.6 1-39.3.1-13.4-1.9-26.4-4.7-38.5-8.3-4.7-1.4-9.4-2.8-10.5-3.1-1.1-.2-2.9-.8-4-1.3s-4.9-1.9-8.5-3.1c-3.5-1.2-8-2.9-10-3.7-1.9-.9-3.9-1.7-4.5-1.8-1.8-.4-17.7-7.5-30.5-13.7-6.9-3.3-12.7-6.1-13-6.2-.8-.2-12.5-6.2-16.5-8.5-8.4-4.8-10.3-5.8-16-9-5.9-3.2-38.1-22.7-40-24.2-.5-.4-8-5.3-16.5-11-8.5-5.6-15.7-10.4-16-10.7-.3-.3-3.4-2.6-7-5-8-5.5-49.1-36.1-50.5-37.6-.5-.7-3-2.7-5.5-4.6-2.5-1.8-4.7-3.6-5-3.9-.3-.3-2.3-1.9-4.5-3.6-2.1-1.6-4.7-3.6-5.5-4.4-1.8-1.6-3.8-3.3-11.1-9.2l-4.6-3.8-25.6 25.6z"/></svg>