<svg xmlns="http://www.w3.org/2000/svg" xmlns:xlink="http://www.w3.org/1999/xlink" viewBox="0 0 55 66" fill="#fff" fill-rule="evenodd" stroke="#000" stroke-linecap="round" stroke-linejoin="round"><use xlink:href="#B" x=".5" y=".5"/><defs><radialGradient id="A" cx="50%" cy="50%" r="50%" fx="50%" fy="50%"><stop offset="0%" stop-color="#f8861f"/><stop offset="100%" stop-color="#ff1800"/></radialGradient></defs><symbol id="B" overflow="visible"><path d="M43.458 11.523c.628-1.144.956-2.43.954-3.734A7.8 7.8 0 0 0 36.625 0c-3.65 0-6.723 2.524-7.562 5.92a27.12 27.12 0 0 0-2.154-.086C12.05 5.833 0 17.88 0 32.742c0 7.3 2.917 13.94 7.65 18.8a7.75 7.75 0 0 0-1.566 4.679 7.8 7.8 0 0 0 7.791 7.79 7.8 7.8 0 0 0 7.26-4.972 27 27 0 0 0 5.775.624c14.86 0 26.9-12.05 26.9-26.9 0-8.623-4.055-16.295-10.36-21.22zm-6.834 1.047c-.417 0-.822-.054-1.208-.154l-3.224 9.38 4.72-.77-6.646 10.834 5.53-1.345L17.16 52.743c1.784 1.695 2 4.468.477 6.408s-4.253 2.415-6.33 1.097-2.817-3.998-1.708-6.194 3.705-3.193 6-2.302l5.28-11.515-5.15 1.394 8.377-12-5.15 1.245 14.6-19.436a4.78 4.78 0 0 1 4.171-8.321c2.158.512 3.68 2.44 3.68 4.657.001 2.64-2.14 4.78-4.78 4.783z" stroke="none" fill="url(#A)" fill-rule="nonzero"/></symbol></svg>