<svg xmlns="http://www.w3.org/2000/svg" xmlns:xlink="http://www.w3.org/1999/xlink" viewBox="0 0 64.844 64.844" fill="#fff" fill-rule="evenodd" stroke="#000" stroke-linecap="round" stroke-linejoin="round"><use xlink:href="#A" x="1.422" y="1.422"/><symbol id="A" overflow="visible"><g stroke="#0970ac" fill="none" stroke-width="2.844"><path d="M.953 38.102A30.51 30.51 0 0 1 23.073.953a30.51 30.51 0 0 1 37.15 22.12 30.51 30.51 0 0 1-22.12 37.15 30.51 30.51 0 0 1-37.15-22.12z"/><path d="M38.066 60.24L23.064 1.012"/><path d="M60.178 23.267L.95 38.27"/><path d="M13.527 34.89c-3.956-16.267.47-31.214 9.925-33.513S43.7 10.322 47.657 26.59s-.47 31.214-9.924 33.513-20.25-8.946-24.205-25.213z"/></g></symbol></svg>