<svg xmlns="http://www.w3.org/2000/svg" xmlns:xlink="http://www.w3.org/1999/xlink" width="640" height="589.59" preserveAspectRatio="xMidYMid meet" version="1.1" viewBox="12.59 13.274 644 593.585"><defs><path id="aLPcbdPll" d="M376.79 366.82C378.73 364.88 388.45 355.16 405.95 337.66C353.74 296.09 315.22 267.29 290.36 251.24C314.45 288.52 343.59 327.5 376.79 366.82Z"/><path id="ceNxOaGyB" d="M376.79 366.82C378.73 364.88 388.45 355.16 405.95 337.66C353.74 296.09 315.22 267.29 290.36 251.24C314.45 288.52 343.59 327.5 376.79 366.82Z"/><path id="c1oxbjmC8k" d="M256.58 183.27C321.66 210.38 399.28 260.16 478.24 326.93C481.49 323.68 497.74 307.43 526.99 278.18C382.37 176.35 285.21 121.44 235.51 113.44C238.9 134.35 246 157.84 256.58 183.27Z"/><path id="b7rJsR8HYN" d="M256.58 183.27C321.66 210.38 399.28 260.16 478.24 326.93C481.49 323.68 497.74 307.43 526.99 278.18C382.37 176.35 285.21 121.44 235.51 113.44C238.9 134.35 246 157.84 256.58 183.27Z"/><path id="f4cUqMfFSM" d="M235.59 61.08C311.37 44.3 454.01 113.71 601.1 238.03C604.6 234.53 622.09 217.04 653.59 185.56C425.7 40.74 292.33 -12.25 253.49 26.6C244.5 35.59 238.63 47.26 235.59 61.08Z"/><path id="cCmhwnkex" d="M235.59 61.08C311.37 44.3 454.01 113.71 601.1 238.03C604.6 234.53 622.09 217.04 653.59 185.56C425.7 40.74 292.33 -12.25 253.49 26.6C244.5 35.59 238.63 47.26 235.59 61.08Z"/><path id="a3vehuYUoD" d="M290.16 251.3C288.21 253.24 278.5 262.96 261.01 280.46C313.21 322.01 351.75 350.82 376.62 366.88C352.52 329.59 323.39 290.62 290.16 251.3Z"/><path id="d3o4ubsgZO" d="M290.16 251.3C288.21 253.24 278.5 262.96 261.01 280.46C313.21 322.01 351.75 350.82 376.62 366.88C352.52 329.59 323.39 290.62 290.16 251.3Z"/><path id="awbbZG8gd" d="M410.59 434.85C345.51 407.74 267.89 357.97 188.92 291.19C185.66 294.44 169.41 310.69 140.16 339.95C284.8 441.77 381.96 496.68 431.66 504.69C428.28 483.79 421.17 460.28 410.59 434.85Z"/><path id="b205xDlNMd" d="M410.59 434.85C345.51 407.74 267.89 357.97 188.92 291.19C185.66 294.44 169.41 310.69 140.16 339.95C284.8 441.77 381.96 496.68 431.66 504.69C428.28 483.79 421.17 460.28 410.59 434.85Z"/><path id="c1VxIfmmN9" d="M431.57 557.03C355.82 573.83 213.14 504.41 66.06 380.1C62.56 383.6 45.07 401.08 13.59 432.55C241.47 577.38 374.84 630.38 413.69 591.54C422.68 582.54 428.54 570.86 431.57 557.03Z"/><path id="b3wxQbJPql" d="M431.57 557.03C355.82 573.83 213.14 504.41 66.06 380.1C62.56 383.6 45.07 401.08 13.59 432.55C241.47 577.38 374.84 630.38 413.69 591.54C422.68 582.54 428.54 570.86 431.57 557.03Z"/></defs><g><g><use fill="#f47774" fill-opacity="1" opacity="1" xlink:href="#aLPcbdPll"/><g><use fill-opacity="0" stroke="#000" stroke-opacity="0" stroke-width="1" opacity="1" xlink:href="#aLPcbdPll"/></g></g><g><use fill="#000" fill-opacity="0" opacity="1" xlink:href="#ceNxOaGyB"/><g><use fill-opacity="0" stroke="#000" stroke-opacity="0" stroke-width="1" opacity="1" xlink:href="#ceNxOaGyB"/></g></g><g><use fill="#f47774" fill-opacity="1" opacity="1" xlink:href="#c1oxbjmC8k"/><g><use fill-opacity="0" stroke="#000" stroke-opacity="0" stroke-width="1" opacity="1" xlink:href="#c1oxbjmC8k"/></g></g><g><use fill="#000" fill-opacity="0" opacity="1" xlink:href="#b7rJsR8HYN"/><g><use fill-opacity="0" stroke="#000" stroke-opacity="0" stroke-width="1" opacity="1" xlink:href="#b7rJsR8HYN"/></g></g><g><use fill="#f47774" fill-opacity="1" opacity="1" xlink:href="#f4cUqMfFSM"/><g><use fill-opacity="0" stroke="#000" stroke-opacity="0" stroke-width="1" opacity="1" xlink:href="#f4cUqMfFSM"/></g></g><g><use fill="#000" fill-opacity="0" opacity="1" xlink:href="#cCmhwnkex"/><g><use fill-opacity="0" stroke="#000" stroke-opacity="0" stroke-width="1" opacity="1" xlink:href="#cCmhwnkex"/></g></g><g><use fill="#4cbaba" fill-opacity="1" opacity="1" xlink:href="#a3vehuYUoD"/><g><use fill-opacity="0" stroke="#000" stroke-opacity="0" stroke-width="1" opacity="1" xlink:href="#a3vehuYUoD"/></g></g><g><use fill="#000" fill-opacity="0" opacity="1" xlink:href="#d3o4ubsgZO"/><g><use fill-opacity="0" stroke="#000" stroke-opacity="0" stroke-width="1" opacity="1" xlink:href="#d3o4ubsgZO"/></g></g><g><use fill="#4cbaba" fill-opacity="1" opacity="1" xlink:href="#awbbZG8gd"/><g><use fill-opacity="0" stroke="#000" stroke-opacity="0" stroke-width="1" opacity="1" xlink:href="#awbbZG8gd"/></g></g><g><use fill="#000" fill-opacity="0" opacity="1" xlink:href="#b205xDlNMd"/><g><use fill-opacity="0" stroke="#000" stroke-opacity="0" stroke-width="1" opacity="1" xlink:href="#b205xDlNMd"/></g></g><g><use fill="#4cbaba" fill-opacity="1" opacity="1" xlink:href="#c1VxIfmmN9"/><g><use fill-opacity="0" stroke="#000" stroke-opacity="0" stroke-width="1" opacity="1" xlink:href="#c1VxIfmmN9"/></g></g><g><use fill="#000" fill-opacity="0" opacity="1" xlink:href="#b3wxQbJPql"/><g><use fill-opacity="0" stroke="#000" stroke-opacity="0" stroke-width="1" opacity="1" xlink:href="#b3wxQbJPql"/></g></g></g></svg>