<svg xmlns="http://www.w3.org/2000/svg" xmlns:xlink="http://www.w3.org/1999/xlink" id="Capa_1" x="0" y="0" version="1.1" viewBox="0 0 512 512" xml:space="preserve" style="enable-background:new 0 0 512 512"><path style="fill:#ededed" d="M512,256c0,2.811-0.042,5.622-0.136,8.411c-0.115,3.553-0.303,7.074-0.554,10.585	C501.582,407.51,390.99,512,256,512c-103.246,0-192.219-61.127-232.709-149.159C8.338,330.324,0,294.128,0,256	s8.338-74.324,23.291-106.841C63.781,61.127,152.754,0,256,0C397.385,0,512,114.615,512,256z"/><g><path style="fill:#333" d="M183.176,178.05h17.528v45.272c0,7.513,4.908,11.519,12.42,11.519 c7.512,0,12.421-4.006,12.421-11.519V178.05h17.528v45.272c0,16.126-11.819,27.545-29.848,27.545 c-18.229,0-30.048-11.419-30.048-27.545V178.05H183.176z"/><path style="fill:#333" d="M261.604,227.328c4.007,3.506,10.818,7.411,17.228,7.411c4.908,0,7.413-2.204,7.413-5.008 c0-10.116-31.651-8.514-31.651-30.95c0-13.221,10.918-21.936,25.942-21.936c8.013,0,16.226,2.604,22.436,8.113l-7.411,14.323 c-4.006-3.506-10.216-6.31-15.826-6.31c-5.309,0-7.612,2.204-7.612,5.109c0,10.216,31.651,7.813,31.651,30.449 c0,12.019-8.915,22.336-25.441,22.336c-9.315,0-19.131-3.405-25.942-10.216L261.604,227.328z"/><path style="fill:#333" d="M330.719,178.05h18.429l24.34,71.615h-18.029l-4.407-15.024h-22.337l-4.307,15.024h-18.029 L330.719,178.05z M346.944,220.618l-4.006-13.922c-1.302-4.507-2.905-12.319-2.905-12.319h-0.201c0,0-1.603,7.813-2.905,12.319 l-4.106,13.922H346.944z"/><path style="fill:#333" d="M199.402,279.432h-21.735v-15.024h60.998v15.024H216.93v56.591h-17.528L199.402,279.432 L199.402,279.432z"/><path style="fill:#333" d="M279.334,263.206c22.235,0,37.46,16.026,37.46,36.559c0,21.034-15.224,37.461-37.46,37.461 c-22.235,0-37.46-16.427-37.46-37.461C241.873,279.231,257.097,263.206,279.334,263.206z M279.334,321.198 c11.318,0,19.332-9.215,19.332-21.435c0-11.719-8.013-20.533-19.332-20.533c-11.318,0-19.332,8.815-19.332,20.533 C260.002,311.984,268.015,321.198,279.334,321.198z"/><path style="fill:#333" d="M327.913,264.407h25.441c22.536,0,36.959,13.121,36.959,35.657 c0,22.536-14.423,35.958-36.959,35.958h-25.441V264.407z M352.653,320.999c12.12,0,19.531-7.212,19.531-20.935 c0-13.621-7.712-20.633-19.531-20.633h-7.212v41.567H352.653z"/><path style="fill:#333" d="M416.659,264.407h18.43l24.34,71.615H441.4l-4.407-15.024h-22.336l-4.307,15.024h-18.029 L416.659,264.407z M432.886,306.976l-4.006-13.922c-1.302-4.507-2.905-12.319-2.905-12.319h-0.201c0,0-1.603,7.813-2.905,12.319 l-4.106,13.922H432.886z"/><path style="fill:#333" d="M497.288,264.411l-8.014,17.22c-2.299,4.911-4.305,10.324-4.305,10.324h-0.199 c0,0-2.006-5.413-4.305-10.324l-8.119-17.22H452.42l23.636,42.266v29.341h17.533v-29.341l17.721-31.681 c0.251-3.511,0.439-7.032,0.554-10.585H497.288L497.288,264.411z"/></g><path style="fill:#0089fa" d="M164.216,256c0,61.273-49.674,110.947-110.947,110.947c-10.386,0-20.438-1.431-29.978-4.106	C8.338,330.324,0,294.128,0,256s8.338-74.324,23.291-106.841c9.54-2.675,19.592-4.106,29.978-4.106	C114.542,145.053,164.216,194.727,164.216,256z"/></svg>