<?xml version="1.0" encoding="UTF-8" standalone="no"?>
<!DOCTYPE svg PUBLIC "-//W3C//DTD SVG 1.1//EN" "http://www.w3.org/Graphics/SVG/1.1/DTD/svg11.dtd">
<svg version="1.1" xmlns="http://www.w3.org/2000/svg" xmlns:xlink="http://www.w3.org/1999/xlink" preserveAspectRatio="xMidYMid meet" viewBox="33.64000000000006 394.99999999999994 964.3699999999999 172.00000000000006" width="960.37" height="168"><defs><path d="M720.75 444.6L766.69 444.6L766.69 449.16L720.75 449.16L720.75 444.6Z" id="b1DEEi0721"></path><path d="M720.75 444.6L766.69 444.6L766.69 449.16L720.75 449.16L720.75 444.6Z" id="h3xjccpBTF"></path><path d="M310.41 515.49L316.69 515.49L283.33 476.75L314.57 444.51L308.28 444.51L263.96 490.14L263.96 444.51L258.79 444.51L258.79 515.49L263.96 515.49L263.96 496.83L279.88 480.51L310.41 515.49Z" id="f1enPdepJQ"></path><path d="M310.41 515.49L316.69 515.49L283.33 476.75L314.57 444.51L308.28 444.51L263.96 490.14L263.96 444.51L258.79 444.51L258.79 515.49L263.96 515.49L263.96 496.83L279.88 480.51L310.41 515.49Z" id="d1eor0lIs"></path><path d="M393.99 444.51L393.99 506.16L345.72 444.51L341.36 444.51L341.36 515.49L346.53 515.49L346.53 453.84L394.91 515.49L399.17 515.49L399.17 444.51L393.99 444.51Z" id="d1IPikuYG"></path><path d="M393.99 444.51L393.99 506.16L345.72 444.51L341.36 444.51L341.36 515.49L346.53 515.49L346.53 453.84L394.91 515.49L399.17 515.49L399.17 444.51L393.99 444.51Z" id="a1KcFNd644"></path><path d="M467.62 444.06L468.18 444.09L468.73 444.14L469.29 444.18L469.85 444.24L470.94 444.37L471.48 444.44L472.57 444.62L473.11 444.72L473.64 444.84L474.17 444.94L474.7 445.06L475.22 445.19L476.78 445.61L477.3 445.77L478.32 446.1L479.33 446.46L479.82 446.65L481.31 447.26L481.8 447.49L482.28 447.7L482.77 447.93L483.73 448.41L484.2 448.66L484.67 448.93L485.12 449.2L486.45 450.03L486.89 450.33L487.32 450.63L487.73 450.92L488.15 451.24L488.57 451.54L488.98 451.86L489.37 452.19L489.78 452.51L490.16 452.85L490.55 453.18L490.93 453.53L491.3 453.87L492.03 454.58L492.74 455.32L493.43 456.08L493.77 456.47L494.1 456.87L494.41 457.26L494.74 457.66L495.05 458.07L495.37 458.49L495.67 458.91L495.96 459.34L496.27 459.77L496.54 460.2L496.84 460.64L497.11 461.09L497.65 462L497.91 462.47L498.17 462.93L498.41 463.39L498.64 463.86L498.88 464.35L499.09 464.81L499.31 465.3L499.51 465.78L499.71 466.27L499.9 466.75L500.09 467.25L500.26 467.75L500.44 468.25L500.6 468.76L500.75 469.25L500.89 469.77L501.03 470.28L501.17 470.8L501.29 471.3L501.41 471.84L501.61 472.88L501.72 473.41L501.79 473.94L501.88 474.49L501.94 475.02L502.07 476.11L502.12 476.65L502.16 477.2L502.19 477.76L502.22 478.31L502.25 479.43L502.25 480.57L502.22 481.71L502.19 482.27L502.16 482.83L502.12 483.38L502.07 483.93L501.88 485.56L501.79 486.1L501.72 486.63L501.51 487.69L501.41 488.21L501.29 488.73L501.17 489.25L500.75 490.77L500.6 491.28L500.44 491.78L500.26 492.27L500.09 492.76L499.71 493.75L499.31 494.72L499.09 495.19L498.88 495.67L498.64 496.14L498.41 496.61L498.17 497.07L497.91 497.54L497.11 498.91L496.84 499.36L496.54 499.8L496.27 500.24L495.96 500.67L495.67 501.11L495.37 501.52L495.05 501.94L494.74 502.35L494.41 502.75L494.1 503.16L493.77 503.55L493.43 503.95L492.74 504.71L492.03 505.44L491.66 505.81L490.93 506.52L490.55 506.86L490.16 507.2L489.78 507.53L489.37 507.86L488.98 508.18L488.57 508.5L488.15 508.81L487.73 509.12L487.32 509.41L486.45 509.99L485.57 510.55L485.12 510.82L484.67 511.08L483.73 511.59L483.25 511.84L482.28 512.32L481.8 512.55L480.81 512.98L479.82 513.39L479.33 513.58L478.82 513.77L478.32 513.95L477.3 514.28L476.26 514.58L475.74 514.72L474.7 514.97L473.64 515.2L472.57 515.4L472.03 515.49L470.94 515.65L469.85 515.77L468.73 515.87L467.62 515.95L467.05 515.96L466.48 515.99L465.91 516L464.75 516L464.18 515.99L463.6 515.96L463.03 515.95L462.46 515.91L461.9 515.87L461.34 515.82L460.77 515.77L460.23 515.71L459.67 515.65L458.58 515.49L458.03 515.4L457.5 515.3L456.96 515.2L456.42 515.09L455.9 514.97L455.37 514.85L454.85 514.72L454.33 514.58L453.81 514.43L453.31 514.28L452.29 513.95L451.78 513.77L450.8 513.39L449.81 512.98L448.84 512.55L448.36 512.32L447.88 512.08L447.41 511.84L446.47 511.34L445.54 510.8L445.08 510.52L444.64 510.25L443.75 509.66L443.32 509.37L442.89 509.07L442.46 508.75L442.05 508.43L441.63 508.12L441.23 507.79L440.44 507.13L440.05 506.78L439.29 506.07L438.92 505.72L438.55 505.35L437.84 504.62L437.5 504.24L436.81 503.45L436.48 503.06L436.16 502.65L435.52 501.84L434.91 501L434.61 500.57L434.32 500.14L434.03 499.7L433.47 498.81L433.19 498.35L432.92 497.9L432.67 497.44L432.42 496.97L431.93 496.04L431.71 495.57L431.49 495.08L431.29 494.62L431.07 494.13L430.88 493.65L430.69 493.16L430.51 492.68L430.34 492.18L430.17 491.69L430.02 491.18L429.87 490.69L429.59 489.67L429.46 489.16L429.23 488.13L429.03 487.09L428.94 486.57L428.85 486.03L428.78 485.5L428.71 484.97L428.65 484.42L428.55 483.33L428.51 482.79L428.49 482.24L428.44 481.13L428.42 480.57L428.42 479.44L428.44 478.88L428.49 477.79L428.51 477.24L428.55 476.69L428.6 476.16L428.65 475.61L428.78 474.55L428.85 474.02L429.03 472.95L429.23 471.91L429.46 470.87L429.59 470.37L429.87 469.35L430.17 468.34L430.34 467.84L430.69 466.85L430.88 466.37L431.07 465.88L431.29 465.4L431.49 464.92L431.71 464.45L431.93 463.96L432.42 463.03L432.67 462.57L432.92 462.1L433.19 461.65L433.47 461.19L434.03 460.3L434.61 459.44L434.91 459.01L435.52 458.17L436.16 457.36L436.81 456.57L437.16 456.18L437.84 455.42L438.55 454.69L439.29 453.98L439.67 453.63L440.05 453.28L440.44 452.95L440.83 452.61L441.23 452.29L441.63 451.96L442.05 451.64L442.46 451.34L442.89 451.02L443.32 450.73L443.75 450.43L444.19 450.14L445.08 449.58L445.54 449.3L446.47 448.77L447.41 448.26L447.88 448.02L448.36 447.78L449.33 447.32L449.81 447.11L451.29 446.5L451.78 446.32L452.29 446.13L453.81 445.64L454.33 445.48L455.37 445.2L455.9 445.08L456.42 444.95L456.96 444.84L457.5 444.74L458.03 444.63L458.58 444.53L459.12 444.46L459.67 444.37L460.23 444.3L460.77 444.24L461.34 444.18L461.9 444.14L462.46 444.09L463.6 444.04L464.18 444.01L464.75 444L465.91 444L466.48 444.01L467.62 444.06ZM464.18 448.78L463.62 448.8L463.05 448.84L462.5 448.88L461.93 448.92L461.38 448.98L460.82 449.05L459.73 449.2L459.2 449.3L458.66 449.39L457.59 449.62L456.55 449.87L456.03 450.01L455.51 450.16L455 450.33L454.48 450.49L453.99 450.65L453.48 450.85L452.99 451.02L452 451.43L451.51 451.64L451.02 451.86L450.54 452.09L449.58 452.57L449.11 452.82L448.64 453.09L447.73 453.65L446.84 454.23L446.41 454.52L445.98 454.84L445.56 455.14L445.16 455.46L444.34 456.12L443.95 456.46L443.57 456.8L443.19 457.16L442.46 457.87L442.1 458.25L441.75 458.62L441.39 459L441.06 459.39L440.72 459.78L440.08 460.59L439.77 461.01L439.16 461.85L438.87 462.28L438.58 462.72L438.3 463.17L438.02 463.62L437.75 464.08L437.49 464.55L437.22 465L436.98 465.47L436.73 465.95L436.5 466.42L435.85 467.87L435.47 468.86L435.29 469.35L435.13 469.85L434.82 470.86L434.55 471.87L434.42 472.39L434.3 472.91L434.2 473.43L434.1 473.97L434.01 474.5L433.86 475.56L433.8 476.11L433.7 477.2L433.66 477.76L433.61 478.87L433.61 479.43L433.59 480L433.61 480.57L433.61 481.13L433.63 481.7L433.66 482.26L433.7 482.8L433.75 483.36L433.8 483.9L433.86 484.45L433.94 484.99L434.01 485.53L434.1 486.06L434.3 487.12L434.42 487.64L434.55 488.18L434.68 488.68L434.82 489.2L435.13 490.22L435.29 490.72L435.47 491.22L435.66 491.73L435.85 492.21L436.07 492.7L436.5 493.66L436.73 494.15L436.98 494.62L437.22 495.1L437.49 495.55L437.75 496.02L438.02 496.48L438.3 496.94L438.58 497.38L438.87 497.82L439.16 498.25L439.77 499.09L440.08 499.51L440.72 500.32L441.06 500.71L441.39 501.09L442.1 501.85L442.46 502.22L443.19 502.93L443.95 503.62L444.34 503.96L444.75 504.29L445.56 504.92L445.98 505.23L446.41 505.52L446.84 505.82L447.73 506.38L448.18 506.66L448.64 506.92L449.11 507.18L449.58 507.44L450.06 507.68L450.54 507.94L451.51 508.39L452 508.61L452.99 509.02L453.48 509.21L453.99 509.38L454.48 509.56L455 509.73L455.51 509.88L456.03 510.03L456.55 510.17L457.59 510.42L458.12 510.54L458.66 510.64L459.2 510.73L459.73 510.82L460.28 510.9L460.82 510.97L461.38 511.03L461.93 511.08L462.5 511.13L463.05 511.17L463.62 511.2L464.18 511.22L464.77 511.23L465.91 511.23L466.48 511.22L467.59 511.17L468.15 511.13L469.24 511.03L470.33 510.9L470.88 510.82L471.94 510.64L472.47 510.54L472.99 510.42L473.52 510.3L474.04 510.17L474.55 510.03L475.07 509.88L475.58 509.73L476.09 509.56L477.1 509.21L477.59 509.02L478.58 508.61L479.06 508.39L479.56 508.17L480.04 507.94L480.51 507.68L480.99 507.44L481.46 507.18L481.92 506.92L482.37 506.66L483.26 506.1L483.69 505.82L484.12 505.52L484.54 505.23L484.95 504.92L485.36 504.6L485.76 504.29L486.16 503.96L486.54 503.62L486.94 503.27L487.3 502.93L487.68 502.58L488.05 502.22L488.41 501.85L488.76 501.47L489.45 500.71L489.79 500.32L490.12 499.91L490.43 499.51L491.07 498.67L491.37 498.25L491.68 497.82L492.26 496.94L492.82 496.02L493.08 495.55L493.34 495.1L493.58 494.62L493.82 494.15L494.05 493.66L494.48 492.7L494.68 492.21L494.87 491.73L495.05 491.22L495.23 490.72L495.4 490.22L495.71 489.2L495.86 488.68L495.99 488.18L496.11 487.64L496.24 487.12L496.44 486.06L496.62 484.99L496.7 484.45L496.82 483.36L496.86 482.8L496.91 482.26L496.94 481.7L496.96 481.13L496.98 480.57L496.98 479.43L496.96 478.87L496.91 477.76L496.86 477.2L496.82 476.65L496.7 475.56L496.62 475.03L496.44 473.97L496.34 473.43L496.24 472.91L495.99 471.87L495.86 471.37L495.4 469.85L494.87 468.36L494.68 467.87L494.48 467.39L494.05 466.42L493.82 465.95L493.58 465.47L493.34 465L493.08 464.55L492.82 464.08L492.26 463.17L491.68 462.28L491.37 461.85L491.07 461.43L490.43 460.59L490.12 460.19L489.79 459.78L489.1 459L488.76 458.62L488.41 458.25L488.05 457.87L487.68 457.51L487.3 457.16L486.94 456.8L486.54 456.46L486.16 456.12L485.76 455.79L485.36 455.46L484.95 455.14L484.54 454.84L484.12 454.52L483.26 453.94L482.82 453.65L482.37 453.37L481.92 453.09L481.46 452.82L480.99 452.57L480.51 452.33L480.04 452.09L479.56 451.86L479.06 451.64L478.58 451.43L477.59 451.02L477.1 450.85L476.59 450.65L475.07 450.16L474.55 450.01L474.04 449.87L473.52 449.74L472.99 449.62L472.47 449.5L471.94 449.39L471.41 449.3L470.88 449.2L469.79 449.05L468.69 448.92L468.15 448.88L467.03 448.8L466.48 448.78L465.91 448.77L464.77 448.77L464.18 448.78Z" id="a1fgWQMD6a"></path><path d="M467.62 444.06L468.18 444.09L468.73 444.14L469.29 444.18L469.85 444.24L470.94 444.37L471.48 444.44L472.57 444.62L473.11 444.72L473.64 444.84L474.17 444.94L474.7 445.06L475.22 445.19L476.78 445.61L477.3 445.77L478.32 446.1L479.33 446.46L479.82 446.65L481.31 447.26L481.8 447.49L482.28 447.7L482.77 447.93L483.73 448.41L484.2 448.66L484.67 448.93L485.12 449.2L486.45 450.03L486.89 450.33L487.32 450.63L487.73 450.92L488.15 451.24L488.57 451.54L488.98 451.86L489.37 452.19L489.78 452.51L490.16 452.85L490.55 453.18L490.93 453.53L491.3 453.87L492.03 454.58L492.74 455.32L493.43 456.08L493.77 456.47L494.1 456.87L494.41 457.26L494.74 457.66L495.05 458.07L495.37 458.49L495.67 458.91L495.96 459.34L496.27 459.77L496.54 460.2L496.84 460.64L497.11 461.09L497.65 462L497.91 462.47L498.17 462.93L498.41 463.39L498.64 463.86L498.88 464.35L499.09 464.81L499.31 465.3L499.51 465.78L499.71 466.27L499.9 466.75L500.09 467.25L500.26 467.75L500.44 468.25L500.6 468.76L500.75 469.25L500.89 469.77L501.03 470.28L501.17 470.8L501.29 471.3L501.41 471.84L501.61 472.88L501.72 473.41L501.79 473.94L501.88 474.49L501.94 475.02L502.07 476.11L502.12 476.65L502.16 477.2L502.19 477.76L502.22 478.31L502.25 479.43L502.25 480.57L502.22 481.71L502.19 482.27L502.16 482.83L502.12 483.38L502.07 483.93L501.88 485.56L501.79 486.1L501.72 486.63L501.51 487.69L501.41 488.21L501.29 488.73L501.17 489.25L500.75 490.77L500.6 491.28L500.44 491.78L500.26 492.27L500.09 492.76L499.71 493.75L499.31 494.72L499.09 495.19L498.88 495.67L498.64 496.14L498.41 496.61L498.17 497.07L497.91 497.54L497.11 498.91L496.84 499.36L496.54 499.8L496.27 500.24L495.96 500.67L495.67 501.11L495.37 501.52L495.05 501.94L494.74 502.35L494.41 502.75L494.1 503.16L493.77 503.55L493.43 503.95L492.74 504.71L492.03 505.44L491.66 505.81L490.93 506.52L490.55 506.86L490.16 507.2L489.78 507.53L489.37 507.86L488.98 508.18L488.57 508.5L488.15 508.81L487.73 509.12L487.32 509.41L486.45 509.99L485.57 510.55L485.12 510.82L484.67 511.08L483.73 511.59L483.25 511.84L482.28 512.32L481.8 512.55L480.81 512.98L479.82 513.39L479.33 513.58L478.82 513.77L478.32 513.95L477.3 514.28L476.26 514.58L475.74 514.72L474.7 514.97L473.64 515.2L472.57 515.4L472.03 515.49L470.94 515.65L469.85 515.77L468.73 515.87L467.62 515.95L467.05 515.96L466.48 515.99L465.91 516L464.75 516L464.18 515.99L463.6 515.96L463.03 515.95L462.46 515.91L461.9 515.87L461.34 515.82L460.77 515.77L460.23 515.71L459.67 515.65L458.58 515.49L458.03 515.4L457.5 515.3L456.96 515.2L456.42 515.09L455.9 514.97L455.37 514.85L454.85 514.72L454.33 514.58L453.81 514.43L453.31 514.28L452.29 513.95L451.78 513.77L450.8 513.39L449.81 512.98L448.84 512.55L448.36 512.32L447.88 512.08L447.41 511.84L446.47 511.34L445.54 510.8L445.08 510.52L444.64 510.25L443.75 509.66L443.32 509.37L442.89 509.07L442.46 508.75L442.05 508.43L441.63 508.12L441.23 507.79L440.44 507.13L440.05 506.78L439.29 506.07L438.92 505.72L438.55 505.35L437.84 504.62L437.5 504.24L436.81 503.45L436.48 503.06L436.16 502.65L435.52 501.84L434.91 501L434.61 500.57L434.32 500.14L434.03 499.7L433.47 498.81L433.19 498.35L432.92 497.9L432.67 497.44L432.42 496.97L431.93 496.04L431.71 495.57L431.49 495.08L431.29 494.62L431.07 494.13L430.88 493.65L430.69 493.16L430.51 492.68L430.34 492.18L430.17 491.69L430.02 491.18L429.87 490.69L429.59 489.67L429.46 489.16L429.23 488.13L429.03 487.09L428.94 486.57L428.85 486.03L428.78 485.5L428.71 484.97L428.65 484.42L428.55 483.33L428.51 482.79L428.49 482.24L428.44 481.13L428.42 480.57L428.42 479.44L428.44 478.88L428.49 477.79L428.51 477.24L428.55 476.69L428.6 476.16L428.65 475.61L428.78 474.55L428.85 474.02L429.03 472.95L429.23 471.91L429.46 470.87L429.59 470.37L429.87 469.35L430.17 468.34L430.34 467.84L430.69 466.85L430.88 466.37L431.07 465.88L431.29 465.4L431.49 464.92L431.71 464.45L431.93 463.96L432.42 463.03L432.67 462.57L432.92 462.1L433.19 461.65L433.47 461.19L434.03 460.3L434.61 459.44L434.91 459.01L435.52 458.17L436.16 457.36L436.81 456.57L437.16 456.18L437.84 455.42L438.55 454.69L439.29 453.98L439.67 453.63L440.05 453.28L440.44 452.95L440.83 452.61L441.23 452.29L441.63 451.96L442.05 451.64L442.46 451.34L442.89 451.02L443.32 450.73L443.75 450.43L444.19 450.14L445.08 449.58L445.54 449.3L446.47 448.77L447.41 448.26L447.88 448.02L448.36 447.78L449.33 447.32L449.81 447.11L451.29 446.5L451.78 446.32L452.29 446.13L453.81 445.64L454.33 445.48L455.37 445.2L455.9 445.08L456.42 444.95L456.96 444.84L457.5 444.74L458.03 444.63L458.58 444.53L459.12 444.46L459.67 444.37L460.23 444.3L460.77 444.24L461.34 444.18L461.9 444.14L462.46 444.09L463.6 444.04L464.18 444.01L464.75 444L465.91 444L466.48 444.01L467.62 444.06ZM464.18 448.78L463.62 448.8L463.05 448.84L462.5 448.88L461.93 448.92L461.38 448.98L460.82 449.05L459.73 449.2L459.2 449.3L458.66 449.39L457.59 449.62L456.55 449.87L456.03 450.01L455.51 450.16L455 450.33L454.48 450.49L453.99 450.65L453.48 450.85L452.99 451.02L452 451.43L451.51 451.64L451.02 451.86L450.54 452.09L449.58 452.57L449.11 452.82L448.64 453.09L447.73 453.65L446.84 454.23L446.41 454.52L445.98 454.84L445.56 455.14L445.16 455.46L444.34 456.12L443.95 456.46L443.57 456.8L443.19 457.16L442.46 457.87L442.1 458.25L441.75 458.62L441.39 459L441.06 459.39L440.72 459.78L440.08 460.59L439.77 461.01L439.16 461.85L438.87 462.28L438.58 462.72L438.3 463.17L438.02 463.62L437.75 464.08L437.49 464.55L437.22 465L436.98 465.47L436.73 465.95L436.5 466.42L435.85 467.87L435.47 468.86L435.29 469.35L435.13 469.85L434.82 470.86L434.55 471.87L434.42 472.39L434.3 472.91L434.2 473.43L434.1 473.97L434.01 474.5L433.86 475.56L433.8 476.11L433.7 477.2L433.66 477.76L433.61 478.87L433.61 479.43L433.59 480L433.61 480.57L433.61 481.13L433.63 481.7L433.66 482.26L433.7 482.8L433.75 483.36L433.8 483.9L433.86 484.45L433.94 484.99L434.01 485.53L434.1 486.06L434.3 487.12L434.42 487.64L434.55 488.18L434.68 488.68L434.82 489.2L435.13 490.22L435.29 490.72L435.47 491.22L435.66 491.73L435.85 492.21L436.07 492.7L436.5 493.66L436.73 494.15L436.98 494.62L437.22 495.1L437.49 495.55L437.75 496.02L438.02 496.48L438.3 496.94L438.58 497.38L438.87 497.82L439.16 498.25L439.77 499.09L440.08 499.51L440.72 500.32L441.06 500.71L441.39 501.09L442.1 501.85L442.46 502.22L443.19 502.93L443.95 503.62L444.34 503.96L444.75 504.29L445.56 504.92L445.98 505.23L446.41 505.52L446.84 505.82L447.73 506.38L448.18 506.66L448.64 506.92L449.11 507.18L449.58 507.44L450.06 507.68L450.54 507.94L451.51 508.39L452 508.61L452.99 509.02L453.48 509.21L453.99 509.38L454.48 509.56L455 509.73L455.51 509.88L456.03 510.03L456.55 510.17L457.59 510.42L458.12 510.54L458.66 510.64L459.2 510.73L459.73 510.82L460.28 510.9L460.82 510.97L461.38 511.03L461.93 511.08L462.5 511.13L463.05 511.17L463.62 511.2L464.18 511.22L464.77 511.23L465.91 511.23L466.48 511.22L467.59 511.17L468.15 511.13L469.24 511.03L470.33 510.9L470.88 510.82L471.94 510.64L472.47 510.54L472.99 510.42L473.52 510.3L474.04 510.17L474.55 510.03L475.07 509.88L475.58 509.73L476.09 509.56L477.1 509.21L477.59 509.02L478.58 508.61L479.06 508.39L479.56 508.17L480.04 507.94L480.51 507.68L480.99 507.44L481.46 507.18L481.92 506.92L482.37 506.66L483.26 506.1L483.69 505.82L484.12 505.52L484.54 505.23L484.95 504.92L485.36 504.6L485.76 504.29L486.16 503.96L486.54 503.62L486.94 503.27L487.3 502.93L487.68 502.58L488.05 502.22L488.41 501.85L488.76 501.47L489.45 500.71L489.79 500.32L490.12 499.91L490.43 499.51L491.07 498.67L491.37 498.25L491.68 497.82L492.26 496.94L492.82 496.02L493.08 495.55L493.34 495.1L493.58 494.62L493.82 494.15L494.05 493.66L494.48 492.7L494.68 492.21L494.87 491.73L495.05 491.22L495.23 490.72L495.4 490.22L495.71 489.2L495.86 488.68L495.99 488.18L496.11 487.64L496.24 487.12L496.44 486.06L496.62 484.99L496.7 484.45L496.82 483.36L496.86 482.8L496.91 482.26L496.94 481.7L496.96 481.13L496.98 480.57L496.98 479.43L496.96 478.87L496.91 477.76L496.86 477.2L496.82 476.65L496.7 475.56L496.62 475.03L496.44 473.97L496.34 473.43L496.24 472.91L495.99 471.87L495.86 471.37L495.4 469.85L494.87 468.36L494.68 467.87L494.48 467.39L494.05 466.42L493.82 465.95L493.58 465.47L493.34 465L493.08 464.55L492.82 464.08L492.26 463.17L491.68 462.28L491.37 461.85L491.07 461.43L490.43 460.59L490.12 460.19L489.79 459.78L489.1 459L488.76 458.62L488.41 458.25L488.05 457.87L487.68 457.51L487.3 457.16L486.94 456.8L486.54 456.46L486.16 456.12L485.76 455.79L485.36 455.46L484.95 455.14L484.54 454.84L484.12 454.52L483.26 453.94L482.82 453.65L482.37 453.37L481.92 453.09L481.46 452.82L480.99 452.57L480.51 452.33L480.04 452.09L479.56 451.86L479.06 451.64L478.58 451.43L477.59 451.02L477.1 450.85L476.59 450.65L475.07 450.16L474.55 450.01L474.04 449.87L473.52 449.74L472.99 449.62L472.47 449.5L471.94 449.39L471.41 449.3L470.88 449.2L469.79 449.05L468.69 448.92L468.15 448.88L467.03 448.8L466.48 448.78L465.91 448.77L464.77 448.77L464.18 448.78Z" id="d4s9ncu1x6"></path><path d="M619.12 444.51L597.32 508.5L575.21 444.51L570.24 444.51L548.04 508.39L526.43 444.51L520.96 444.51L545.09 515.49L550.57 515.49L572.68 451.81L594.68 515.49L600.16 515.49L624.19 444.51L619.12 444.51Z" id="a6dzZKFumM"></path><path d="M619.12 444.51L597.32 508.5L575.21 444.51L570.24 444.51L548.04 508.39L526.43 444.51L520.96 444.51L545.09 515.49L550.57 515.49L572.68 451.81L594.68 515.49L600.16 515.49L624.19 444.51L619.12 444.51Z" id="a6quaKvSdx"></path><path d="M650.27 515.49L696.31 515.49L696.31 510.83L655.44 510.83L655.44 444.51L650.27 444.51L650.27 515.49Z" id="c16tuXuXp1"></path><path d="M650.27 515.49L696.31 515.49L696.31 510.83L655.44 510.83L655.44 444.51L650.27 444.51L650.27 515.49Z" id="b96sDA7h"></path><path d="M720.96 477.16L766.9 477.16L766.9 481.72L720.96 481.72L720.96 477.16Z" id="b2EtLHd9n"></path><path d="M720.96 477.16L766.9 477.16L766.9 481.72L720.96 481.72L720.96 477.16Z" id="g3cOtJr4U"></path><path d="M828.25 444.51C826.38 444.51 817.02 444.51 800.16 444.51C800.16 444.97 800.16 448.71 800.16 449.17C816.78 449.17 826.01 449.17 827.85 449.17C834.34 449.17 840.12 450.49 845.19 453.13C850.16 455.76 854.01 459.41 856.75 463.98C859.39 468.64 860.81 474.02 860.81 480C860.81 486.08 859.39 491.36 856.75 496.02C854.01 500.69 850.16 504.34 845.19 506.97C840.12 509.61 834.34 510.83 827.85 510.83C826.35 510.83 818.85 510.83 805.34 510.83C805.34 508.77 805.34 498.5 805.34 480L800.16 480C800.16 501.3 800.16 513.13 800.16 515.49C817.02 515.49 826.38 515.49 828.25 515.49C835.56 515.49 842.15 513.97 847.83 510.93C853.51 507.89 857.97 503.73 861.21 498.35C864.36 492.98 865.98 486.9 865.98 480C865.98 473.21 864.36 467.12 861.21 461.75C857.97 456.37 853.51 452.21 847.83 449.07C842.15 446.03 835.56 444.51 828.25 444.51Z" id="ajyi6ZFaX"></path><path d="M828.25 444.51C826.38 444.51 817.02 444.51 800.16 444.51C800.16 444.97 800.16 448.71 800.16 449.17C816.78 449.17 826.01 449.17 827.85 449.17C834.34 449.17 840.12 450.49 845.19 453.13C850.16 455.76 854.01 459.41 856.75 463.98C859.39 468.64 860.81 474.02 860.81 480C860.81 486.08 859.39 491.36 856.75 496.02C854.01 500.69 850.16 504.34 845.19 506.97C840.12 509.61 834.34 510.83 827.85 510.83C826.35 510.83 818.85 510.83 805.34 510.83C805.34 508.77 805.34 498.5 805.34 480L800.16 480C800.16 501.3 800.16 513.13 800.16 515.49C817.02 515.49 826.38 515.49 828.25 515.49C835.56 515.49 842.15 513.97 847.83 510.93C853.51 507.89 857.97 503.73 861.21 498.35C864.36 492.98 865.98 486.9 865.98 480C865.98 473.21 864.36 467.12 861.21 461.75C857.97 456.37 853.51 452.21 847.83 449.07C842.15 446.03 835.56 444.51 828.25 444.51Z" id="c1I5flxDhU"></path><path d="M895.21 515.49L900.38 515.49L900.38 444.51L895.21 444.51L895.21 515.49Z" id="c2w7XWlWuE"></path><path d="M895.21 515.49L900.38 515.49L900.38 444.51L895.21 444.51L895.21 515.49Z" id="a39k6FrtRJ"></path><path d="M957.18 444.51L924.53 515.49L930.11 515.49L959.72 450.19L989.43 515.49L995.01 515.49L962.36 444.51L957.18 444.51Z" id="bf7s6qI26"></path><path d="M957.18 444.51L924.53 515.49L930.11 515.49L959.72 450.19L989.43 515.49L995.01 515.49L962.36 444.51L957.18 444.51Z" id="b12A6TuCyJ"></path><path d="M720.75 510.97L766.69 510.97L766.69 515.53L720.75 515.53L720.75 510.97Z" id="kqHRtBxqT"></path><path d="M720.75 510.97L766.69 510.97L766.69 515.53L720.75 515.53L720.75 510.97Z" id="bEydgYZ30"></path><path d="M720.7 515.18L725.68 515.18L725.68 446.73L720.7 446.73L720.7 515.18Z" id="k5jfNuK5MC"></path><path d="M720.7 515.18L725.68 515.18L725.68 446.73L720.7 446.73L720.7 515.18Z" id="cQXPizF0w"></path><path d="M800.14 515.49L805.31 515.49L805.31 444.51L800.14 444.51L800.14 515.49Z" id="d2c0FGSjdQ"></path><path d="M800.14 515.49L805.31 515.49L805.31 444.51L800.14 444.51L800.14 515.49Z" id="i1WVNiXhDZ"></path><path d="M138.13 496.45C138.68 495.9 141.45 493.13 146.44 488.15C131.56 476.3 120.59 468.09 113.5 463.52C120.37 474.14 128.67 485.25 138.13 496.45Z" id="b19wpoEKpH"></path><linearGradient id="gradientaZPjH9NO6" gradientUnits="userSpaceOnUse" x1="141.44" y1="466.09" x2="104.86" y2="507.9"><stop style="stop-color: #f8a049;stop-opacity: 1" offset="1.2%"></stop><stop style="stop-color: #f93601;stop-opacity: 1" offset="51.9%"></stop><stop style="stop-color: #961484;stop-opacity: 1" offset="100%"></stop></linearGradient><path d="M138.13 496.45C138.68 495.9 141.45 493.13 146.44 488.15C131.56 476.3 120.59 468.09 113.5 463.52C120.37 474.14 128.67 485.25 138.13 496.45Z" id="a15XCPDrbw"></path><path d="M103.88 444.16C122.42 451.88 144.54 466.06 167.04 485.09C167.96 484.16 172.59 479.53 180.93 471.2C139.72 442.18 112.03 426.53 97.88 424.26C98.84 430.21 100.86 436.91 103.88 444.16Z" id="exQ5xUYJV"></path><linearGradient id="gradientgJfZknDdg" gradientUnits="userSpaceOnUse" x1="168.32" y1="429" x2="76.07" y2="506.23"><stop style="stop-color: #f8a049;stop-opacity: 1" offset="1.2%"></stop><stop style="stop-color: #f93601;stop-opacity: 1" offset="51.9%"></stop><stop style="stop-color: #961484;stop-opacity: 1" offset="100%"></stop></linearGradient><path d="M103.88 444.16C122.42 451.88 144.54 466.06 167.04 485.09C167.96 484.16 172.59 479.53 180.93 471.2C139.72 442.18 112.03 426.53 97.88 424.26C98.84 430.21 100.86 436.91 103.88 444.16Z" id="atwYZVKaX"></path><path d="M97.9 409.34C119.49 404.55 160.13 424.33 202.04 459.76C203.04 458.76 208.03 453.78 217 444.81C152.07 403.54 114.07 388.44 103 399.51C100.43 402.07 98.77 405.4 97.9 409.34Z" id="a1ERyCTqh1"></path><linearGradient id="gradientgnDEsjj1t" gradientUnits="userSpaceOnUse" x1="198.92" y1="400.97" x2="66.63" y2="481.92"><stop style="stop-color: #f8a049;stop-opacity: 1" offset="1.2%"></stop><stop style="stop-color: #f93601;stop-opacity: 1" offset="51.9%"></stop><stop style="stop-color: #961484;stop-opacity: 1" offset="100%"></stop></linearGradient><path d="M97.9 409.34C119.49 404.55 160.13 424.33 202.04 459.76C203.04 458.76 208.03 453.78 217 444.81C152.07 403.54 114.07 388.44 103 399.51C100.43 402.07 98.77 405.4 97.9 409.34Z" id="b2bWxdF75m"></path><path d="M113.45 463.54C112.89 464.09 110.12 466.86 105.14 471.85C120.02 483.69 130.99 491.9 138.08 496.47C131.22 485.85 122.91 474.74 113.45 463.54Z" id="b1wE9shVk7"></path><linearGradient id="gradienteexltjdkQ" gradientUnits="userSpaceOnUse" x1="126.59" y1="497.85" x2="105.08" y2="422.51"><stop style="stop-color: #29d3da;stop-opacity: 1" offset="0%"></stop><stop style="stop-color: #01bda9;stop-opacity: 1" offset="51.9%"></stop><stop style="stop-color: #064093;stop-opacity: 1" offset="99.9%"></stop><stop style="stop-color: #084698;stop-opacity: 1" offset="100%"></stop></linearGradient><path d="M113.45 463.54C112.89 464.09 110.12 466.86 105.14 471.85C120.02 483.69 130.99 491.9 138.08 496.47C131.22 485.85 122.91 474.74 113.45 463.54Z" id="bdchHpPgZ"></path><path d="M147.76 515.84C129.22 508.11 107.1 493.93 84.6 474.9C83.67 475.83 79.04 480.46 70.71 488.8C111.92 517.81 139.61 533.46 153.76 535.74C152.8 529.78 150.78 523.09 147.76 515.84Z" id="a7Mtif3QWp"></path><linearGradient id="gradientb2oD11cZlJ" gradientUnits="userSpaceOnUse" x1="124.78" y1="538.28" x2="70.56" y2="399.12"><stop style="stop-color: #29d3da;stop-opacity: 1" offset="0%"></stop><stop style="stop-color: #01bda9;stop-opacity: 1" offset="51.9%"></stop><stop style="stop-color: #064093;stop-opacity: 1" offset="99.9%"></stop><stop style="stop-color: #084698;stop-opacity: 1" offset="100%"></stop></linearGradient><path d="M147.76 515.84C129.22 508.11 107.1 493.93 84.6 474.9C83.67 475.83 79.04 480.46 70.71 488.8C111.92 517.81 139.61 533.46 153.76 535.74C152.8 529.78 150.78 523.09 147.76 515.84Z" id="e5DwSFCTpD"></path><path d="M153.74 550.66C132.16 555.44 91.5 535.66 49.59 500.24C48.59 501.24 43.61 506.22 34.64 515.18C99.57 556.46 137.58 571.56 148.64 560.49C151.21 557.92 152.87 554.59 153.74 550.66Z" id="a6Qt2jZQ"></path><linearGradient id="gradienth6QBTTze8d" gradientUnits="userSpaceOnUse" x1="112.17" y1="566.66" x2="34.43" y2="420.82"><stop style="stop-color: #29d3da;stop-opacity: 1" offset="0%"></stop><stop style="stop-color: #01bda9;stop-opacity: 1" offset="51.9%"></stop><stop style="stop-color: #064093;stop-opacity: 1" offset="99.9%"></stop><stop style="stop-color: #084698;stop-opacity: 1" offset="100%"></stop></linearGradient><path d="M153.74 550.66C132.16 555.44 91.5 535.66 49.59 500.24C48.59 501.24 43.61 506.22 34.64 515.18C99.57 556.46 137.58 571.56 148.64 560.49C151.21 557.92 152.87 554.59 153.74 550.66Z" id="a1TEsVhvsF"></path></defs><g><g><use xlink:href="#b1DEEi0721" opacity="1" fill="#666666" fill-opacity="1"></use><g><use xlink:href="#b1DEEi0721" opacity="1" fill-opacity="0" stroke="#666666" stroke-width="1" stroke-opacity="0"></use></g></g><g><use xlink:href="#h3xjccpBTF" opacity="1" fill="#666666" fill-opacity="1"></use><g><use xlink:href="#h3xjccpBTF" opacity="1" fill-opacity="0" stroke="#666666" stroke-width="1" stroke-opacity="0"></use></g></g><g><use xlink:href="#f1enPdepJQ" opacity="1" fill="#666666" fill-opacity="1"></use><g><use xlink:href="#f1enPdepJQ" opacity="1" fill-opacity="0" stroke="#666666" stroke-width="1" stroke-opacity="0"></use></g></g><g><use xlink:href="#d1eor0lIs" opacity="1" fill="#666666" fill-opacity="1"></use><g><use xlink:href="#d1eor0lIs" opacity="1" fill-opacity="0" stroke="#666666" stroke-width="1" stroke-opacity="0"></use></g></g><g><use xlink:href="#d1IPikuYG" opacity="1" fill="#666666" fill-opacity="1"></use><g><use xlink:href="#d1IPikuYG" opacity="1" fill-opacity="0" stroke="#666666" stroke-width="1" stroke-opacity="0"></use></g></g><g><use xlink:href="#a1KcFNd644" opacity="1" fill="#666666" fill-opacity="1"></use><g><use xlink:href="#a1KcFNd644" opacity="1" fill-opacity="0" stroke="#666666" stroke-width="1" stroke-opacity="0"></use></g></g><g><use xlink:href="#a1fgWQMD6a" opacity="1" fill="#666666" fill-opacity="1"></use><g><use xlink:href="#a1fgWQMD6a" opacity="1" fill-opacity="0" stroke="#666666" stroke-width="1" stroke-opacity="0"></use></g></g><g><use xlink:href="#d4s9ncu1x6" opacity="1" fill="#666666" fill-opacity="1"></use><g><use xlink:href="#d4s9ncu1x6" opacity="1" fill-opacity="0" stroke="#666666" stroke-width="1" stroke-opacity="0"></use></g></g><g><use xlink:href="#a6dzZKFumM" opacity="1" fill="#666666" fill-opacity="1"></use><g><use xlink:href="#a6dzZKFumM" opacity="1" fill-opacity="0" stroke="#666666" stroke-width="1" stroke-opacity="0"></use></g></g><g><use xlink:href="#a6quaKvSdx" opacity="1" fill="#666666" fill-opacity="1"></use><g><use xlink:href="#a6quaKvSdx" opacity="1" fill-opacity="0" stroke="#666666" stroke-width="1" stroke-opacity="0"></use></g></g><g><use xlink:href="#c16tuXuXp1" opacity="1" fill="#666666" fill-opacity="1"></use><g><use xlink:href="#c16tuXuXp1" opacity="1" fill-opacity="0" stroke="#666666" stroke-width="1" stroke-opacity="0"></use></g></g><g><use xlink:href="#b96sDA7h" opacity="1" fill="#666666" fill-opacity="1"></use><g><use xlink:href="#b96sDA7h" opacity="1" fill-opacity="0" stroke="#666666" stroke-width="1" stroke-opacity="0"></use></g></g><g><use xlink:href="#b2EtLHd9n" opacity="1" fill="#666666" fill-opacity="1"></use><g><use xlink:href="#b2EtLHd9n" opacity="1" fill-opacity="0" stroke="#666666" stroke-width="1" stroke-opacity="0"></use></g></g><g><use xlink:href="#g3cOtJr4U" opacity="1" fill="#666666" fill-opacity="1"></use><g><use xlink:href="#g3cOtJr4U" opacity="1" fill-opacity="0" stroke="#666666" stroke-width="1" stroke-opacity="0"></use></g></g><g><use xlink:href="#ajyi6ZFaX" opacity="1" fill="#666666" fill-opacity="1"></use><g><use xlink:href="#ajyi6ZFaX" opacity="1" fill-opacity="0" stroke="#666666" stroke-width="1" stroke-opacity="0"></use></g></g><g><use xlink:href="#c1I5flxDhU" opacity="1" fill="#666666" fill-opacity="1"></use><g><use xlink:href="#c1I5flxDhU" opacity="1" fill-opacity="0" stroke="#666666" stroke-width="1" stroke-opacity="0"></use></g></g><g><use xlink:href="#c2w7XWlWuE" opacity="1" fill="#666666" fill-opacity="1"></use><g><use xlink:href="#c2w7XWlWuE" opacity="1" fill-opacity="0" stroke="#666666" stroke-width="1" stroke-opacity="0"></use></g></g><g><use xlink:href="#a39k6FrtRJ" opacity="1" fill="#666666" fill-opacity="1"></use><g><use xlink:href="#a39k6FrtRJ" opacity="1" fill-opacity="0" stroke="#666666" stroke-width="1" stroke-opacity="0"></use></g></g><g><use xlink:href="#bf7s6qI26" opacity="1" fill="#666666" fill-opacity="1"></use><g><use xlink:href="#bf7s6qI26" opacity="1" fill-opacity="0" stroke="#666666" stroke-width="1" stroke-opacity="0"></use></g></g><g><use xlink:href="#b12A6TuCyJ" opacity="1" fill="#666666" fill-opacity="1"></use><g><use xlink:href="#b12A6TuCyJ" opacity="1" fill-opacity="0" stroke="#666666" stroke-width="1" stroke-opacity="0"></use></g></g><g><use xlink:href="#kqHRtBxqT" opacity="1" fill="#666666" fill-opacity="1"></use><g><use xlink:href="#kqHRtBxqT" opacity="1" fill-opacity="0" stroke="#666666" stroke-width="1" stroke-opacity="0"></use></g></g><g><use xlink:href="#bEydgYZ30" opacity="1" fill="#666666" fill-opacity="1"></use><g><use xlink:href="#bEydgYZ30" opacity="1" fill-opacity="0" stroke="#666666" stroke-width="1" stroke-opacity="0"></use></g></g><g><use xlink:href="#k5jfNuK5MC" opacity="1" fill="#666666" fill-opacity="1"></use><g><use xlink:href="#k5jfNuK5MC" opacity="1" fill-opacity="0" stroke="#666666" stroke-width="1" stroke-opacity="0"></use></g></g><g><use xlink:href="#cQXPizF0w" opacity="1" fill="#666666" fill-opacity="1"></use><g><use xlink:href="#cQXPizF0w" opacity="1" fill-opacity="0" stroke="#666666" stroke-width="1" stroke-opacity="0"></use></g></g><g><use xlink:href="#d2c0FGSjdQ" opacity="1" fill="#666666" fill-opacity="1"></use><g><use xlink:href="#d2c0FGSjdQ" opacity="1" fill-opacity="0" stroke="#666666" stroke-width="1" stroke-opacity="0"></use></g></g><g><use xlink:href="#i1WVNiXhDZ" opacity="1" fill="#666666" fill-opacity="1"></use><g><use xlink:href="#i1WVNiXhDZ" opacity="1" fill-opacity="0" stroke="#666666" stroke-width="1" stroke-opacity="0"></use></g></g><g><use xlink:href="#b19wpoEKpH" opacity="1" fill="url(#gradientaZPjH9NO6)"></use><g><use xlink:href="#b19wpoEKpH" opacity="1" fill-opacity="0" stroke="#666666" stroke-width="1" stroke-opacity="0"></use></g></g><g><use xlink:href="#a15XCPDrbw" opacity="1" fill="#666666" fill-opacity="0"></use><g><use xlink:href="#a15XCPDrbw" opacity="1" fill-opacity="0" stroke="#666666" stroke-width="1" stroke-opacity="0"></use></g></g><g><use xlink:href="#exQ5xUYJV" opacity="1" fill="url(#gradientgJfZknDdg)"></use><g><use xlink:href="#exQ5xUYJV" opacity="1" fill-opacity="0" stroke="#666666" stroke-width="1" stroke-opacity="0"></use></g></g><g><use xlink:href="#atwYZVKaX" opacity="1" fill="#666666" fill-opacity="0"></use><g><use xlink:href="#atwYZVKaX" opacity="1" fill-opacity="0" stroke="#666666" stroke-width="1" stroke-opacity="0"></use></g></g><g><use xlink:href="#a1ERyCTqh1" opacity="1" fill="url(#gradientgnDEsjj1t)"></use><g><use xlink:href="#a1ERyCTqh1" opacity="1" fill-opacity="0" stroke="#666666" stroke-width="1" stroke-opacity="0"></use></g></g><g><use xlink:href="#b2bWxdF75m" opacity="1" fill="#666666" fill-opacity="0"></use><g><use xlink:href="#b2bWxdF75m" opacity="1" fill-opacity="0" stroke="#666666" stroke-width="1" stroke-opacity="0"></use></g></g><g><use xlink:href="#b1wE9shVk7" opacity="1" fill="url(#gradienteexltjdkQ)"></use><g><use xlink:href="#b1wE9shVk7" opacity="1" fill-opacity="0" stroke="#666666" stroke-width="1" stroke-opacity="0"></use></g></g><g><use xlink:href="#bdchHpPgZ" opacity="1" fill="#666666" fill-opacity="0"></use><g><use xlink:href="#bdchHpPgZ" opacity="1" fill-opacity="0" stroke="#666666" stroke-width="1" stroke-opacity="0"></use></g></g><g><use xlink:href="#a7Mtif3QWp" opacity="1" fill="url(#gradientb2oD11cZlJ)"></use><g><use xlink:href="#a7Mtif3QWp" opacity="1" fill-opacity="0" stroke="#666666" stroke-width="1" stroke-opacity="0"></use></g></g><g><use xlink:href="#e5DwSFCTpD" opacity="1" fill="#666666" fill-opacity="0"></use><g><use xlink:href="#e5DwSFCTpD" opacity="1" fill-opacity="0" stroke="#666666" stroke-width="1" stroke-opacity="0"></use></g></g><g><use xlink:href="#a6Qt2jZQ" opacity="1" fill="url(#gradienth6QBTTze8d)"></use><g><use xlink:href="#a6Qt2jZQ" opacity="1" fill-opacity="0" stroke="#666666" stroke-width="1" stroke-opacity="0"></use></g></g><g><use xlink:href="#a1TEsVhvsF" opacity="1" fill="#666666" fill-opacity="0"></use><g><use xlink:href="#a1TEsVhvsF" opacity="1" fill-opacity="0" stroke="#666666" stroke-width="1" stroke-opacity="0"></use></g></g></g></svg>