<?xml version="1.0" encoding="UTF-8" standalone="no"?>
<!DOCTYPE svg PUBLIC "-//W3C//DTD SVG 1.1//EN" "http://www.w3.org/Graphics/SVG/1.1/DTD/svg11.dtd">
<svg version="1.1" xmlns="http://www.w3.org/2000/svg" xmlns:xlink="http://www.w3.org/1999/xlink" preserveAspectRatio="xMidYMid meet" viewBox="49.79 121.20491668530633 584.7900000000001 263.1950833146937" width="580.79" height="259.2"><defs><path d="M415.22 325.07L451.46 325.07L451.46 328.67L415.22 328.67L415.22 325.07Z" id="b3NhzTcL0U"></path><path d="M415.22 325.07L451.46 325.07L451.46 328.67L415.22 328.67L415.22 325.07Z" id="nLblvKpXE"></path><path d="M91.51 381L96.47 381L70.15 350.44L94.79 325L89.83 325L54.87 361L54.87 325L50.79 325L50.79 381L54.87 381L54.87 366.28L67.43 353.4L91.51 381Z" id="df9rnSeo"></path><path d="M91.51 381L96.47 381L70.15 350.44L94.79 325L89.83 325L54.87 361L54.87 325L50.79 325L50.79 381L54.87 381L54.87 366.28L67.43 353.4L91.51 381Z" id="cu8PLw4VB"></path><path d="M157.45 325L157.45 373.64L119.37 325L115.93 325L115.93 381L120.01 381L120.01 332.36L158.17 381L161.53 381L161.53 325L157.45 325Z" id="coRBG2FDO"></path><path d="M157.45 325L157.45 373.64L119.37 325L115.93 325L115.93 381L120.01 381L120.01 332.36L158.17 381L161.53 381L161.53 325L157.45 325Z" id="a1jIOuWeWP"></path><path d="M215.53 324.65L215.97 324.67L216.41 324.71L216.85 324.74L217.29 324.79L218.15 324.89L218.58 324.95L219.44 325.09L219.86 325.17L220.28 325.26L220.7 325.34L221.12 325.44L221.53 325.54L222.76 325.87L223.17 326L223.97 326.26L224.77 326.54L225.16 326.69L226.33 327.17L226.72 327.35L227.1 327.52L227.48 327.7L228.24 328.08L228.61 328.28L228.98 328.49L229.34 328.7L230.39 329.36L230.73 329.59L231.07 329.83L231.4 330.06L231.73 330.31L232.06 330.55L232.38 330.8L232.69 331.06L233.01 331.31L233.31 331.58L233.62 331.84L233.92 332.12L234.21 332.39L234.79 332.95L235.35 333.53L235.89 334.13L236.16 334.44L236.42 334.75L236.67 335.06L236.93 335.38L237.17 335.7L237.42 336.03L237.66 336.36L237.89 336.7L238.13 337.04L238.35 337.38L238.58 337.73L238.8 338.08L239.22 338.8L239.43 339.17L239.63 339.53L239.82 339.9L240 340.27L240.19 340.65L240.36 341.02L240.53 341.4L240.69 341.78L240.85 342.17L241 342.55L241.15 342.94L241.28 343.34L241.42 343.73L241.55 344.13L241.67 344.52L241.78 344.93L241.89 345.33L242 345.74L242.09 346.14L242.19 346.56L242.35 347.38L242.43 347.8L242.49 348.22L242.56 348.65L242.61 349.07L242.71 349.93L242.75 350.36L242.78 350.79L242.8 351.23L242.83 351.67L242.85 352.55L242.85 353.45L242.83 354.35L242.8 354.79L242.78 355.23L242.75 355.67L242.71 356.1L242.56 357.39L242.49 357.81L242.43 358.23L242.27 359.07L242.19 359.48L242.09 359.89L242 360.3L241.67 361.5L241.55 361.9L241.42 362.29L241.28 362.68L241.15 363.07L240.85 363.85L240.53 364.61L240.36 364.98L240.19 365.36L240 365.73L239.82 366.1L239.63 366.47L239.43 366.84L238.8 367.92L238.58 368.27L238.35 368.62L238.13 368.97L237.89 369.31L237.66 369.65L237.42 369.98L237.17 370.31L236.93 370.63L236.67 370.95L236.42 371.27L236.16 371.58L235.89 371.89L235.35 372.49L234.79 373.07L234.5 373.36L233.92 373.92L233.62 374.19L233.31 374.46L233.01 374.72L232.69 374.98L232.38 375.23L232.06 375.48L231.73 375.73L231.4 375.97L231.07 376.2L230.39 376.66L229.69 377.1L229.34 377.31L228.98 377.52L228.24 377.92L227.86 378.12L227.1 378.5L226.72 378.68L225.94 379.02L225.16 379.34L224.77 379.49L224.37 379.64L223.97 379.78L223.17 380.04L222.35 380.28L221.94 380.39L221.12 380.59L220.28 380.77L219.44 380.93L219.01 381L218.15 381.12L217.29 381.22L216.41 381.3L215.53 381.36L215.08 381.37L214.63 381.39L214.18 381.4L213.27 381.4L212.82 381.39L212.36 381.37L211.91 381.36L211.46 381.33L211.02 381.3L210.58 381.26L210.13 381.22L209.7 381.17L209.26 381.12L208.4 381L207.97 380.93L207.55 380.85L207.12 380.77L206.7 380.68L206.29 380.59L205.87 380.49L205.46 380.39L205.05 380.28L204.64 380.16L204.24 380.04L203.44 379.78L203.04 379.64L202.26 379.34L201.48 379.02L200.72 378.68L200.34 378.5L199.96 378.31L199.59 378.12L198.85 377.72L198.11 377.3L197.75 377.08L197.4 376.86L196.7 376.4L196.36 376.17L196.02 375.93L195.68 375.68L195.36 375.43L195.03 375.18L194.71 374.92L194.09 374.4L193.78 374.13L193.18 373.57L192.89 373.29L192.6 373L192.04 372.42L191.77 372.12L191.23 371.5L190.97 371.19L190.71 370.87L190.21 370.23L189.73 369.57L189.49 369.23L189.26 368.89L189.03 368.54L188.59 367.84L188.37 367.48L188.16 367.12L187.96 366.76L187.76 366.39L187.38 365.65L187.2 365.28L187.03 364.9L186.87 364.53L186.7 364.15L186.55 363.77L186.4 363.38L186.26 363L186.12 362.61L185.99 362.22L185.87 361.82L185.75 361.43L185.53 360.63L185.43 360.23L185.25 359.41L185.09 358.59L185.02 358.18L184.95 357.76L184.89 357.34L184.84 356.92L184.79 356.49L184.71 355.63L184.68 355.2L184.66 354.77L184.62 353.89L184.61 353.45L184.61 352.56L184.62 352.12L184.66 351.26L184.68 350.82L184.71 350.39L184.75 349.97L184.79 349.54L184.89 348.7L184.95 348.28L185.09 347.44L185.25 346.62L185.43 345.8L185.53 345.4L185.75 344.6L185.99 343.8L186.12 343.41L186.4 342.63L186.55 342.25L186.7 341.86L186.87 341.48L187.03 341.1L187.2 340.73L187.38 340.35L187.76 339.61L187.96 339.25L188.16 338.88L188.37 338.52L188.59 338.16L189.03 337.46L189.49 336.78L189.73 336.44L190.21 335.78L190.71 335.14L191.23 334.52L191.5 334.21L192.04 333.61L192.6 333.03L193.18 332.47L193.48 332.2L193.78 331.92L194.09 331.66L194.4 331.39L194.71 331.14L195.03 330.88L195.36 330.63L195.68 330.39L196.02 330.14L196.36 329.91L196.7 329.67L197.05 329.44L197.75 329L198.11 328.78L198.85 328.36L199.59 327.96L199.96 327.77L200.34 327.58L201.1 327.22L201.48 327.05L202.65 326.57L203.04 326.43L203.44 326.28L204.64 325.89L205.05 325.77L205.87 325.55L206.29 325.45L206.7 325.35L207.12 325.26L207.55 325.18L207.97 325.1L208.4 325.02L208.83 324.96L209.26 324.89L209.7 324.84L210.13 324.79L210.58 324.74L211.02 324.71L211.46 324.67L212.36 324.63L212.82 324.61L213.27 324.6L214.18 324.6L214.63 324.61L215.53 324.65ZM212.82 328.37L212.38 328.39L211.93 328.42L211.49 328.45L211.04 328.48L210.61 328.53L210.17 328.58L209.31 328.7L208.89 328.78L208.46 328.85L207.62 329.03L206.8 329.23L206.39 329.34L205.98 329.46L205.58 329.59L205.17 329.72L204.78 329.85L204.38 330L203.99 330.14L203.21 330.46L202.82 330.63L202.44 330.8L202.06 330.98L201.3 331.36L200.93 331.56L200.56 331.77L199.84 332.21L199.14 332.67L198.8 332.9L198.46 333.15L198.13 333.39L197.81 333.64L197.17 334.16L196.86 334.43L196.56 334.7L196.26 334.98L195.68 335.54L195.4 335.84L195.12 336.13L194.84 336.43L194.58 336.74L194.31 337.05L193.81 337.69L193.56 338.02L193.08 338.68L192.85 339.02L192.62 339.37L192.4 339.72L192.18 340.08L191.97 340.44L191.76 340.81L191.55 341.17L191.36 341.54L191.16 341.92L190.98 342.29L190.47 343.43L190.17 344.21L190.03 344.6L189.9 344.99L189.66 345.79L189.44 346.59L189.34 347L189.25 347.41L189.17 347.82L189.09 348.24L189.02 348.66L188.9 349.5L188.85 349.93L188.77 350.79L188.74 351.23L188.7 352.11L188.7 352.55L188.69 353L188.7 353.45L188.7 353.89L188.72 354.34L188.74 354.78L188.77 355.21L188.81 355.65L188.85 356.08L188.9 356.51L188.96 356.94L189.02 357.36L189.09 357.78L189.25 358.62L189.34 359.03L189.44 359.45L189.55 359.85L189.66 360.26L189.9 361.06L190.03 361.46L190.17 361.85L190.32 362.25L190.47 362.63L190.64 363.02L190.98 363.78L191.16 364.16L191.36 364.53L191.55 364.91L191.76 365.27L191.97 365.64L192.18 366L192.4 366.36L192.62 366.71L192.85 367.06L193.08 367.4L193.56 368.06L193.81 368.39L194.31 369.03L194.58 369.34L194.84 369.64L195.4 370.24L195.68 370.53L196.26 371.09L196.86 371.63L197.17 371.9L197.49 372.16L198.13 372.66L198.46 372.9L198.8 373.13L199.14 373.37L199.84 373.81L200.2 374.03L200.56 374.24L200.93 374.44L201.3 374.65L201.68 374.84L202.06 375.04L202.82 375.4L203.21 375.57L203.99 375.89L204.38 376.04L204.78 376.18L205.17 376.32L205.58 376.45L205.98 376.57L206.39 376.69L206.8 376.8L207.62 377L208.04 377.09L208.46 377.17L208.89 377.24L209.31 377.31L209.74 377.38L210.17 377.43L210.61 377.48L211.04 377.52L211.49 377.56L211.93 377.59L212.38 377.61L212.82 377.63L213.28 377.64L214.18 377.64L214.63 377.63L215.51 377.59L215.95 377.56L216.81 377.48L217.67 377.38L218.1 377.31L218.94 377.17L219.36 377.09L219.77 377L220.19 376.9L220.6 376.8L221 376.69L221.41 376.57L221.81 376.45L222.21 376.32L223.01 376.04L223.4 375.89L224.18 375.57L224.56 375.4L224.95 375.22L225.33 375.04L225.7 374.84L226.08 374.65L226.45 374.44L226.81 374.24L227.17 374.03L227.87 373.59L228.21 373.37L228.55 373.13L228.88 372.9L229.2 372.66L229.53 372.41L229.84 372.16L230.16 371.9L230.46 371.63L230.77 371.36L231.06 371.09L231.36 370.81L231.65 370.53L231.93 370.24L232.21 369.94L232.75 369.34L233.02 369.03L233.28 368.71L233.53 368.39L234.03 367.73L234.27 367.4L234.51 367.06L234.97 366.36L235.41 365.64L235.62 365.27L235.82 364.91L236.01 364.53L236.2 364.16L236.38 363.78L236.72 363.02L236.88 362.63L237.03 362.25L237.17 361.85L237.31 361.46L237.45 361.06L237.69 360.26L237.81 359.85L237.91 359.45L238.01 359.03L238.11 358.62L238.27 357.78L238.41 356.94L238.47 356.51L238.57 355.65L238.6 355.21L238.64 354.78L238.66 354.34L238.68 353.89L238.69 353.45L238.69 352.55L238.68 352.11L238.64 351.23L238.6 350.79L238.57 350.36L238.47 349.5L238.41 349.08L238.27 348.24L238.19 347.82L238.11 347.41L237.91 346.59L237.81 346.19L237.45 344.99L237.03 343.82L236.88 343.43L236.72 343.05L236.38 342.29L236.2 341.92L236.01 341.54L235.82 341.17L235.62 340.81L235.41 340.44L234.97 339.72L234.51 339.02L234.27 338.68L234.03 338.35L233.53 337.69L233.28 337.37L233.02 337.05L232.48 336.43L232.21 336.13L231.93 335.84L231.65 335.54L231.36 335.26L231.06 334.98L230.77 334.7L230.46 334.43L230.16 334.16L229.84 333.9L229.53 333.64L229.2 333.39L228.88 333.15L228.55 332.9L227.87 332.44L227.52 332.21L227.17 331.99L226.81 331.77L226.45 331.56L226.08 331.36L225.7 331.17L225.33 330.98L224.95 330.8L224.56 330.63L224.18 330.46L223.4 330.14L223.01 330L222.61 329.85L221.41 329.46L221 329.34L220.6 329.23L220.19 329.13L219.77 329.03L219.36 328.94L218.94 328.85L218.52 328.78L218.1 328.7L217.24 328.58L216.38 328.48L215.95 328.45L215.07 328.39L214.63 328.37L214.18 328.36L213.28 328.36L212.82 328.37Z" id="aI3pRqhI5"></path><path d="M215.53 324.65L215.97 324.67L216.41 324.71L216.85 324.74L217.29 324.79L218.15 324.89L218.58 324.95L219.44 325.09L219.86 325.17L220.28 325.26L220.7 325.34L221.12 325.44L221.53 325.54L222.76 325.87L223.17 326L223.97 326.26L224.77 326.54L225.16 326.69L226.33 327.17L226.72 327.35L227.1 327.52L227.48 327.7L228.24 328.08L228.61 328.28L228.98 328.49L229.34 328.7L230.39 329.36L230.73 329.59L231.07 329.83L231.4 330.06L231.73 330.31L232.06 330.55L232.38 330.8L232.69 331.06L233.01 331.31L233.31 331.58L233.62 331.84L233.92 332.12L234.21 332.39L234.79 332.95L235.35 333.53L235.89 334.13L236.16 334.44L236.42 334.75L236.67 335.06L236.93 335.38L237.17 335.7L237.42 336.03L237.66 336.36L237.89 336.7L238.13 337.04L238.35 337.38L238.58 337.73L238.8 338.08L239.22 338.8L239.43 339.17L239.63 339.53L239.82 339.9L240 340.27L240.19 340.65L240.36 341.02L240.53 341.4L240.69 341.78L240.85 342.17L241 342.55L241.15 342.94L241.28 343.34L241.42 343.73L241.55 344.13L241.67 344.52L241.78 344.93L241.89 345.33L242 345.74L242.09 346.14L242.19 346.56L242.35 347.38L242.43 347.8L242.49 348.22L242.56 348.65L242.61 349.07L242.71 349.93L242.75 350.36L242.78 350.79L242.8 351.23L242.83 351.67L242.85 352.55L242.85 353.45L242.83 354.35L242.8 354.79L242.78 355.23L242.75 355.67L242.71 356.1L242.56 357.39L242.49 357.81L242.43 358.23L242.27 359.07L242.19 359.48L242.09 359.89L242 360.3L241.67 361.5L241.55 361.9L241.42 362.29L241.28 362.68L241.15 363.07L240.85 363.85L240.53 364.61L240.36 364.98L240.19 365.36L240 365.73L239.82 366.1L239.63 366.47L239.43 366.84L238.8 367.92L238.58 368.27L238.35 368.62L238.13 368.97L237.89 369.31L237.66 369.65L237.42 369.98L237.17 370.31L236.93 370.63L236.67 370.95L236.42 371.27L236.16 371.58L235.89 371.89L235.35 372.49L234.79 373.07L234.5 373.36L233.92 373.92L233.62 374.19L233.31 374.46L233.01 374.72L232.69 374.98L232.38 375.23L232.06 375.48L231.73 375.73L231.4 375.97L231.07 376.2L230.39 376.66L229.69 377.1L229.34 377.31L228.98 377.52L228.24 377.92L227.86 378.12L227.1 378.5L226.72 378.68L225.94 379.02L225.16 379.34L224.77 379.49L224.37 379.64L223.97 379.78L223.17 380.04L222.35 380.28L221.94 380.39L221.12 380.59L220.28 380.77L219.44 380.93L219.01 381L218.15 381.12L217.29 381.22L216.41 381.3L215.53 381.36L215.08 381.37L214.63 381.39L214.18 381.4L213.27 381.4L212.82 381.39L212.36 381.37L211.91 381.36L211.46 381.33L211.02 381.3L210.58 381.26L210.13 381.22L209.7 381.17L209.26 381.12L208.4 381L207.97 380.93L207.55 380.85L207.12 380.77L206.7 380.68L206.29 380.59L205.87 380.49L205.46 380.39L205.05 380.28L204.64 380.16L204.24 380.04L203.44 379.78L203.04 379.64L202.26 379.34L201.48 379.02L200.72 378.68L200.34 378.5L199.96 378.31L199.59 378.12L198.85 377.72L198.11 377.3L197.75 377.08L197.4 376.86L196.7 376.4L196.36 376.17L196.02 375.93L195.68 375.68L195.36 375.43L195.03 375.18L194.71 374.92L194.09 374.4L193.78 374.13L193.18 373.57L192.89 373.29L192.6 373L192.04 372.42L191.77 372.12L191.23 371.5L190.97 371.19L190.71 370.87L190.21 370.23L189.73 369.57L189.49 369.23L189.26 368.89L189.03 368.54L188.59 367.84L188.37 367.48L188.16 367.12L187.96 366.76L187.76 366.39L187.38 365.65L187.2 365.28L187.03 364.9L186.87 364.53L186.7 364.15L186.55 363.77L186.4 363.38L186.26 363L186.12 362.61L185.99 362.22L185.87 361.82L185.75 361.43L185.53 360.63L185.43 360.23L185.25 359.41L185.09 358.59L185.02 358.18L184.95 357.76L184.89 357.34L184.84 356.92L184.79 356.49L184.71 355.63L184.68 355.2L184.66 354.77L184.62 353.89L184.61 353.45L184.61 352.56L184.62 352.12L184.66 351.26L184.68 350.82L184.71 350.39L184.75 349.97L184.79 349.54L184.89 348.7L184.95 348.28L185.09 347.44L185.25 346.62L185.43 345.8L185.53 345.4L185.75 344.6L185.99 343.8L186.12 343.41L186.4 342.63L186.55 342.25L186.7 341.86L186.87 341.48L187.03 341.1L187.2 340.73L187.38 340.35L187.76 339.61L187.96 339.25L188.16 338.88L188.37 338.52L188.59 338.16L189.03 337.46L189.49 336.78L189.73 336.44L190.21 335.78L190.71 335.14L191.23 334.52L191.5 334.21L192.04 333.61L192.6 333.03L193.18 332.47L193.48 332.2L193.78 331.92L194.09 331.66L194.4 331.39L194.71 331.14L195.03 330.88L195.36 330.63L195.68 330.39L196.02 330.14L196.36 329.91L196.7 329.67L197.05 329.44L197.75 329L198.11 328.78L198.85 328.36L199.59 327.96L199.96 327.77L200.34 327.58L201.1 327.22L201.48 327.05L202.65 326.57L203.04 326.43L203.44 326.28L204.64 325.89L205.05 325.77L205.87 325.55L206.29 325.45L206.7 325.35L207.12 325.26L207.55 325.18L207.97 325.1L208.4 325.02L208.83 324.96L209.26 324.89L209.7 324.84L210.13 324.79L210.58 324.74L211.02 324.71L211.46 324.67L212.36 324.63L212.82 324.61L213.27 324.6L214.18 324.6L214.63 324.61L215.53 324.65ZM212.82 328.37L212.38 328.39L211.93 328.42L211.49 328.45L211.04 328.48L210.61 328.53L210.17 328.58L209.31 328.7L208.89 328.78L208.46 328.85L207.62 329.03L206.8 329.23L206.39 329.34L205.98 329.46L205.58 329.59L205.17 329.72L204.78 329.85L204.38 330L203.99 330.14L203.21 330.46L202.82 330.63L202.44 330.8L202.06 330.98L201.3 331.36L200.93 331.56L200.56 331.77L199.84 332.21L199.14 332.67L198.8 332.9L198.46 333.15L198.13 333.39L197.81 333.64L197.17 334.16L196.86 334.43L196.56 334.7L196.26 334.98L195.68 335.54L195.4 335.84L195.12 336.13L194.84 336.43L194.58 336.74L194.31 337.05L193.81 337.69L193.56 338.02L193.08 338.68L192.85 339.02L192.62 339.37L192.4 339.72L192.18 340.08L191.97 340.44L191.76 340.81L191.55 341.17L191.36 341.54L191.16 341.92L190.98 342.29L190.47 343.43L190.17 344.21L190.03 344.6L189.9 344.99L189.66 345.79L189.44 346.59L189.34 347L189.25 347.41L189.17 347.82L189.09 348.24L189.02 348.66L188.9 349.5L188.85 349.93L188.77 350.79L188.74 351.23L188.7 352.11L188.7 352.55L188.69 353L188.7 353.45L188.7 353.89L188.72 354.34L188.74 354.78L188.77 355.21L188.81 355.65L188.85 356.08L188.9 356.51L188.96 356.94L189.02 357.36L189.09 357.78L189.25 358.62L189.34 359.03L189.44 359.45L189.55 359.85L189.66 360.26L189.9 361.06L190.03 361.46L190.17 361.85L190.32 362.25L190.47 362.63L190.64 363.02L190.98 363.78L191.16 364.16L191.36 364.53L191.55 364.91L191.76 365.27L191.97 365.64L192.18 366L192.4 366.36L192.62 366.71L192.85 367.06L193.08 367.4L193.56 368.06L193.81 368.39L194.31 369.03L194.58 369.34L194.84 369.64L195.4 370.24L195.68 370.53L196.26 371.09L196.86 371.63L197.17 371.9L197.49 372.16L198.13 372.66L198.46 372.9L198.8 373.13L199.14 373.37L199.84 373.81L200.2 374.03L200.56 374.24L200.93 374.44L201.3 374.65L201.68 374.84L202.06 375.04L202.82 375.4L203.21 375.57L203.99 375.89L204.38 376.04L204.78 376.18L205.17 376.32L205.58 376.45L205.98 376.57L206.39 376.69L206.8 376.8L207.62 377L208.04 377.09L208.46 377.17L208.89 377.24L209.31 377.31L209.74 377.38L210.17 377.43L210.61 377.48L211.04 377.52L211.49 377.56L211.93 377.59L212.38 377.61L212.82 377.63L213.28 377.64L214.18 377.64L214.63 377.63L215.51 377.59L215.95 377.56L216.81 377.48L217.67 377.38L218.1 377.31L218.94 377.17L219.36 377.09L219.77 377L220.19 376.9L220.6 376.8L221 376.69L221.41 376.57L221.81 376.45L222.21 376.32L223.01 376.04L223.4 375.89L224.18 375.57L224.56 375.4L224.95 375.22L225.33 375.04L225.7 374.84L226.08 374.65L226.45 374.44L226.81 374.24L227.17 374.03L227.87 373.59L228.21 373.37L228.55 373.13L228.88 372.9L229.2 372.66L229.53 372.41L229.84 372.16L230.16 371.9L230.46 371.63L230.77 371.36L231.06 371.09L231.36 370.81L231.65 370.53L231.93 370.24L232.21 369.94L232.75 369.34L233.02 369.03L233.28 368.71L233.53 368.39L234.03 367.73L234.27 367.4L234.51 367.06L234.97 366.36L235.41 365.64L235.62 365.27L235.82 364.91L236.01 364.53L236.2 364.16L236.38 363.78L236.72 363.02L236.88 362.63L237.03 362.25L237.17 361.85L237.31 361.46L237.45 361.06L237.69 360.26L237.81 359.85L237.91 359.45L238.01 359.03L238.11 358.62L238.27 357.78L238.41 356.94L238.47 356.51L238.57 355.65L238.6 355.21L238.64 354.78L238.66 354.34L238.68 353.89L238.69 353.45L238.69 352.55L238.68 352.11L238.64 351.23L238.6 350.79L238.57 350.36L238.47 349.5L238.41 349.08L238.27 348.24L238.19 347.82L238.11 347.41L237.91 346.59L237.81 346.19L237.45 344.99L237.03 343.82L236.88 343.43L236.72 343.05L236.38 342.29L236.2 341.92L236.01 341.54L235.82 341.17L235.62 340.81L235.41 340.44L234.97 339.72L234.51 339.02L234.27 338.68L234.03 338.35L233.53 337.69L233.28 337.37L233.02 337.05L232.48 336.43L232.21 336.13L231.93 335.84L231.65 335.54L231.36 335.26L231.06 334.98L230.77 334.7L230.46 334.43L230.16 334.16L229.84 333.9L229.53 333.64L229.2 333.39L228.88 333.15L228.55 332.9L227.87 332.44L227.52 332.21L227.17 331.99L226.81 331.77L226.45 331.56L226.08 331.36L225.7 331.17L225.33 330.98L224.95 330.8L224.56 330.63L224.18 330.46L223.4 330.14L223.01 330L222.61 329.85L221.41 329.46L221 329.34L220.6 329.23L220.19 329.13L219.77 329.03L219.36 328.94L218.94 328.85L218.52 328.78L218.1 328.7L217.24 328.58L216.38 328.48L215.95 328.45L215.07 328.39L214.63 328.37L214.18 328.36L213.28 328.36L212.82 328.37Z" id="e4PlCeB3B"></path><path d="M335.05 325L317.85 375.48L300.41 325L296.49 325L278.97 375.4L261.93 325L257.61 325L276.65 381L280.97 381L298.41 330.76L315.77 381L320.09 381L339.05 325L335.05 325Z" id="b36F2da1JR"></path><path d="M335.05 325L317.85 375.48L300.41 325L296.49 325L278.97 375.4L261.93 325L257.61 325L276.65 381L280.97 381L298.41 330.76L315.77 381L320.09 381L339.05 325L335.05 325Z" id="a2uWmoQu2"></path><path d="M359.62 381L395.94 381L395.94 377.32L363.7 377.32L363.7 325L359.62 325L359.62 381Z" id="c17vcJ4HGT"></path><path d="M359.62 381L395.94 381L395.94 377.32L363.7 377.32L363.7 325L359.62 325L359.62 381Z" id="be8piX7Ob"></path><path d="M415.39 350.76L451.63 350.76L451.63 354.36L415.39 354.36L415.39 350.76Z" id="g1rmJbnE8"></path><path d="M415.39 350.76L451.63 350.76L451.63 354.36L415.39 354.36L415.39 350.76Z" id="d266wfoWGv"></path><path d="M500.03 325C498.55 325 491.17 325 477.87 325C477.87 325.37 477.87 328.31 477.87 328.68C490.98 328.68 498.26 328.68 499.71 328.68C504.83 328.68 509.39 329.72 513.39 331.8C517.31 333.88 520.35 336.76 522.51 340.36C524.59 344.04 525.71 348.28 525.71 353C525.71 357.8 524.59 361.96 522.51 365.64C520.35 369.32 517.31 372.2 513.39 374.28C509.39 376.36 504.83 377.32 499.71 377.32C498.53 377.32 492.61 377.32 481.95 377.32C481.95 375.7 481.95 367.59 481.95 353L477.87 353C477.87 369.8 477.87 379.13 477.87 381C491.17 381 498.55 381 500.03 381C505.79 381 510.99 379.8 515.47 377.4C519.95 375 523.47 371.72 526.03 367.48C528.51 363.24 529.79 358.44 529.79 353C529.79 347.64 528.51 342.84 526.03 338.6C523.47 334.36 519.95 331.08 515.47 328.6C510.99 326.2 505.79 325 500.03 325Z" id="j9WgNHJ4WJ"></path><path d="M500.03 325C498.55 325 491.17 325 477.87 325C477.87 325.37 477.87 328.31 477.87 328.68C490.98 328.68 498.26 328.68 499.71 328.68C504.83 328.68 509.39 329.72 513.39 331.8C517.31 333.88 520.35 336.76 522.51 340.36C524.59 344.04 525.71 348.28 525.71 353C525.71 357.8 524.59 361.96 522.51 365.64C520.35 369.32 517.31 372.2 513.39 374.28C509.39 376.36 504.83 377.32 499.71 377.32C498.53 377.32 492.61 377.32 481.95 377.32C481.95 375.7 481.95 367.59 481.95 353L477.87 353C477.87 369.8 477.87 379.13 477.87 381C491.17 381 498.55 381 500.03 381C505.79 381 510.99 379.8 515.47 377.4C519.95 375 523.47 371.72 526.03 367.48C528.51 363.24 529.79 358.44 529.79 353C529.79 347.64 528.51 342.84 526.03 338.6C523.47 334.36 519.95 331.08 515.47 328.6C510.99 326.2 505.79 325 500.03 325Z" id="a2Z42iU8q"></path><path d="M552.85 381L556.93 381L556.93 325L552.85 325L552.85 381Z" id="a2Wo8CkEWL"></path><path d="M552.85 381L556.93 381L556.93 325L552.85 325L552.85 381Z" id="aaG8rhYH"></path><path d="M601.74 325L575.98 381L580.38 381L603.74 329.48L627.18 381L631.58 381L605.82 325L601.74 325Z" id="b8XWjbEYk"></path><path d="M601.74 325L575.98 381L580.38 381L603.74 329.48L627.18 381L631.58 381L605.82 325L601.74 325Z" id="bdgbxFIjP"></path><path d="M415.22 377.43L451.46 377.43L451.46 381.03L415.22 381.03L415.22 377.43Z" id="b5S5TJz7W"></path><path d="M415.22 377.43L451.46 377.43L451.46 381.03L415.22 381.03L415.22 377.43Z" id="b18ZsyvQ9v"></path><path d="M415.18 380.75L419.11 380.75L419.11 326.75L415.18 326.75L415.18 380.75Z" id="aptJZ5P06"></path><path d="M415.18 380.75L419.11 380.75L419.11 326.75L415.18 326.75L415.18 380.75Z" id="b2U8A1QEpf"></path><path d="M477.85 381L481.93 381L481.93 325L477.85 325L477.85 381Z" id="f4lzrlNnB6"></path><path d="M477.85 381L481.93 381L481.93 325L477.85 325L477.85 381Z" id="a1ERvuTmDb"></path><path d="M345.09 199.94C345.52 199.51 347.66 197.37 351.52 193.51C340 184.35 331.51 177.99 326.03 174.46C331.34 182.68 337.77 191.27 345.09 199.94Z" id="j5ShYCqA5"></path><path d="M345.09 199.94C345.52 199.51 347.66 197.37 351.52 193.51C340 184.35 331.51 177.99 326.03 174.46C331.34 182.68 337.77 191.27 345.09 199.94Z" id="dMX9WKIRB"></path><path d="M318.58 159.47C332.93 165.45 350.05 176.42 367.46 191.15C368.17 190.43 371.76 186.85 378.21 180.4C346.32 157.94 324.89 145.84 313.93 144.07C314.68 148.68 316.25 153.86 318.58 159.47Z" id="a2o1hZCTaM"></path><path d="M318.58 159.47C332.93 165.45 350.05 176.42 367.46 191.15C368.17 190.43 371.76 186.85 378.21 180.4C346.32 157.94 324.89 145.84 313.93 144.07C314.68 148.68 316.25 153.86 318.58 159.47Z" id="bnxXEPBj"></path><path d="M313.95 132.53C330.66 128.83 362.11 144.13 394.55 171.54C395.32 170.77 399.18 166.92 406.12 159.97C355.87 128.04 326.46 116.36 317.9 124.92C315.92 126.91 314.62 129.48 313.95 132.53Z" id="b1ygBTJO3C"></path><path d="M313.95 132.53C330.66 128.83 362.11 144.13 394.55 171.54C395.32 170.77 399.18 166.92 406.12 159.97C355.87 128.04 326.46 116.36 317.9 124.92C315.92 126.91 314.62 129.48 313.95 132.53Z" id="emh1GZdwJ"></path><path d="M325.98 174.47C325.56 174.9 323.41 177.04 319.56 180.9C331.07 190.06 339.56 196.41 345.05 199.95C339.74 191.73 333.31 183.14 325.98 174.47Z" id="cF27mh4ed"></path><path d="M325.98 174.47C325.56 174.9 323.41 177.04 319.56 180.9C331.07 190.06 339.56 196.41 345.05 199.95C339.74 191.73 333.31 183.14 325.98 174.47Z" id="dfz00AiQH"></path><path d="M352.54 214.94C338.19 208.96 321.07 197.99 303.66 183.26C302.94 183.98 299.36 187.57 292.91 194.02C324.8 216.47 346.23 228.57 357.18 230.34C356.44 225.73 354.87 220.55 352.54 214.94Z" id="c9cnu5tMw"></path><path d="M352.54 214.94C338.19 208.96 321.07 197.99 303.66 183.26C302.94 183.98 299.36 187.57 292.91 194.02C324.8 216.47 346.23 228.57 357.18 230.34C356.44 225.73 354.87 220.55 352.54 214.94Z" id="f4kJSlKrJP"></path><path d="M357.16 241.88C340.46 245.58 309 230.28 276.57 202.87C275.8 203.64 271.94 207.49 265 214.43C315.25 246.37 344.66 258.05 353.22 249.49C355.2 247.51 356.5 244.93 357.16 241.88Z" id="g1zrga62v7"></path><path d="M357.16 241.88C340.46 245.58 309 230.28 276.57 202.87C275.8 203.64 271.94 207.49 265 214.43C315.25 246.37 344.66 258.05 353.22 249.49C355.2 247.51 356.5 244.93 357.16 241.88Z" id="a1K4QCuc0t"></path></defs><g><g><use xlink:href="#b3NhzTcL0U" opacity="1" fill="#000000" fill-opacity="1"></use><g><use xlink:href="#b3NhzTcL0U" opacity="1" fill-opacity="0" stroke="#000000" stroke-width="1" stroke-opacity="0"></use></g></g><g><use xlink:href="#nLblvKpXE" opacity="1" fill="#000000" fill-opacity="0"></use><g><use xlink:href="#nLblvKpXE" opacity="1" fill-opacity="0" stroke="#000000" stroke-width="1" stroke-opacity="0"></use></g></g><g><use xlink:href="#df9rnSeo" opacity="1" fill="#000000" fill-opacity="1"></use><g><use xlink:href="#df9rnSeo" opacity="1" fill-opacity="0" stroke="#000000" stroke-width="1" stroke-opacity="0"></use></g></g><g><use xlink:href="#cu8PLw4VB" opacity="1" fill="#000000" fill-opacity="0"></use><g><use xlink:href="#cu8PLw4VB" opacity="1" fill-opacity="0" stroke="#000000" stroke-width="1" stroke-opacity="0"></use></g></g><g><use xlink:href="#coRBG2FDO" opacity="1" fill="#000000" fill-opacity="1"></use><g><use xlink:href="#coRBG2FDO" opacity="1" fill-opacity="0" stroke="#000000" stroke-width="1" stroke-opacity="0"></use></g></g><g><use xlink:href="#a1jIOuWeWP" opacity="1" fill="#000000" fill-opacity="0"></use><g><use xlink:href="#a1jIOuWeWP" opacity="1" fill-opacity="0" stroke="#000000" stroke-width="1" stroke-opacity="0"></use></g></g><g><use xlink:href="#aI3pRqhI5" opacity="1" fill="#000000" fill-opacity="1"></use><g><use xlink:href="#aI3pRqhI5" opacity="1" fill-opacity="0" stroke="#000000" stroke-width="1" stroke-opacity="0"></use></g></g><g><use xlink:href="#e4PlCeB3B" opacity="1" fill="#000000" fill-opacity="0"></use><g><use xlink:href="#e4PlCeB3B" opacity="1" fill-opacity="0" stroke="#000000" stroke-width="1" stroke-opacity="0"></use></g></g><g><use xlink:href="#b36F2da1JR" opacity="1" fill="#000000" fill-opacity="1"></use><g><use xlink:href="#b36F2da1JR" opacity="1" fill-opacity="0" stroke="#000000" stroke-width="1" stroke-opacity="0"></use></g></g><g><use xlink:href="#a2uWmoQu2" opacity="1" fill="#000000" fill-opacity="0"></use><g><use xlink:href="#a2uWmoQu2" opacity="1" fill-opacity="0" stroke="#000000" stroke-width="1" stroke-opacity="0"></use></g></g><g><use xlink:href="#c17vcJ4HGT" opacity="1" fill="#000000" fill-opacity="1"></use><g><use xlink:href="#c17vcJ4HGT" opacity="1" fill-opacity="0" stroke="#000000" stroke-width="1" stroke-opacity="0"></use></g></g><g><use xlink:href="#be8piX7Ob" opacity="1" fill="#000000" fill-opacity="0"></use><g><use xlink:href="#be8piX7Ob" opacity="1" fill-opacity="0" stroke="#000000" stroke-width="1" stroke-opacity="0"></use></g></g><g><use xlink:href="#g1rmJbnE8" opacity="1" fill="#000000" fill-opacity="1"></use><g><use xlink:href="#g1rmJbnE8" opacity="1" fill-opacity="0" stroke="#000000" stroke-width="1" stroke-opacity="0"></use></g></g><g><use xlink:href="#d266wfoWGv" opacity="1" fill="#000000" fill-opacity="0"></use><g><use xlink:href="#d266wfoWGv" opacity="1" fill-opacity="0" stroke="#000000" stroke-width="1" stroke-opacity="0"></use></g></g><g><use xlink:href="#j9WgNHJ4WJ" opacity="1" fill="#000000" fill-opacity="1"></use><g><use xlink:href="#j9WgNHJ4WJ" opacity="1" fill-opacity="0" stroke="#000000" stroke-width="1" stroke-opacity="0"></use></g></g><g><use xlink:href="#a2Z42iU8q" opacity="1" fill="#000000" fill-opacity="0"></use><g><use xlink:href="#a2Z42iU8q" opacity="1" fill-opacity="0" stroke="#000000" stroke-width="1" stroke-opacity="0"></use></g></g><g><use xlink:href="#a2Wo8CkEWL" opacity="1" fill="#000000" fill-opacity="1"></use><g><use xlink:href="#a2Wo8CkEWL" opacity="1" fill-opacity="0" stroke="#000000" stroke-width="1" stroke-opacity="0"></use></g></g><g><use xlink:href="#aaG8rhYH" opacity="1" fill="#000000" fill-opacity="0"></use><g><use xlink:href="#aaG8rhYH" opacity="1" fill-opacity="0" stroke="#000000" stroke-width="1" stroke-opacity="0"></use></g></g><g><use xlink:href="#b8XWjbEYk" opacity="1" fill="#000000" fill-opacity="1"></use><g><use xlink:href="#b8XWjbEYk" opacity="1" fill-opacity="0" stroke="#000000" stroke-width="1" stroke-opacity="0"></use></g></g><g><use xlink:href="#bdgbxFIjP" opacity="1" fill="#000000" fill-opacity="0"></use><g><use xlink:href="#bdgbxFIjP" opacity="1" fill-opacity="0" stroke="#000000" stroke-width="1" stroke-opacity="0"></use></g></g><g><use xlink:href="#b5S5TJz7W" opacity="1" fill="#000000" fill-opacity="1"></use><g><use xlink:href="#b5S5TJz7W" opacity="1" fill-opacity="0" stroke="#000000" stroke-width="1" stroke-opacity="0"></use></g></g><g><use xlink:href="#b18ZsyvQ9v" opacity="1" fill="#000000" fill-opacity="0"></use><g><use xlink:href="#b18ZsyvQ9v" opacity="1" fill-opacity="0" stroke="#000000" stroke-width="1" stroke-opacity="0"></use></g></g><g><use xlink:href="#aptJZ5P06" opacity="1" fill="#000000" fill-opacity="1"></use><g><use xlink:href="#aptJZ5P06" opacity="1" fill-opacity="0" stroke="#000000" stroke-width="1" stroke-opacity="0"></use></g></g><g><use xlink:href="#b2U8A1QEpf" opacity="1" fill="#000000" fill-opacity="0"></use><g><use xlink:href="#b2U8A1QEpf" opacity="1" fill-opacity="0" stroke="#000000" stroke-width="1" stroke-opacity="0"></use></g></g><g><use xlink:href="#f4lzrlNnB6" opacity="1" fill="#000000" fill-opacity="1"></use><g><use xlink:href="#f4lzrlNnB6" opacity="1" fill-opacity="0" stroke="#000000" stroke-width="1" stroke-opacity="0"></use></g></g><g><use xlink:href="#a1ERvuTmDb" opacity="1" fill="#000000" fill-opacity="0"></use><g><use xlink:href="#a1ERvuTmDb" opacity="1" fill-opacity="0" stroke="#000000" stroke-width="1" stroke-opacity="0"></use></g></g><g><use xlink:href="#j5ShYCqA5" opacity="1" fill="#f47774" fill-opacity="1"></use><g><use xlink:href="#j5ShYCqA5" opacity="1" fill-opacity="0" stroke="#000000" stroke-width="1" stroke-opacity="0"></use></g></g><g><use xlink:href="#dMX9WKIRB" opacity="1" fill="#000000" fill-opacity="0"></use><g><use xlink:href="#dMX9WKIRB" opacity="1" fill-opacity="0" stroke="#000000" stroke-width="1" stroke-opacity="0"></use></g></g><g><use xlink:href="#a2o1hZCTaM" opacity="1" fill="#f47774" fill-opacity="1"></use><g><use xlink:href="#a2o1hZCTaM" opacity="1" fill-opacity="0" stroke="#000000" stroke-width="1" stroke-opacity="0"></use></g></g><g><use xlink:href="#bnxXEPBj" opacity="1" fill="#000000" fill-opacity="0"></use><g><use xlink:href="#bnxXEPBj" opacity="1" fill-opacity="0" stroke="#000000" stroke-width="1" stroke-opacity="0"></use></g></g><g><use xlink:href="#b1ygBTJO3C" opacity="1" fill="#f47774" fill-opacity="1"></use><g><use xlink:href="#b1ygBTJO3C" opacity="1" fill-opacity="0" stroke="#000000" stroke-width="1" stroke-opacity="0"></use></g></g><g><use xlink:href="#emh1GZdwJ" opacity="1" fill="#000000" fill-opacity="0"></use><g><use xlink:href="#emh1GZdwJ" opacity="1" fill-opacity="0" stroke="#000000" stroke-width="1" stroke-opacity="0"></use></g></g><g><use xlink:href="#cF27mh4ed" opacity="1" fill="#4cbaba" fill-opacity="1"></use><g><use xlink:href="#cF27mh4ed" opacity="1" fill-opacity="0" stroke="#000000" stroke-width="1" stroke-opacity="0"></use></g></g><g><use xlink:href="#dfz00AiQH" opacity="1" fill="#000000" fill-opacity="0"></use><g><use xlink:href="#dfz00AiQH" opacity="1" fill-opacity="0" stroke="#000000" stroke-width="1" stroke-opacity="0"></use></g></g><g><use xlink:href="#c9cnu5tMw" opacity="1" fill="#4cbaba" fill-opacity="1"></use><g><use xlink:href="#c9cnu5tMw" opacity="1" fill-opacity="0" stroke="#000000" stroke-width="1" stroke-opacity="0"></use></g></g><g><use xlink:href="#f4kJSlKrJP" opacity="1" fill="#000000" fill-opacity="0"></use><g><use xlink:href="#f4kJSlKrJP" opacity="1" fill-opacity="0" stroke="#000000" stroke-width="1" stroke-opacity="0"></use></g></g><g><use xlink:href="#g1zrga62v7" opacity="1" fill="#4cbaba" fill-opacity="1"></use><g><use xlink:href="#g1zrga62v7" opacity="1" fill-opacity="0" stroke="#000000" stroke-width="1" stroke-opacity="0"></use></g></g><g><use xlink:href="#a1K4QCuc0t" opacity="1" fill="#000000" fill-opacity="0"></use><g><use xlink:href="#a1K4QCuc0t" opacity="1" fill-opacity="0" stroke="#000000" stroke-width="1" stroke-opacity="0"></use></g></g></g></svg>