<svg xmlns="http://www.w3.org/2000/svg" xmlns:xlink="http://www.w3.org/1999/xlink" width="916" height="121.06" preserveAspectRatio="xMidYMid meet" version="1.1" viewBox="43 23.89 920 125.065"><defs><path id="fiee3gZOH" d="M731.81 48.62L731.81 53.18L685.89 53.18L685.89 48.62L731.81 48.62Z"/><path id="dz4RvNja2" d="M731.81 48.62L731.81 53.18L685.89 53.18L685.89 48.62L731.81 48.62Z"/><path id="c2XkWfaEKR" d="M731.81 48.62L731.81 53.18L685.89 53.18L685.89 48.62L731.81 48.62Z"/><path id="c1sqJ4Cqt" d="M731.81 48.62L731.81 53.18L685.89 53.18L685.89 48.62L731.81 48.62Z"/><path id="lb3ptIA8I" d="M282.05 119.47L248.71 80.75L279.94 48.53L273.65 48.53L229.35 94.13L229.35 48.53L224.19 48.53L224.19 119.47L229.35 119.47L229.35 100.82L245.26 84.51L275.78 119.47L282.05 119.47Z"/><path id="fnonaV5GW" d="M282.05 119.47L248.71 80.75L279.94 48.53L273.65 48.53L229.35 94.13L229.35 48.53L224.19 48.53L224.19 119.47L229.35 119.47L229.35 100.82L245.26 84.51L275.78 119.47L282.05 119.47Z"/><path id="a55T5hWa1" d="M282.05 119.47L248.71 80.75L279.94 48.53L273.65 48.53L229.35 94.13L229.35 48.53L224.19 48.53L224.19 119.47L229.35 119.47L229.35 100.82L245.26 84.51L275.78 119.47L282.05 119.47Z"/><path id="d1wgziXS91" d="M282.05 119.47L248.71 80.75L279.94 48.53L273.65 48.53L229.35 94.13L229.35 48.53L224.19 48.53L224.19 119.47L229.35 119.47L229.35 100.82L245.26 84.51L275.78 119.47L282.05 119.47Z"/><path id="cIfjtBIxn" d="M359.31 110.15L311.07 48.53L306.71 48.53L306.71 119.47L311.88 119.47L311.88 57.85L360.23 119.47L364.49 119.47L364.49 48.53L359.31 48.53L359.31 110.15Z"/><path id="e3RCPkYvv" d="M359.31 110.15L311.07 48.53L306.71 48.53L306.71 119.47L311.88 119.47L311.88 57.85L360.23 119.47L364.49 119.47L364.49 48.53L359.31 48.53L359.31 110.15Z"/><path id="aOnoaqJC2" d="M359.31 110.15L311.07 48.53L306.71 48.53L306.71 119.47L311.88 119.47L311.88 57.85L360.23 119.47L364.49 119.47L364.49 48.53L359.31 48.53L359.31 110.15Z"/><path id="aOrPAddnB" d="M359.31 110.15L311.07 48.53L306.71 48.53L306.71 119.47L311.88 119.47L311.88 57.85L360.23 119.47L364.49 119.47L364.49 48.53L359.31 48.53L359.31 110.15Z"/><path id="f6x5FAUjac" d="M432.9 48.08L433.46 48.11L434.01 48.16L434.57 48.2L435.13 48.26L436.22 48.39L436.76 48.46L437.85 48.64L438.39 48.74L438.92 48.86L439.45 48.96L439.98 49.08L440.5 49.21L442.06 49.63L442.58 49.79L443.6 50.12L444.6 50.48L445.09 50.67L446.58 51.28L447.07 51.51L447.55 51.72L448.04 51.95L449 52.43L449.47 52.68L449.94 52.95L450.39 53.22L451.72 54.05L452.16 54.35L452.59 54.65L453 54.94L453.42 55.26L453.84 55.56L454.25 55.88L454.64 56.21L455.05 56.53L455.43 56.86L455.82 57.19L456.2 57.54L456.57 57.88L457.3 58.59L458.01 59.33L458.7 60.09L459.04 60.48L459.37 60.88L459.68 61.27L460.01 61.67L460.32 62.08L460.64 62.5L460.94 62.92L461.23 63.35L461.54 63.78L461.81 64.21L462.11 64.65L462.37 65.1L462.91 66.01L463.17 66.48L463.43 66.94L463.67 67.4L463.9 67.87L464.14 68.36L464.35 68.82L464.57 69.31L464.77 69.79L464.97 70.28L465.16 70.76L465.35 71.26L465.52 71.76L465.7 72.26L465.86 72.77L466.01 73.26L466.15 73.78L466.29 74.29L466.43 74.81L466.55 75.3L466.67 75.84L466.87 76.88L466.98 77.41L467.05 77.94L467.14 78.49L467.2 79.02L467.33 80.11L467.38 80.65L467.42 81.2L467.45 81.76L467.48 82.31L467.51 83.43L467.51 84.57L467.48 85.71L467.42 86.83L467.38 87.38L467.33 87.93L467.14 89.56L467.05 90.1L466.98 90.63L466.77 91.69L466.67 92.21L466.43 93.24L466.01 94.76L465.86 95.27L465.7 95.77L465.52 96.26L465.35 96.75L464.97 97.74L464.57 98.71L464.35 99.18L464.14 99.66L463.9 100.13L463.67 100.6L463.43 101.06L463.17 101.53L462.37 102.9L462.11 103.35L461.81 103.79L461.54 104.23L461.23 104.66L460.94 105.1L460.64 105.51L460.32 105.93L460.01 106.34L459.68 106.74L459.37 107.15L459.04 107.54L458.7 107.94L458.01 108.7L457.3 109.43L456.93 109.8L456.2 110.51L455.82 110.85L455.43 111.18L455.05 111.51L454.64 111.84L454.25 112.16L453.84 112.48L453 113.1L452.59 113.39L451.72 113.97L450.84 114.53L450.39 114.8L449.94 115.06L449 115.57L448.52 115.82L447.55 116.3L447.07 116.53L446.08 116.96L445.09 117.37L444.6 117.56L444.1 117.75L443.6 117.93L442.58 118.26L441.54 118.56L441.02 118.7L439.98 118.95L438.92 119.18L437.85 119.38L437.31 119.47L436.22 119.63L435.13 119.75L434.01 119.85L432.9 119.93L432.33 119.94L431.76 119.97L431.19 119.98L430.03 119.98L429.46 119.97L428.88 119.94L428.31 119.93L427.74 119.89L427.18 119.85L426.62 119.8L426.05 119.75L425.52 119.69L424.96 119.63L423.87 119.47L423.32 119.38L422.79 119.28L422.25 119.18L421.71 119.07L421.19 118.95L420.66 118.83L420.14 118.7L419.62 118.56L419.1 118.41L418.6 118.26L417.58 117.93L417.07 117.75L416.09 117.37L415.1 116.96L414.13 116.53L413.65 116.3L413.17 116.06L412.7 115.82L411.76 115.32L410.83 114.78L410.37 114.5L409.93 114.23L409.04 113.64L408.61 113.35L408.18 113.05L407.76 112.73L407.35 112.41L406.93 112.1L406.53 111.77L405.74 111.12L405.35 110.77L404.59 110.06L404.22 109.71L403.85 109.34L403.14 108.61L402.8 108.23L402.11 107.44L401.78 107.05L401.46 106.64L400.82 105.83L400.21 104.99L399.91 104.56L399.62 104.13L399.33 103.69L398.77 102.8L398.49 102.34L398.22 101.89L397.97 101.43L397.72 100.96L397.23 100.03L397.01 99.56L396.79 99.07L396.59 98.61L396.37 98.12L396.18 97.64L395.99 97.15L395.81 96.67L395.64 96.17L395.47 95.68L395.32 95.17L395.17 94.68L394.89 93.66L394.76 93.15L394.53 92.13L394.33 91.09L394.24 90.57L394.15 90.03L394.01 88.97L393.95 88.42L393.85 87.33L393.81 86.79L393.79 86.24L393.74 85.13L393.72 84.57L393.72 83.44L393.74 82.88L393.79 81.79L393.81 81.24L393.85 80.69L393.9 80.16L393.95 79.61L394.08 78.55L394.15 78.02L394.33 76.95L394.53 75.91L394.76 74.88L394.89 74.38L395.17 73.36L395.47 72.35L395.64 71.85L395.99 70.86L396.18 70.38L396.37 69.89L396.59 69.41L396.79 68.93L397.01 68.46L397.23 67.97L397.72 67.04L397.97 66.58L398.22 66.11L398.49 65.66L398.77 65.2L399.33 64.31L399.91 63.45L400.21 63.02L400.82 62.18L401.46 61.37L402.11 60.58L402.46 60.19L403.14 59.43L403.85 58.7L404.59 57.99L405.35 57.29L405.74 56.96L406.13 56.63L406.53 56.31L406.93 55.98L407.35 55.66L407.76 55.36L408.18 55.04L408.61 54.75L409.04 54.45L409.48 54.16L410.37 53.6L410.83 53.32L411.76 52.79L412.7 52.28L413.17 52.04L413.65 51.8L414.62 51.34L415.1 51.13L416.58 50.52L417.07 50.34L417.58 50.15L419.1 49.66L419.62 49.5L420.66 49.22L421.19 49.1L421.71 48.97L422.25 48.86L422.79 48.76L423.32 48.65L423.87 48.55L424.41 48.48L424.96 48.39L425.52 48.32L426.05 48.26L426.62 48.2L427.18 48.16L427.74 48.11L428.88 48.06L429.46 48.03L430.03 48.02L431.19 48.02L431.76 48.03L432.9 48.08ZM429.46 52.8L428.9 52.82L428.33 52.86L427.78 52.9L427.21 52.94L426.66 53L426.1 53.07L425.02 53.22L424.49 53.32L423.95 53.41L422.88 53.64L421.84 53.89L421.32 54.03L420.8 54.18L420.29 54.35L419.77 54.51L419.28 54.67L418.77 54.87L418.28 55.04L417.29 55.45L416.8 55.66L416.31 55.88L415.83 56.11L414.87 56.59L414.4 56.84L413.93 57.1L413.02 57.66L412.13 58.24L411.7 58.53L411.27 58.85L410.85 59.15L410.45 59.47L409.63 60.13L409.24 60.47L408.86 60.81L408.48 61.17L407.76 61.88L407.4 62.26L407.05 62.63L406.69 63.01L406.36 63.4L406.02 63.79L405.38 64.6L405.07 65.02L404.46 65.86L404.17 66.29L403.88 66.73L403.32 67.63L403.05 68.09L402.79 68.56L402.52 69.01L402.28 69.48L402.03 69.96L401.8 70.43L401.15 71.88L400.77 72.87L400.59 73.36L400.43 73.86L400.12 74.87L399.85 75.87L399.72 76.39L399.6 76.91L399.5 77.43L399.4 77.97L399.31 78.5L399.16 79.56L399.1 80.11L399 81.2L398.96 81.76L398.91 82.87L398.91 83.43L398.89 84L398.91 84.57L398.91 85.13L398.93 85.7L398.96 86.26L399 86.8L399.05 87.36L399.1 87.9L399.16 88.45L399.24 88.99L399.31 89.53L399.4 90.06L399.6 91.12L399.72 91.64L399.85 92.18L399.98 92.68L400.12 93.19L400.43 94.21L400.59 94.71L400.77 95.21L400.96 95.72L401.15 96.2L401.37 96.69L401.8 97.65L402.03 98.14L402.28 98.61L402.52 99.09L402.79 99.54L403.05 100.01L403.32 100.47L403.6 100.93L403.88 101.37L404.17 101.81L404.46 102.24L405.07 103.08L405.38 103.5L406.02 104.31L406.36 104.7L406.69 105.08L407.4 105.84L407.76 106.21L408.48 106.92L409.24 107.61L409.63 107.95L410.04 108.28L410.85 108.91L411.27 109.22L411.7 109.51L412.13 109.81L413.02 110.37L413.47 110.65L413.93 110.91L414.87 111.42L415.35 111.66L415.83 111.92L416.8 112.37L417.29 112.59L418.28 113L418.77 113.19L419.28 113.36L419.77 113.54L420.29 113.71L420.8 113.86L421.32 114.01L421.84 114.15L422.88 114.4L423.41 114.52L423.95 114.62L424.49 114.71L425.02 114.8L425.57 114.88L426.1 114.95L426.66 115.01L427.21 115.06L427.78 115.11L428.33 115.15L428.9 115.18L429.46 115.2L430.05 115.21L431.19 115.21L431.76 115.2L432.87 115.15L433.43 115.11L434.52 115.01L435.61 114.88L436.16 114.8L437.22 114.62L437.75 114.52L438.27 114.4L438.8 114.28L439.32 114.15L439.83 114.01L440.35 113.86L440.86 113.71L441.37 113.54L442.38 113.19L442.87 113L443.86 112.59L444.33 112.37L444.83 112.15L445.31 111.92L445.78 111.66L446.26 111.42L446.73 111.16L447.19 110.91L447.64 110.65L448.53 110.09L448.96 109.81L449.39 109.51L449.81 109.22L450.22 108.91L450.63 108.59L451.03 108.28L451.43 107.95L451.81 107.61L452.21 107.26L452.57 106.92L452.95 106.57L453.32 106.21L453.68 105.84L454.03 105.46L454.72 104.7L455.06 104.31L455.39 103.9L455.7 103.5L456.34 102.66L456.64 102.24L456.95 101.81L457.53 100.93L458.09 100.01L458.35 99.54L458.61 99.09L458.85 98.61L459.09 98.14L459.32 97.65L459.75 96.69L459.95 96.2L460.14 95.72L460.32 95.21L460.5 94.71L460.67 94.21L460.98 93.19L461.13 92.68L461.26 92.18L461.38 91.64L461.51 91.12L461.71 90.06L461.89 88.99L461.97 88.45L462.09 87.36L462.13 86.8L462.18 86.26L462.21 85.7L462.23 85.13L462.25 84.57L462.25 83.43L462.23 82.87L462.18 81.76L462.13 81.2L462.09 80.65L461.97 79.56L461.89 79.03L461.71 77.97L461.61 77.43L461.51 76.91L461.26 75.87L461.13 75.37L460.67 73.86L460.14 72.37L459.95 71.88L459.75 71.4L459.32 70.43L459.09 69.96L458.85 69.48L458.61 69.01L458.35 68.56L458.09 68.09L457.53 67.18L456.95 66.29L456.64 65.86L456.34 65.44L455.7 64.6L455.39 64.2L455.06 63.79L454.37 63.01L454.03 62.63L453.68 62.26L453.32 61.88L452.95 61.52L452.57 61.17L452.21 60.81L451.81 60.47L451.43 60.13L450.63 59.47L450.22 59.15L449.81 58.85L449.39 58.53L448.53 57.95L448.09 57.66L447.19 57.1L446.73 56.84L446.26 56.59L445.78 56.35L445.31 56.11L444.83 55.88L444.33 55.66L443.86 55.45L442.87 55.04L442.38 54.87L441.87 54.67L440.35 54.18L439.83 54.03L439.32 53.89L438.8 53.76L438.27 53.64L437.75 53.52L437.22 53.41L436.69 53.32L436.16 53.22L435.07 53.07L433.97 52.94L433.43 52.9L432.31 52.82L431.76 52.8L431.19 52.79L430.05 52.79L429.46 52.8Z"/><path id="ecFenVQVZ" d="M432.9 48.08L433.46 48.11L434.01 48.16L434.57 48.2L435.13 48.26L436.22 48.39L436.76 48.46L437.85 48.64L438.39 48.74L438.92 48.86L439.45 48.96L439.98 49.08L440.5 49.21L442.06 49.63L442.58 49.79L443.6 50.12L444.6 50.48L445.09 50.67L446.58 51.28L447.07 51.51L447.55 51.72L448.04 51.95L449 52.43L449.47 52.68L449.94 52.95L450.39 53.22L451.72 54.05L452.16 54.35L452.59 54.65L453 54.94L453.42 55.26L453.84 55.56L454.25 55.88L454.64 56.21L455.05 56.53L455.43 56.86L455.82 57.19L456.2 57.54L456.57 57.88L457.3 58.59L458.01 59.33L458.7 60.09L459.04 60.48L459.37 60.88L459.68 61.27L460.01 61.67L460.32 62.08L460.64 62.5L460.94 62.92L461.23 63.35L461.54 63.78L461.81 64.21L462.11 64.65L462.37 65.1L462.91 66.01L463.17 66.48L463.43 66.94L463.67 67.4L463.9 67.87L464.14 68.36L464.35 68.82L464.57 69.31L464.77 69.79L464.97 70.28L465.16 70.76L465.35 71.26L465.52 71.76L465.7 72.26L465.86 72.77L466.01 73.26L466.15 73.78L466.29 74.29L466.43 74.81L466.55 75.3L466.67 75.84L466.87 76.88L466.98 77.41L467.05 77.94L467.14 78.49L467.2 79.02L467.33 80.11L467.38 80.65L467.42 81.2L467.45 81.76L467.48 82.31L467.51 83.43L467.51 84.57L467.48 85.71L467.42 86.83L467.38 87.38L467.33 87.93L467.14 89.56L467.05 90.1L466.98 90.63L466.77 91.69L466.67 92.21L466.43 93.24L466.01 94.76L465.86 95.27L465.7 95.77L465.52 96.26L465.35 96.75L464.97 97.74L464.57 98.71L464.35 99.18L464.14 99.66L463.9 100.13L463.67 100.6L463.43 101.06L463.17 101.53L462.37 102.9L462.11 103.35L461.81 103.79L461.54 104.23L461.23 104.66L460.94 105.1L460.64 105.51L460.32 105.93L460.01 106.34L459.68 106.74L459.37 107.15L459.04 107.54L458.7 107.94L458.01 108.7L457.3 109.43L456.93 109.8L456.2 110.51L455.82 110.85L455.43 111.18L455.05 111.51L454.64 111.84L454.25 112.16L453.84 112.48L453 113.1L452.59 113.39L451.72 113.97L450.84 114.53L450.39 114.8L449.94 115.06L449 115.57L448.52 115.82L447.55 116.3L447.07 116.53L446.08 116.96L445.09 117.37L444.6 117.56L444.1 117.75L443.6 117.93L442.58 118.26L441.54 118.56L441.02 118.7L439.98 118.95L438.92 119.18L437.85 119.38L437.31 119.47L436.22 119.63L435.13 119.75L434.01 119.85L432.9 119.93L432.33 119.94L431.76 119.97L431.19 119.98L430.03 119.98L429.46 119.97L428.88 119.94L428.31 119.93L427.74 119.89L427.18 119.85L426.62 119.8L426.05 119.75L425.52 119.69L424.96 119.63L423.87 119.47L423.32 119.38L422.79 119.28L422.25 119.18L421.71 119.07L421.19 118.95L420.66 118.83L420.14 118.7L419.62 118.56L419.1 118.41L418.6 118.26L417.58 117.93L417.07 117.75L416.09 117.37L415.1 116.96L414.13 116.53L413.65 116.3L413.17 116.06L412.7 115.82L411.76 115.32L410.83 114.78L410.37 114.5L409.93 114.23L409.04 113.64L408.61 113.35L408.18 113.05L407.76 112.73L407.35 112.41L406.93 112.1L406.53 111.77L405.74 111.12L405.35 110.77L404.59 110.06L404.22 109.71L403.85 109.34L403.14 108.61L402.8 108.23L402.11 107.44L401.78 107.05L401.46 106.64L400.82 105.83L400.21 104.99L399.91 104.56L399.62 104.13L399.33 103.69L398.77 102.8L398.49 102.34L398.22 101.89L397.97 101.43L397.72 100.96L397.23 100.03L397.01 99.56L396.79 99.07L396.59 98.61L396.37 98.12L396.18 97.64L395.99 97.15L395.81 96.67L395.64 96.17L395.47 95.68L395.32 95.17L395.17 94.68L394.89 93.66L394.76 93.15L394.53 92.13L394.33 91.09L394.24 90.57L394.15 90.03L394.01 88.97L393.95 88.42L393.85 87.33L393.81 86.79L393.79 86.24L393.74 85.13L393.72 84.57L393.72 83.44L393.74 82.88L393.79 81.79L393.81 81.24L393.85 80.69L393.9 80.16L393.95 79.61L394.08 78.55L394.15 78.02L394.33 76.95L394.53 75.91L394.76 74.88L394.89 74.38L395.17 73.36L395.47 72.35L395.64 71.85L395.99 70.86L396.18 70.38L396.37 69.89L396.59 69.41L396.79 68.93L397.01 68.46L397.23 67.97L397.72 67.04L397.97 66.58L398.22 66.11L398.49 65.66L398.77 65.2L399.33 64.31L399.91 63.45L400.21 63.02L400.82 62.18L401.46 61.37L402.11 60.58L402.46 60.19L403.14 59.43L403.85 58.7L404.59 57.99L405.35 57.29L405.74 56.96L406.13 56.63L406.53 56.31L406.93 55.98L407.35 55.66L407.76 55.36L408.18 55.04L408.61 54.75L409.04 54.45L409.48 54.16L410.37 53.6L410.83 53.32L411.76 52.79L412.7 52.28L413.17 52.04L413.65 51.8L414.62 51.34L415.1 51.13L416.58 50.52L417.07 50.34L417.58 50.15L419.1 49.66L419.62 49.5L420.66 49.22L421.19 49.1L421.71 48.97L422.25 48.86L422.79 48.76L423.32 48.65L423.87 48.55L424.41 48.48L424.96 48.39L425.52 48.32L426.05 48.26L426.62 48.2L427.18 48.16L427.74 48.11L428.88 48.06L429.46 48.03L430.03 48.02L431.19 48.02L431.76 48.03L432.9 48.08ZM429.46 52.8L428.9 52.82L428.33 52.86L427.78 52.9L427.21 52.94L426.66 53L426.1 53.07L425.02 53.22L424.49 53.32L423.95 53.41L422.88 53.64L421.84 53.89L421.32 54.03L420.8 54.18L420.29 54.35L419.77 54.51L419.28 54.67L418.77 54.87L418.28 55.04L417.29 55.45L416.8 55.66L416.31 55.88L415.83 56.11L414.87 56.59L414.4 56.84L413.93 57.1L413.02 57.66L412.13 58.24L411.7 58.53L411.27 58.85L410.85 59.15L410.45 59.47L409.63 60.13L409.24 60.47L408.86 60.81L408.48 61.17L407.76 61.88L407.4 62.26L407.05 62.63L406.69 63.01L406.36 63.4L406.02 63.79L405.38 64.6L405.07 65.02L404.46 65.86L404.17 66.29L403.88 66.73L403.32 67.63L403.05 68.09L402.79 68.56L402.52 69.01L402.28 69.48L402.03 69.96L401.8 70.43L401.15 71.88L400.77 72.87L400.59 73.36L400.43 73.86L400.12 74.87L399.85 75.87L399.72 76.39L399.6 76.91L399.5 77.43L399.4 77.97L399.31 78.5L399.16 79.56L399.1 80.11L399 81.2L398.96 81.76L398.91 82.87L398.91 83.43L398.89 84L398.91 84.57L398.91 85.13L398.93 85.7L398.96 86.26L399 86.8L399.05 87.36L399.1 87.9L399.16 88.45L399.24 88.99L399.31 89.53L399.4 90.06L399.6 91.12L399.72 91.64L399.85 92.18L399.98 92.68L400.12 93.19L400.43 94.21L400.59 94.71L400.77 95.21L400.96 95.72L401.15 96.2L401.37 96.69L401.8 97.65L402.03 98.14L402.28 98.61L402.52 99.09L402.79 99.54L403.05 100.01L403.32 100.47L403.6 100.93L403.88 101.37L404.17 101.81L404.46 102.24L405.07 103.08L405.38 103.5L406.02 104.31L406.36 104.7L406.69 105.08L407.4 105.84L407.76 106.21L408.48 106.92L409.24 107.61L409.63 107.95L410.04 108.28L410.85 108.91L411.27 109.22L411.7 109.51L412.13 109.81L413.02 110.37L413.47 110.65L413.93 110.91L414.87 111.42L415.35 111.66L415.83 111.92L416.8 112.37L417.29 112.59L418.28 113L418.77 113.19L419.28 113.36L419.77 113.54L420.29 113.71L420.8 113.86L421.32 114.01L421.84 114.15L422.88 114.4L423.41 114.52L423.95 114.62L424.49 114.71L425.02 114.8L425.57 114.88L426.1 114.95L426.66 115.01L427.21 115.06L427.78 115.11L428.33 115.15L428.9 115.18L429.46 115.2L430.05 115.21L431.19 115.21L431.76 115.2L432.87 115.15L433.43 115.11L434.52 115.01L435.61 114.88L436.16 114.8L437.22 114.62L437.75 114.52L438.27 114.4L438.8 114.28L439.32 114.15L439.83 114.01L440.35 113.86L440.86 113.71L441.37 113.54L442.38 113.19L442.87 113L443.86 112.59L444.33 112.37L444.83 112.15L445.31 111.92L445.78 111.66L446.26 111.42L446.73 111.16L447.19 110.91L447.64 110.65L448.53 110.09L448.96 109.81L449.39 109.51L449.81 109.22L450.22 108.91L450.63 108.59L451.03 108.28L451.43 107.95L451.81 107.61L452.21 107.26L452.57 106.92L452.95 106.57L453.32 106.21L453.68 105.84L454.03 105.46L454.72 104.7L455.06 104.31L455.39 103.9L455.7 103.5L456.34 102.66L456.64 102.24L456.95 101.81L457.53 100.93L458.09 100.01L458.35 99.54L458.61 99.09L458.85 98.61L459.09 98.14L459.32 97.65L459.75 96.69L459.95 96.2L460.14 95.72L460.32 95.21L460.5 94.71L460.67 94.21L460.98 93.19L461.13 92.68L461.26 92.18L461.38 91.64L461.51 91.12L461.71 90.06L461.89 88.99L461.97 88.45L462.09 87.36L462.13 86.8L462.18 86.26L462.21 85.7L462.23 85.13L462.25 84.57L462.25 83.43L462.23 82.87L462.18 81.76L462.13 81.2L462.09 80.65L461.97 79.56L461.89 79.03L461.71 77.97L461.61 77.43L461.51 76.91L461.26 75.87L461.13 75.37L460.67 73.86L460.14 72.37L459.95 71.88L459.75 71.4L459.32 70.43L459.09 69.96L458.85 69.48L458.61 69.01L458.35 68.56L458.09 68.09L457.53 67.18L456.95 66.29L456.64 65.86L456.34 65.44L455.7 64.6L455.39 64.2L455.06 63.79L454.37 63.01L454.03 62.63L453.68 62.26L453.32 61.88L452.95 61.52L452.57 61.17L452.21 60.81L451.81 60.47L451.43 60.13L450.63 59.47L450.22 59.15L449.81 58.85L449.39 58.53L448.53 57.95L448.09 57.66L447.19 57.1L446.73 56.84L446.26 56.59L445.78 56.35L445.31 56.11L444.83 55.88L444.33 55.66L443.86 55.45L442.87 55.04L442.38 54.87L441.87 54.67L440.35 54.18L439.83 54.03L439.32 53.89L438.8 53.76L438.27 53.64L437.75 53.52L437.22 53.41L436.69 53.32L436.16 53.22L435.07 53.07L433.97 52.94L433.43 52.9L432.31 52.82L431.76 52.8L431.19 52.79L430.05 52.79L429.46 52.8Z"/><path id="alynUUUVF" d="M432.9 48.08L433.46 48.11L434.01 48.16L434.57 48.2L435.13 48.26L436.22 48.39L436.76 48.46L437.85 48.64L438.39 48.74L438.92 48.86L439.45 48.96L439.98 49.08L440.5 49.21L442.06 49.63L442.58 49.79L443.6 50.12L444.6 50.48L445.09 50.67L446.58 51.28L447.07 51.51L447.55 51.72L448.04 51.95L449 52.43L449.47 52.68L449.94 52.95L450.39 53.22L451.72 54.05L452.16 54.35L452.59 54.65L453 54.94L453.42 55.26L453.84 55.56L454.25 55.88L454.64 56.21L455.05 56.53L455.43 56.86L455.82 57.19L456.2 57.54L456.57 57.88L457.3 58.59L458.01 59.33L458.7 60.09L459.04 60.48L459.37 60.88L459.68 61.27L460.01 61.67L460.32 62.08L460.64 62.5L460.94 62.92L461.23 63.35L461.54 63.78L461.81 64.21L462.11 64.65L462.37 65.1L462.91 66.01L463.17 66.48L463.43 66.94L463.67 67.4L463.9 67.87L464.14 68.36L464.35 68.82L464.57 69.31L464.77 69.79L464.97 70.28L465.16 70.76L465.35 71.26L465.52 71.76L465.7 72.26L465.86 72.77L466.01 73.26L466.15 73.78L466.29 74.29L466.43 74.81L466.55 75.3L466.67 75.84L466.87 76.88L466.98 77.41L467.05 77.94L467.14 78.49L467.2 79.02L467.33 80.11L467.38 80.65L467.42 81.2L467.45 81.76L467.48 82.31L467.51 83.43L467.51 84.57L467.48 85.71L467.42 86.83L467.38 87.38L467.33 87.93L467.14 89.56L467.05 90.1L466.98 90.63L466.77 91.69L466.67 92.21L466.43 93.24L466.01 94.76L465.86 95.27L465.7 95.77L465.52 96.26L465.35 96.75L464.97 97.74L464.57 98.71L464.35 99.18L464.14 99.66L463.9 100.13L463.67 100.6L463.43 101.06L463.17 101.53L462.37 102.9L462.11 103.35L461.81 103.79L461.54 104.23L461.23 104.66L460.94 105.1L460.64 105.51L460.32 105.93L460.01 106.34L459.68 106.74L459.37 107.15L459.04 107.54L458.7 107.94L458.01 108.7L457.3 109.43L456.93 109.8L456.2 110.51L455.82 110.85L455.43 111.18L455.05 111.51L454.64 111.84L454.25 112.16L453.84 112.48L453 113.1L452.59 113.39L451.72 113.97L450.84 114.53L450.39 114.8L449.94 115.06L449 115.57L448.52 115.82L447.55 116.3L447.07 116.53L446.08 116.96L445.09 117.37L444.6 117.56L444.1 117.75L443.6 117.93L442.58 118.26L441.54 118.56L441.02 118.7L439.98 118.95L438.92 119.18L437.85 119.38L437.31 119.47L436.22 119.63L435.13 119.75L434.01 119.85L432.9 119.93L432.33 119.94L431.76 119.97L431.19 119.98L430.03 119.98L429.46 119.97L428.88 119.94L428.31 119.93L427.74 119.89L427.18 119.85L426.62 119.8L426.05 119.75L425.52 119.69L424.96 119.63L423.87 119.47L423.32 119.38L422.79 119.28L422.25 119.18L421.71 119.07L421.19 118.95L420.66 118.83L420.14 118.7L419.62 118.56L419.1 118.41L418.6 118.26L417.58 117.93L417.07 117.75L416.09 117.37L415.1 116.96L414.13 116.53L413.65 116.3L413.17 116.06L412.7 115.82L411.76 115.32L410.83 114.78L410.37 114.5L409.93 114.23L409.04 113.64L408.61 113.35L408.18 113.05L407.76 112.73L407.35 112.41L406.93 112.1L406.53 111.77L405.74 111.12L405.35 110.77L404.59 110.06L404.22 109.71L403.85 109.34L403.14 108.61L402.8 108.23L402.11 107.44L401.78 107.05L401.46 106.64L400.82 105.83L400.21 104.99L399.91 104.56L399.62 104.13L399.33 103.69L398.77 102.8L398.49 102.34L398.22 101.89L397.97 101.43L397.72 100.96L397.23 100.03L397.01 99.56L396.79 99.07L396.59 98.61L396.37 98.12L396.18 97.64L395.99 97.15L395.81 96.67L395.64 96.17L395.47 95.68L395.32 95.17L395.17 94.68L394.89 93.66L394.76 93.15L394.53 92.13L394.33 91.09L394.24 90.57L394.15 90.03L394.01 88.97L393.95 88.42L393.85 87.33L393.81 86.79L393.79 86.24L393.74 85.13L393.72 84.57L393.72 83.44L393.74 82.88L393.79 81.79L393.81 81.24L393.85 80.69L393.9 80.16L393.95 79.61L394.08 78.55L394.15 78.02L394.33 76.95L394.53 75.91L394.76 74.88L394.89 74.38L395.17 73.36L395.47 72.35L395.64 71.85L395.99 70.86L396.18 70.38L396.37 69.89L396.59 69.41L396.79 68.93L397.01 68.46L397.23 67.97L397.72 67.04L397.97 66.58L398.22 66.11L398.49 65.66L398.77 65.2L399.33 64.31L399.91 63.45L400.21 63.02L400.82 62.18L401.46 61.37L402.11 60.58L402.46 60.19L403.14 59.43L403.85 58.7L404.59 57.99L405.35 57.29L405.74 56.96L406.13 56.63L406.53 56.31L406.93 55.98L407.35 55.66L407.76 55.36L408.18 55.04L408.61 54.75L409.04 54.45L409.48 54.16L410.37 53.6L410.83 53.32L411.76 52.79L412.7 52.28L413.17 52.04L413.65 51.8L414.62 51.34L415.1 51.13L416.58 50.52L417.07 50.34L417.58 50.15L419.1 49.66L419.62 49.5L420.66 49.22L421.19 49.1L421.71 48.97L422.25 48.86L422.79 48.76L423.32 48.65L423.87 48.55L424.41 48.48L424.96 48.39L425.52 48.32L426.05 48.26L426.62 48.2L427.18 48.16L427.74 48.11L428.88 48.06L429.46 48.03L430.03 48.02L431.19 48.02L431.76 48.03L432.9 48.08ZM429.46 52.8L428.9 52.82L428.33 52.86L427.78 52.9L427.21 52.94L426.66 53L426.1 53.07L425.02 53.22L424.49 53.32L423.95 53.41L422.88 53.64L421.84 53.89L421.32 54.03L420.8 54.18L420.29 54.35L419.77 54.51L419.28 54.67L418.77 54.87L418.28 55.04L417.29 55.45L416.8 55.66L416.31 55.88L415.83 56.11L414.87 56.59L414.4 56.84L413.93 57.1L413.02 57.66L412.13 58.24L411.7 58.53L411.27 58.85L410.85 59.15L410.45 59.47L409.63 60.13L409.24 60.47L408.86 60.81L408.48 61.17L407.76 61.88L407.4 62.26L407.05 62.63L406.69 63.01L406.36 63.4L406.02 63.79L405.38 64.6L405.07 65.02L404.46 65.86L404.17 66.29L403.88 66.73L403.32 67.63L403.05 68.09L402.79 68.56L402.52 69.01L402.28 69.48L402.03 69.96L401.8 70.43L401.15 71.88L400.77 72.87L400.59 73.36L400.43 73.86L400.12 74.87L399.85 75.87L399.72 76.39L399.6 76.91L399.5 77.43L399.4 77.97L399.31 78.5L399.16 79.56L399.1 80.11L399 81.2L398.96 81.76L398.91 82.87L398.91 83.43L398.89 84L398.91 84.57L398.91 85.13L398.93 85.7L398.96 86.26L399 86.8L399.05 87.36L399.1 87.9L399.16 88.45L399.24 88.99L399.31 89.53L399.4 90.06L399.6 91.12L399.72 91.64L399.85 92.18L399.98 92.68L400.12 93.19L400.43 94.21L400.59 94.71L400.77 95.21L400.96 95.72L401.15 96.2L401.37 96.69L401.8 97.65L402.03 98.14L402.28 98.61L402.52 99.09L402.79 99.54L403.05 100.01L403.32 100.47L403.6 100.93L403.88 101.37L404.17 101.81L404.46 102.24L405.07 103.08L405.38 103.5L406.02 104.31L406.36 104.7L406.69 105.08L407.4 105.84L407.76 106.21L408.48 106.92L409.24 107.61L409.63 107.95L410.04 108.28L410.85 108.91L411.27 109.22L411.7 109.51L412.13 109.81L413.02 110.37L413.47 110.65L413.93 110.91L414.87 111.42L415.35 111.66L415.83 111.92L416.8 112.37L417.29 112.59L418.28 113L418.77 113.19L419.28 113.36L419.77 113.54L420.29 113.71L420.8 113.86L421.32 114.01L421.84 114.15L422.88 114.4L423.41 114.52L423.95 114.62L424.49 114.71L425.02 114.8L425.57 114.88L426.1 114.95L426.66 115.01L427.21 115.06L427.78 115.11L428.33 115.15L428.9 115.18L429.46 115.2L430.05 115.21L431.19 115.21L431.76 115.2L432.87 115.15L433.43 115.11L434.52 115.01L435.61 114.88L436.16 114.8L437.22 114.62L437.75 114.52L438.27 114.4L438.8 114.28L439.32 114.15L439.83 114.01L440.35 113.86L440.86 113.71L441.37 113.54L442.38 113.19L442.87 113L443.86 112.59L444.33 112.37L444.83 112.15L445.31 111.92L445.78 111.66L446.26 111.42L446.73 111.16L447.19 110.91L447.64 110.65L448.53 110.09L448.96 109.81L449.39 109.51L449.81 109.22L450.22 108.91L450.63 108.59L451.03 108.28L451.43 107.95L451.81 107.61L452.21 107.26L452.57 106.92L452.95 106.57L453.32 106.21L453.68 105.84L454.03 105.46L454.72 104.7L455.06 104.31L455.39 103.9L455.7 103.5L456.34 102.66L456.64 102.24L456.95 101.81L457.53 100.93L458.09 100.01L458.35 99.54L458.61 99.09L458.85 98.61L459.09 98.14L459.32 97.65L459.75 96.69L459.95 96.2L460.14 95.72L460.32 95.21L460.5 94.71L460.67 94.21L460.98 93.19L461.13 92.68L461.26 92.18L461.38 91.64L461.51 91.12L461.71 90.06L461.89 88.99L461.97 88.45L462.09 87.36L462.13 86.8L462.18 86.26L462.21 85.7L462.23 85.13L462.25 84.57L462.25 83.43L462.23 82.87L462.18 81.76L462.13 81.2L462.09 80.65L461.97 79.56L461.89 79.03L461.71 77.97L461.61 77.43L461.51 76.91L461.26 75.87L461.13 75.37L460.67 73.86L460.14 72.37L459.95 71.88L459.75 71.4L459.32 70.43L459.09 69.96L458.85 69.48L458.61 69.01L458.35 68.56L458.09 68.09L457.53 67.18L456.95 66.29L456.64 65.86L456.34 65.44L455.7 64.6L455.39 64.2L455.06 63.79L454.37 63.01L454.03 62.63L453.68 62.26L453.32 61.88L452.95 61.52L452.57 61.17L452.21 60.81L451.81 60.47L451.43 60.13L450.63 59.47L450.22 59.15L449.81 58.85L449.39 58.53L448.53 57.95L448.09 57.66L447.19 57.1L446.73 56.84L446.26 56.59L445.78 56.35L445.31 56.11L444.83 55.88L444.33 55.66L443.86 55.45L442.87 55.04L442.38 54.87L441.87 54.67L440.35 54.18L439.83 54.03L439.32 53.89L438.8 53.76L438.27 53.64L437.75 53.52L437.22 53.41L436.69 53.32L436.16 53.22L435.07 53.07L433.97 52.94L433.43 52.9L432.31 52.82L431.76 52.8L431.19 52.79L430.05 52.79L429.46 52.8Z"/><path id="b5Zu7YkHoZ" d="M432.9 48.08L433.46 48.11L434.01 48.16L434.57 48.2L435.13 48.26L436.22 48.39L436.76 48.46L437.85 48.64L438.39 48.74L438.92 48.86L439.45 48.96L439.98 49.08L440.5 49.21L442.06 49.63L442.58 49.79L443.6 50.12L444.6 50.48L445.09 50.67L446.58 51.28L447.07 51.51L447.55 51.72L448.04 51.95L449 52.43L449.47 52.68L449.94 52.95L450.39 53.22L451.72 54.05L452.16 54.35L452.59 54.65L453 54.94L453.42 55.26L453.84 55.56L454.25 55.88L454.64 56.21L455.05 56.53L455.43 56.86L455.82 57.19L456.2 57.54L456.57 57.88L457.3 58.59L458.01 59.33L458.7 60.09L459.04 60.48L459.37 60.88L459.68 61.27L460.01 61.67L460.32 62.08L460.64 62.5L460.94 62.92L461.23 63.35L461.54 63.78L461.81 64.21L462.11 64.65L462.37 65.1L462.91 66.01L463.17 66.48L463.43 66.94L463.67 67.4L463.9 67.87L464.14 68.36L464.35 68.82L464.57 69.31L464.77 69.79L464.97 70.28L465.16 70.76L465.35 71.26L465.52 71.76L465.7 72.26L465.86 72.77L466.01 73.26L466.15 73.78L466.29 74.29L466.43 74.81L466.55 75.3L466.67 75.84L466.87 76.88L466.98 77.41L467.05 77.94L467.14 78.49L467.2 79.02L467.33 80.11L467.38 80.65L467.42 81.2L467.45 81.76L467.48 82.31L467.51 83.43L467.51 84.57L467.48 85.71L467.42 86.83L467.38 87.38L467.33 87.93L467.14 89.56L467.05 90.1L466.98 90.63L466.77 91.69L466.67 92.21L466.43 93.24L466.01 94.76L465.86 95.27L465.7 95.77L465.52 96.26L465.35 96.75L464.97 97.74L464.57 98.71L464.35 99.18L464.14 99.66L463.9 100.13L463.67 100.6L463.43 101.06L463.17 101.53L462.37 102.9L462.11 103.35L461.81 103.79L461.54 104.23L461.23 104.66L460.94 105.1L460.64 105.51L460.32 105.93L460.01 106.34L459.68 106.74L459.37 107.15L459.04 107.54L458.7 107.94L458.01 108.7L457.3 109.43L456.93 109.8L456.2 110.51L455.82 110.85L455.43 111.18L455.05 111.51L454.64 111.84L454.25 112.16L453.84 112.48L453 113.1L452.59 113.39L451.72 113.97L450.84 114.53L450.39 114.8L449.94 115.06L449 115.57L448.52 115.82L447.55 116.3L447.07 116.53L446.08 116.96L445.09 117.37L444.6 117.56L444.1 117.75L443.6 117.93L442.58 118.26L441.54 118.56L441.02 118.7L439.98 118.95L438.92 119.18L437.85 119.38L437.31 119.47L436.22 119.63L435.13 119.75L434.01 119.85L432.9 119.93L432.33 119.94L431.76 119.97L431.19 119.98L430.03 119.98L429.46 119.97L428.88 119.94L428.31 119.93L427.74 119.89L427.18 119.85L426.62 119.8L426.05 119.75L425.52 119.69L424.96 119.63L423.87 119.47L423.32 119.38L422.79 119.28L422.25 119.18L421.71 119.07L421.19 118.95L420.66 118.83L420.14 118.7L419.62 118.56L419.1 118.41L418.6 118.26L417.58 117.93L417.07 117.75L416.09 117.37L415.1 116.96L414.13 116.53L413.65 116.3L413.17 116.06L412.7 115.82L411.76 115.32L410.83 114.78L410.37 114.5L409.93 114.23L409.04 113.64L408.61 113.35L408.18 113.05L407.76 112.73L407.35 112.41L406.93 112.1L406.53 111.77L405.74 111.12L405.35 110.77L404.59 110.06L404.22 109.71L403.85 109.34L403.14 108.61L402.8 108.23L402.11 107.44L401.78 107.05L401.46 106.64L400.82 105.83L400.21 104.99L399.91 104.56L399.62 104.13L399.33 103.69L398.77 102.8L398.49 102.34L398.22 101.89L397.97 101.43L397.72 100.96L397.23 100.03L397.01 99.56L396.79 99.07L396.59 98.61L396.37 98.12L396.18 97.64L395.99 97.15L395.81 96.67L395.64 96.17L395.47 95.68L395.32 95.17L395.17 94.68L394.89 93.66L394.76 93.15L394.53 92.13L394.33 91.09L394.24 90.57L394.15 90.03L394.01 88.97L393.95 88.42L393.85 87.33L393.81 86.79L393.79 86.24L393.74 85.13L393.72 84.57L393.72 83.44L393.74 82.88L393.79 81.79L393.81 81.24L393.85 80.69L393.9 80.16L393.95 79.61L394.08 78.55L394.15 78.02L394.33 76.95L394.53 75.91L394.76 74.88L394.89 74.38L395.17 73.36L395.47 72.35L395.64 71.85L395.99 70.86L396.18 70.38L396.37 69.89L396.59 69.41L396.79 68.93L397.01 68.46L397.23 67.97L397.72 67.04L397.97 66.58L398.22 66.11L398.49 65.66L398.77 65.2L399.33 64.31L399.91 63.45L400.21 63.02L400.82 62.18L401.46 61.37L402.11 60.58L402.46 60.19L403.14 59.43L403.85 58.7L404.59 57.99L405.35 57.29L405.74 56.96L406.13 56.63L406.53 56.31L406.93 55.98L407.35 55.66L407.76 55.36L408.18 55.04L408.61 54.75L409.04 54.45L409.48 54.16L410.37 53.6L410.83 53.32L411.76 52.79L412.7 52.28L413.17 52.04L413.65 51.8L414.62 51.34L415.1 51.13L416.58 50.52L417.07 50.34L417.58 50.15L419.1 49.66L419.62 49.5L420.66 49.22L421.19 49.1L421.71 48.97L422.25 48.86L422.79 48.76L423.32 48.65L423.87 48.55L424.41 48.48L424.96 48.39L425.52 48.32L426.05 48.26L426.62 48.2L427.18 48.16L427.74 48.11L428.88 48.06L429.46 48.03L430.03 48.02L431.19 48.02L431.76 48.03L432.9 48.08ZM429.46 52.8L428.9 52.82L428.33 52.86L427.78 52.9L427.21 52.94L426.66 53L426.1 53.07L425.02 53.22L424.49 53.32L423.95 53.41L422.88 53.64L421.84 53.89L421.32 54.03L420.8 54.18L420.29 54.35L419.77 54.51L419.28 54.67L418.77 54.87L418.28 55.04L417.29 55.45L416.8 55.66L416.31 55.88L415.83 56.11L414.87 56.59L414.4 56.84L413.93 57.1L413.02 57.66L412.13 58.24L411.7 58.53L411.27 58.85L410.85 59.15L410.45 59.47L409.63 60.13L409.24 60.47L408.86 60.81L408.48 61.17L407.76 61.88L407.4 62.26L407.05 62.63L406.69 63.01L406.36 63.4L406.02 63.79L405.38 64.6L405.07 65.02L404.46 65.86L404.17 66.29L403.88 66.73L403.32 67.63L403.05 68.09L402.79 68.56L402.52 69.01L402.28 69.48L402.03 69.96L401.8 70.43L401.15 71.88L400.77 72.87L400.59 73.36L400.43 73.86L400.12 74.87L399.85 75.87L399.72 76.39L399.6 76.91L399.5 77.43L399.4 77.97L399.31 78.5L399.16 79.56L399.1 80.11L399 81.2L398.96 81.76L398.91 82.87L398.91 83.43L398.89 84L398.91 84.57L398.91 85.13L398.93 85.7L398.96 86.26L399 86.8L399.05 87.36L399.1 87.9L399.16 88.45L399.24 88.99L399.31 89.53L399.4 90.06L399.6 91.12L399.72 91.64L399.85 92.18L399.98 92.68L400.12 93.19L400.43 94.21L400.59 94.71L400.77 95.21L400.96 95.72L401.15 96.2L401.37 96.69L401.8 97.65L402.03 98.14L402.28 98.61L402.52 99.09L402.79 99.54L403.05 100.01L403.32 100.47L403.6 100.93L403.88 101.37L404.17 101.81L404.46 102.24L405.07 103.08L405.38 103.5L406.02 104.31L406.36 104.7L406.69 105.08L407.4 105.84L407.76 106.21L408.48 106.92L409.24 107.61L409.63 107.95L410.04 108.28L410.85 108.91L411.27 109.22L411.7 109.51L412.13 109.81L413.02 110.37L413.47 110.65L413.93 110.91L414.87 111.42L415.35 111.66L415.83 111.92L416.8 112.37L417.29 112.59L418.28 113L418.77 113.19L419.28 113.36L419.77 113.54L420.29 113.71L420.8 113.86L421.32 114.01L421.84 114.15L422.88 114.4L423.41 114.52L423.95 114.62L424.49 114.71L425.02 114.8L425.57 114.88L426.1 114.95L426.66 115.01L427.21 115.06L427.78 115.11L428.33 115.15L428.9 115.18L429.46 115.2L430.05 115.21L431.19 115.21L431.76 115.2L432.87 115.15L433.43 115.11L434.52 115.01L435.61 114.88L436.16 114.8L437.22 114.62L437.75 114.52L438.27 114.4L438.8 114.28L439.32 114.15L439.83 114.01L440.35 113.86L440.86 113.71L441.37 113.54L442.38 113.19L442.87 113L443.86 112.59L444.33 112.37L444.83 112.15L445.31 111.92L445.78 111.66L446.26 111.42L446.73 111.16L447.19 110.91L447.64 110.65L448.53 110.09L448.96 109.81L449.39 109.51L449.81 109.22L450.22 108.91L450.63 108.59L451.03 108.28L451.43 107.95L451.81 107.61L452.21 107.26L452.57 106.92L452.95 106.57L453.32 106.21L453.68 105.84L454.03 105.46L454.72 104.7L455.06 104.31L455.39 103.9L455.7 103.5L456.34 102.66L456.64 102.24L456.95 101.81L457.53 100.93L458.09 100.01L458.35 99.54L458.61 99.09L458.85 98.61L459.09 98.14L459.32 97.65L459.75 96.69L459.95 96.2L460.14 95.72L460.32 95.21L460.5 94.71L460.67 94.21L460.98 93.19L461.13 92.68L461.26 92.18L461.38 91.64L461.51 91.12L461.71 90.06L461.89 88.99L461.97 88.45L462.09 87.36L462.13 86.8L462.18 86.26L462.21 85.7L462.23 85.13L462.25 84.57L462.25 83.43L462.23 82.87L462.18 81.76L462.13 81.2L462.09 80.65L461.97 79.56L461.89 79.03L461.71 77.97L461.61 77.43L461.51 76.91L461.26 75.87L461.13 75.37L460.67 73.86L460.14 72.37L459.95 71.88L459.75 71.4L459.32 70.43L459.09 69.96L458.85 69.48L458.61 69.01L458.35 68.56L458.09 68.09L457.53 67.18L456.95 66.29L456.64 65.86L456.34 65.44L455.7 64.6L455.39 64.2L455.06 63.79L454.37 63.01L454.03 62.63L453.68 62.26L453.32 61.88L452.95 61.52L452.57 61.17L452.21 60.81L451.81 60.47L451.43 60.13L450.63 59.47L450.22 59.15L449.81 58.85L449.39 58.53L448.53 57.95L448.09 57.66L447.19 57.1L446.73 56.84L446.26 56.59L445.78 56.35L445.31 56.11L444.83 55.88L444.33 55.66L443.86 55.45L442.87 55.04L442.38 54.87L441.87 54.67L440.35 54.18L439.83 54.03L439.32 53.89L438.8 53.76L438.27 53.64L437.75 53.52L437.22 53.41L436.69 53.32L436.16 53.22L435.07 53.07L433.97 52.94L433.43 52.9L432.31 52.82L431.76 52.8L431.19 52.79L430.05 52.79L429.46 52.8Z"/><path id="b1utGTNPhR" d="M562.53 112.48L540.43 48.53L535.46 48.53L513.28 112.37L491.68 48.53L486.21 48.53L510.33 119.47L515.81 119.47L537.9 55.83L559.89 119.47L565.37 119.47L589.38 48.53L584.32 48.53L562.53 112.48Z"/><path id="bpfixCWsy" d="M562.53 112.48L540.43 48.53L535.46 48.53L513.28 112.37L491.68 48.53L486.21 48.53L510.33 119.47L515.81 119.47L537.9 55.83L559.89 119.47L565.37 119.47L589.38 48.53L584.32 48.53L562.53 112.48Z"/><path id="c15kaZkbta" d="M562.53 112.48L540.43 48.53L535.46 48.53L513.28 112.37L491.68 48.53L486.21 48.53L510.33 119.47L515.81 119.47L537.9 55.83L559.89 119.47L565.37 119.47L589.38 48.53L584.32 48.53L562.53 112.48Z"/><path id="g3GvccLhpl" d="M562.53 112.48L540.43 48.53L535.46 48.53L513.28 112.37L491.68 48.53L486.21 48.53L510.33 119.47L515.81 119.47L537.9 55.83L559.89 119.47L565.37 119.47L589.38 48.53L584.32 48.53L562.53 112.48Z"/><path id="hkWeJoipJ" d="M661.46 119.47L661.46 114.81L620.62 114.81L620.62 48.53L615.45 48.53L615.45 119.47L661.46 119.47Z"/><path id="izYUbhMSU" d="M661.46 119.47L661.46 114.81L620.62 114.81L620.62 48.53L615.45 48.53L615.45 119.47L661.46 119.47Z"/><path id="a2VXQ0yGPT" d="M661.46 119.47L661.46 114.81L620.62 114.81L620.62 48.53L615.45 48.53L615.45 119.47L661.46 119.47Z"/><path id="b4AY89MGh" d="M661.46 119.47L661.46 114.81L620.62 114.81L620.62 48.53L615.45 48.53L615.45 119.47L661.46 119.47Z"/><path id="d5B01Xa7s" d="M732.02 81.16L732.02 85.72L686.1 85.72L686.1 81.16L732.02 81.16Z"/><path id="j3c5xOG3oa" d="M732.02 81.16L732.02 85.72L686.1 85.72L686.1 81.16L732.02 81.16Z"/><path id="b1k71PHbJi" d="M732.02 81.16L732.02 85.72L686.1 85.72L686.1 81.16L732.02 81.16Z"/><path id="ajeH0mmz" d="M732.02 81.16L732.02 85.72L686.1 85.72L686.1 81.16L732.02 81.16Z"/><path id="g3aAUIpgnT" d="M765.26 48.53C765.26 48.99 765.26 52.73 765.26 53.19C781.87 53.19 791.09 53.19 792.93 53.19C799.42 53.19 805.2 54.51 810.26 57.14C815.23 59.77 819.08 63.42 821.82 67.99C824.45 72.65 825.87 78.02 825.87 84C825.87 90.08 824.45 95.35 821.82 100.01C819.08 104.68 815.23 108.33 810.26 110.96C805.2 113.59 799.42 114.81 792.93 114.81C791.43 114.81 783.94 114.81 770.43 114.81C770.43 112.75 770.43 102.49 770.43 84C769.92 84 765.78 84 765.26 84C765.26 105.29 765.26 117.11 765.26 119.47C782.11 119.47 791.46 119.47 793.33 119.47C800.64 119.47 807.22 117.95 812.9 114.91C818.58 111.87 823.04 107.72 826.27 102.34C829.42 96.97 831.04 90.9 831.04 84C831.04 77.21 829.42 71.13 826.27 65.76C823.04 60.38 818.58 56.23 812.9 53.09C807.22 50.05 800.64 48.53 793.33 48.53C791.46 48.53 782.11 48.53 765.26 48.53Z"/><path id="fePVyCkmM" d="M765.26 48.53C765.26 48.99 765.26 52.73 765.26 53.19C781.87 53.19 791.09 53.19 792.93 53.19C799.42 53.19 805.2 54.51 810.26 57.14C815.23 59.77 819.08 63.42 821.82 67.99C824.45 72.65 825.87 78.02 825.87 84C825.87 90.08 824.45 95.35 821.82 100.01C819.08 104.68 815.23 108.33 810.26 110.96C805.2 113.59 799.42 114.81 792.93 114.81C791.43 114.81 783.94 114.81 770.43 114.81C770.43 112.75 770.43 102.49 770.43 84C769.92 84 765.78 84 765.26 84C765.26 105.29 765.26 117.11 765.26 119.47C782.11 119.47 791.46 119.47 793.33 119.47C800.64 119.47 807.22 117.95 812.9 114.91C818.58 111.87 823.04 107.72 826.27 102.34C829.42 96.97 831.04 90.9 831.04 84C831.04 77.21 829.42 71.13 826.27 65.76C823.04 60.38 818.58 56.23 812.9 53.09C807.22 50.05 800.64 48.53 793.33 48.53C791.46 48.53 782.11 48.53 765.26 48.53Z"/><path id="a5I01g65g" d="M765.26 48.53C765.26 48.99 765.26 52.73 765.26 53.19C781.87 53.19 791.09 53.19 792.93 53.19C799.42 53.19 805.2 54.51 810.26 57.14C815.23 59.77 819.08 63.42 821.82 67.99C824.45 72.65 825.87 78.02 825.87 84C825.87 90.08 824.45 95.35 821.82 100.01C819.08 104.68 815.23 108.33 810.26 110.96C805.2 113.59 799.42 114.81 792.93 114.81C791.43 114.81 783.94 114.81 770.43 114.81C770.43 112.75 770.43 102.49 770.43 84C769.92 84 765.78 84 765.26 84C765.26 105.29 765.26 117.11 765.26 119.47C782.11 119.47 791.46 119.47 793.33 119.47C800.64 119.47 807.22 117.95 812.9 114.91C818.58 111.87 823.04 107.72 826.27 102.34C829.42 96.97 831.04 90.9 831.04 84C831.04 77.21 829.42 71.13 826.27 65.76C823.04 60.38 818.58 56.23 812.9 53.09C807.22 50.05 800.64 48.53 793.33 48.53C791.46 48.53 782.11 48.53 765.26 48.53Z"/><path id="b6dREcgCCg" d="M765.26 48.53C765.26 48.99 765.26 52.73 765.26 53.19C781.87 53.19 791.09 53.19 792.93 53.19C799.42 53.19 805.2 54.51 810.26 57.14C815.23 59.77 819.08 63.42 821.82 67.99C824.45 72.65 825.87 78.02 825.87 84C825.87 90.08 824.45 95.35 821.82 100.01C819.08 104.68 815.23 108.33 810.26 110.96C805.2 113.59 799.42 114.81 792.93 114.81C791.43 114.81 783.94 114.81 770.43 114.81C770.43 112.75 770.43 102.49 770.43 84C769.92 84 765.78 84 765.26 84C765.26 105.29 765.26 117.11 765.26 119.47C782.11 119.47 791.46 119.47 793.33 119.47C800.64 119.47 807.22 117.95 812.9 114.91C818.58 111.87 823.04 107.72 826.27 102.34C829.42 96.97 831.04 90.9 831.04 84C831.04 77.21 829.42 71.13 826.27 65.76C823.04 60.38 818.58 56.23 812.9 53.09C807.22 50.05 800.64 48.53 793.33 48.53C791.46 48.53 782.11 48.53 765.26 48.53Z"/><path id="h2zRLwjgdm" d="M865.42 119.47L865.42 48.53L860.26 48.53L860.26 119.47L865.42 119.47Z"/><path id="b5BImuJErr" d="M865.42 119.47L865.42 48.53L860.26 48.53L860.26 119.47L865.42 119.47Z"/><path id="eLBrQoc3" d="M865.42 119.47L865.42 48.53L860.26 48.53L860.26 119.47L865.42 119.47Z"/><path id="cfXccZePE" d="M865.42 119.47L865.42 48.53L860.26 48.53L860.26 119.47L865.42 119.47Z"/><path id="ftK3wWgfB" d="M889.56 119.47L895.14 119.47L924.73 54.21L954.42 119.47L960 119.47L927.37 48.53L922.19 48.53L889.56 119.47Z"/><path id="e2rKE5rMK" d="M889.56 119.47L895.14 119.47L924.73 54.21L954.42 119.47L960 119.47L927.37 48.53L922.19 48.53L889.56 119.47Z"/><path id="aaEQwvIb3" d="M889.56 119.47L895.14 119.47L924.73 54.21L954.42 119.47L960 119.47L927.37 48.53L922.19 48.53L889.56 119.47Z"/><path id="b2LVhTG7TX" d="M889.56 119.47L895.14 119.47L924.73 54.21L954.42 119.47L960 119.47L927.37 48.53L922.19 48.53L889.56 119.47Z"/><path id="cbwGp7rpE9" d="M731.81 114.95L731.81 119.51L685.89 119.51L685.89 114.95L731.81 114.95Z"/><path id="e1VmKBwRVc" d="M731.81 114.95L731.81 119.51L685.89 119.51L685.89 114.95L731.81 114.95Z"/><path id="e1shWWSJum" d="M731.81 114.95L731.81 119.51L685.89 119.51L685.89 114.95L731.81 114.95Z"/><path id="a2T6hRs0gX" d="M731.81 114.95L731.81 119.51L685.89 119.51L685.89 114.95L731.81 114.95Z"/><path id="f22U47uCog" d="M690.82 119.16L690.82 50.75L685.84 50.75L685.84 119.16L690.82 119.16Z"/><path id="a4OoN4zE8a" d="M690.82 119.16L690.82 50.75L685.84 50.75L685.84 119.16L690.82 119.16Z"/><path id="h2BSjsSaXU" d="M690.82 119.16L690.82 50.75L685.84 50.75L685.84 119.16L690.82 119.16Z"/><path id="b1ddV0iCNL" d="M690.82 119.16L690.82 50.75L685.84 50.75L685.84 119.16L690.82 119.16Z"/><path id="c2jAqw6vQ5" d="M770.4 119.47L770.4 48.53L765.24 48.53L765.24 119.47L770.4 119.47Z"/><path id="niFdlJURo" d="M770.4 119.47L770.4 48.53L765.24 48.53L765.24 119.47L770.4 119.47Z"/><path id="bmb9hDiij" d="M770.4 119.47L770.4 48.53L765.24 48.53L765.24 119.47L770.4 119.47Z"/><path id="c2HYqq6Rp" d="M770.4 119.47L770.4 48.53L765.24 48.53L765.24 119.47L770.4 119.47Z"/><path id="d5c9XQQjG" d="M101.23 73.04C106.21 80.75 112.23 88.81 119.1 96.94C119.5 96.54 121.51 94.53 125.13 90.91C114.34 82.31 106.37 76.36 101.23 73.04Z"/><path id="d17Qgh8EKt" d="M101.23 73.04C106.21 80.75 112.23 88.81 119.1 96.94C119.5 96.54 121.51 94.53 125.13 90.91C114.34 82.31 106.37 76.36 101.23 73.04Z"/><path id="aaj8Zfo6b" d="M101.23 73.04C106.21 80.75 112.23 88.81 119.1 96.94C119.5 96.54 121.51 94.53 125.13 90.91C114.34 82.31 106.37 76.36 101.23 73.04Z"/><path id="aq67bZ4xX" d="M101.23 73.04C106.21 80.75 112.23 88.81 119.1 96.94C119.5 96.54 121.51 94.53 125.13 90.91C114.34 82.31 106.37 76.36 101.23 73.04Z"/><path id="a3LqoicfI" d="M101.23 73.04C106.21 80.75 112.23 88.81 119.1 96.94C119.5 96.54 121.51 94.53 125.13 90.91C114.34 82.31 106.37 76.36 101.23 73.04Z"/><path id="dUvrvt7aR" d="M101.23 73.04C106.21 80.75 112.23 88.81 119.1 96.94C119.5 96.54 121.51 94.53 125.13 90.91C114.34 82.31 106.37 76.36 101.23 73.04Z"/><path id="j131IFFuIp" d="M101.23 73.04C106.21 80.75 112.23 88.81 119.1 96.94C119.5 96.54 121.51 94.53 125.13 90.91C114.34 82.31 106.37 76.36 101.23 73.04Z"/><path id="eV4jXzdOl" d="M101.23 73.04C106.21 80.75 112.23 88.81 119.1 96.94C119.5 96.54 121.51 94.53 125.13 90.91C114.34 82.31 106.37 76.36 101.23 73.04Z"/><path id="nhdwJZhDv" d="M150.15 78.61C120.25 57.56 100.17 46.21 89.89 44.55C90.59 48.88 92.06 53.73 94.24 58.99C107.7 64.59 123.75 74.88 140.08 88.69C140.75 88.02 144.11 84.66 150.15 78.61Z"/><path id="b3fzGZ7Iz8" d="M150.15 78.61C120.25 57.56 100.17 46.21 89.89 44.55C90.59 48.88 92.06 53.73 94.24 58.99C107.7 64.59 123.75 74.88 140.08 88.69C140.75 88.02 144.11 84.66 150.15 78.61Z"/><path id="h2DLVsEUan" d="M150.15 78.61C120.25 57.56 100.17 46.21 89.89 44.55C90.59 48.88 92.06 53.73 94.24 58.99C107.7 64.59 123.75 74.88 140.08 88.69C140.75 88.02 144.11 84.66 150.15 78.61Z"/><path id="c1dEykwvh" d="M150.15 78.61C120.25 57.56 100.17 46.21 89.89 44.55C90.59 48.88 92.06 53.73 94.24 58.99C107.7 64.59 123.75 74.88 140.08 88.69C140.75 88.02 144.11 84.66 150.15 78.61Z"/><path id="az1qbr8Nc" d="M150.15 78.61C120.25 57.56 100.17 46.21 89.89 44.55C90.59 48.88 92.06 53.73 94.24 58.99C107.7 64.59 123.75 74.88 140.08 88.69C140.75 88.02 144.11 84.66 150.15 78.61Z"/><path id="d36SNB0QMf" d="M150.15 78.61C120.25 57.56 100.17 46.21 89.89 44.55C90.59 48.88 92.06 53.73 94.24 58.99C107.7 64.59 123.75 74.88 140.08 88.69C140.75 88.02 144.11 84.66 150.15 78.61Z"/><path id="cjTyrNCrn" d="M150.15 78.61C120.25 57.56 100.17 46.21 89.89 44.55C90.59 48.88 92.06 53.73 94.24 58.99C107.7 64.59 123.75 74.88 140.08 88.69C140.75 88.02 144.11 84.66 150.15 78.61Z"/><path id="b1mtVk30vK" d="M150.15 78.61C120.25 57.56 100.17 46.21 89.89 44.55C90.59 48.88 92.06 53.73 94.24 58.99C107.7 64.59 123.75 74.88 140.08 88.69C140.75 88.02 144.11 84.66 150.15 78.61Z"/><path id="bAYz45Br2" d="M176.34 59.46C129.21 29.52 101.64 18.56 93.61 26.59C91.75 28.45 90.54 30.87 89.9 33.73C105.57 30.26 135.07 44.6 165.48 70.31C166.21 69.59 169.82 65.97 176.34 59.46Z"/><path id="b1h9pKwrSl" d="M176.34 59.46C129.21 29.52 101.64 18.56 93.61 26.59C91.75 28.45 90.54 30.87 89.9 33.73C105.57 30.26 135.07 44.6 165.48 70.31C166.21 69.59 169.82 65.97 176.34 59.46Z"/><path id="ao9qd02nx" d="M176.34 59.46C129.21 29.52 101.64 18.56 93.61 26.59C91.75 28.45 90.54 30.87 89.9 33.73C105.57 30.26 135.07 44.6 165.48 70.31C166.21 69.59 169.82 65.97 176.34 59.46Z"/><path id="alP3smJa" d="M176.34 59.46C129.21 29.52 101.64 18.56 93.61 26.59C91.75 28.45 90.54 30.87 89.9 33.73C105.57 30.26 135.07 44.6 165.48 70.31C166.21 69.59 169.82 65.97 176.34 59.46Z"/><path id="akRF93y37" d="M176.34 59.46C129.21 29.52 101.64 18.56 93.61 26.59C91.75 28.45 90.54 30.87 89.9 33.73C105.57 30.26 135.07 44.6 165.48 70.31C166.21 69.59 169.82 65.97 176.34 59.46Z"/><path id="be3zDipQE" d="M176.34 59.46C129.21 29.52 101.64 18.56 93.61 26.59C91.75 28.45 90.54 30.87 89.9 33.73C105.57 30.26 135.07 44.6 165.48 70.31C166.21 69.59 169.82 65.97 176.34 59.46Z"/><path id="a2zy6Wtyxw" d="M176.34 59.46C129.21 29.52 101.64 18.56 93.61 26.59C91.75 28.45 90.54 30.87 89.9 33.73C105.57 30.26 135.07 44.6 165.48 70.31C166.21 69.59 169.82 65.97 176.34 59.46Z"/><path id="aWrvRTDlW" d="M176.34 59.46C129.21 29.52 101.64 18.56 93.61 26.59C91.75 28.45 90.54 30.87 89.9 33.73C105.57 30.26 135.07 44.6 165.48 70.31C166.21 69.59 169.82 65.97 176.34 59.46Z"/><path id="e2ZX2l5xFj" d="M119.07 96.95C114.08 89.24 108.06 81.18 101.19 73.06C100.78 73.45 98.78 75.46 95.16 79.09C105.96 87.68 113.92 93.64 119.07 96.95Z"/><path id="c2FKEwl80L" d="M119.07 96.95C114.08 89.24 108.06 81.18 101.19 73.06C100.78 73.45 98.78 75.46 95.16 79.09C105.96 87.68 113.92 93.64 119.07 96.95Z"/><path id="aCslweO20" d="M119.07 96.95C114.08 89.24 108.06 81.18 101.19 73.06C100.78 73.45 98.78 75.46 95.16 79.09C105.96 87.68 113.92 93.64 119.07 96.95Z"/><path id="atpVKPrM" d="M119.07 96.95C114.08 89.24 108.06 81.18 101.19 73.06C100.78 73.45 98.78 75.46 95.16 79.09C105.96 87.68 113.92 93.64 119.07 96.95Z"/><path id="d309wtY3C" d="M119.07 96.95C114.08 89.24 108.06 81.18 101.19 73.06C100.78 73.45 98.78 75.46 95.16 79.09C105.96 87.68 113.92 93.64 119.07 96.95Z"/><path id="a1dE4c5lq2" d="M119.07 96.95C114.08 89.24 108.06 81.18 101.19 73.06C100.78 73.45 98.78 75.46 95.16 79.09C105.96 87.68 113.92 93.64 119.07 96.95Z"/><path id="a13iw8npST" d="M119.07 96.95C114.08 89.24 108.06 81.18 101.19 73.06C100.78 73.45 98.78 75.46 95.16 79.09C105.96 87.68 113.92 93.64 119.07 96.95Z"/><path id="a9rihXn28" d="M119.07 96.95C114.08 89.24 108.06 81.18 101.19 73.06C100.78 73.45 98.78 75.46 95.16 79.09C105.96 87.68 113.92 93.64 119.07 96.95Z"/><path id="aBpVLzj8Q" d="M70.17 91.39C100.08 112.44 120.17 123.79 130.45 125.45C129.75 121.13 128.28 116.27 126.09 111.01C112.63 105.4 96.58 95.11 80.25 81.31C79.58 81.97 76.22 85.33 70.17 91.39Z"/><path id="cu2EM24jl" d="M70.17 91.39C100.08 112.44 120.17 123.79 130.45 125.45C129.75 121.13 128.28 116.27 126.09 111.01C112.63 105.4 96.58 95.11 80.25 81.31C79.58 81.97 76.22 85.33 70.17 91.39Z"/><path id="eWpiQZkwo" d="M70.17 91.39C100.08 112.44 120.17 123.79 130.45 125.45C129.75 121.13 128.28 116.27 126.09 111.01C112.63 105.4 96.58 95.11 80.25 81.31C79.58 81.97 76.22 85.33 70.17 91.39Z"/><path id="c1JIsP6H17" d="M70.17 91.39C100.08 112.44 120.17 123.79 130.45 125.45C129.75 121.13 128.28 116.27 126.09 111.01C112.63 105.4 96.58 95.11 80.25 81.31C79.58 81.97 76.22 85.33 70.17 91.39Z"/><path id="bC9eTmyVs" d="M70.17 91.39C100.08 112.44 120.17 123.79 130.45 125.45C129.75 121.13 128.28 116.27 126.09 111.01C112.63 105.4 96.58 95.11 80.25 81.31C79.58 81.97 76.22 85.33 70.17 91.39Z"/><path id="bFL9M3z5d" d="M70.17 91.39C100.08 112.44 120.17 123.79 130.45 125.45C129.75 121.13 128.28 116.27 126.09 111.01C112.63 105.4 96.58 95.11 80.25 81.31C79.58 81.97 76.22 85.33 70.17 91.39Z"/><path id="d1WLo3Dle9" d="M70.17 91.39C100.08 112.44 120.17 123.79 130.45 125.45C129.75 121.13 128.28 116.27 126.09 111.01C112.63 105.4 96.58 95.11 80.25 81.31C79.58 81.97 76.22 85.33 70.17 91.39Z"/><path id="b8Ndee7eyx" d="M70.17 91.39C100.08 112.44 120.17 123.79 130.45 125.45C129.75 121.13 128.28 116.27 126.09 111.01C112.63 105.4 96.58 95.11 80.25 81.31C79.58 81.97 76.22 85.33 70.17 91.39Z"/><path id="fkTObsn7k" d="M44 110.54C91.12 140.48 118.7 151.44 126.73 143.41C128.59 141.55 129.8 139.13 130.42 136.27C114.77 139.74 85.26 125.39 54.85 99.69C54.12 100.41 50.51 104.03 44 110.54Z"/><path id="a3GjWmrykG" d="M44 110.54C91.12 140.48 118.7 151.44 126.73 143.41C128.59 141.55 129.8 139.13 130.42 136.27C114.77 139.74 85.26 125.39 54.85 99.69C54.12 100.41 50.51 104.03 44 110.54Z"/><path id="eRzc5hy31" d="M44 110.54C91.12 140.48 118.7 151.44 126.73 143.41C128.59 141.55 129.8 139.13 130.42 136.27C114.77 139.74 85.26 125.39 54.85 99.69C54.12 100.41 50.51 104.03 44 110.54Z"/><path id="a1XMi4IS7Y" d="M44 110.54C91.12 140.48 118.7 151.44 126.73 143.41C128.59 141.55 129.8 139.13 130.42 136.27C114.77 139.74 85.26 125.39 54.85 99.69C54.12 100.41 50.51 104.03 44 110.54Z"/><path id="b6hLmWE7p" d="M44 110.54C91.12 140.48 118.7 151.44 126.73 143.41C128.59 141.55 129.8 139.13 130.42 136.27C114.77 139.74 85.26 125.39 54.85 99.69C54.12 100.41 50.51 104.03 44 110.54Z"/><path id="e1kkv4OWb8" d="M44 110.54C91.12 140.48 118.7 151.44 126.73 143.41C128.59 141.55 129.8 139.13 130.42 136.27C114.77 139.74 85.26 125.39 54.85 99.69C54.12 100.41 50.51 104.03 44 110.54Z"/><path id="b3bqqBz3X" d="M44 110.54C91.12 140.48 118.7 151.44 126.73 143.41C128.59 141.55 129.8 139.13 130.42 136.27C114.77 139.74 85.26 125.39 54.85 99.69C54.12 100.41 50.51 104.03 44 110.54Z"/><path id="e2hv0xY0AG" d="M44 110.54C91.12 140.48 118.7 151.44 126.73 143.41C128.59 141.55 129.8 139.13 130.42 136.27C114.77 139.74 85.26 125.39 54.85 99.69C54.12 100.41 50.51 104.03 44 110.54Z"/></defs><g><g><use fill="#000" fill-opacity="1" opacity="1" xlink:href="#fiee3gZOH"/><g><use fill-opacity="0" stroke="#000" stroke-opacity="0" stroke-width="1" opacity="1" xlink:href="#fiee3gZOH"/></g></g><g><use fill="#000" fill-opacity="0" opacity="1" xlink:href="#dz4RvNja2"/><g><use fill-opacity="0" stroke="#000" stroke-opacity="0" stroke-width="1" opacity="1" xlink:href="#dz4RvNja2"/></g></g><g><use fill="#000" fill-opacity="1" opacity="1" xlink:href="#c2XkWfaEKR"/><g><use fill-opacity="0" stroke="#000" stroke-opacity="0" stroke-width="1" opacity="1" xlink:href="#c2XkWfaEKR"/></g></g><g><use fill="#000" fill-opacity="0" opacity="1" xlink:href="#c1sqJ4Cqt"/><g><use fill-opacity="0" stroke="#000" stroke-opacity="0" stroke-width="1" opacity="1" xlink:href="#c1sqJ4Cqt"/></g></g><g><use fill="#000" fill-opacity="1" opacity="1" xlink:href="#lb3ptIA8I"/><g><use fill-opacity="0" stroke="#000" stroke-opacity="0" stroke-width="1" opacity="1" xlink:href="#lb3ptIA8I"/></g></g><g><use fill="#000" fill-opacity="0" opacity="1" xlink:href="#fnonaV5GW"/><g><use fill-opacity="0" stroke="#000" stroke-opacity="0" stroke-width="1" opacity="1" xlink:href="#fnonaV5GW"/></g></g><g><use fill="#000" fill-opacity="1" opacity="1" xlink:href="#a55T5hWa1"/><g><use fill-opacity="0" stroke="#000" stroke-opacity="0" stroke-width="1" opacity="1" xlink:href="#a55T5hWa1"/></g></g><g><use fill="#000" fill-opacity="0" opacity="1" xlink:href="#d1wgziXS91"/><g><use fill-opacity="0" stroke="#000" stroke-opacity="0" stroke-width="1" opacity="1" xlink:href="#d1wgziXS91"/></g></g><g><use fill="#000" fill-opacity="1" opacity="1" xlink:href="#cIfjtBIxn"/><g><use fill-opacity="0" stroke="#000" stroke-opacity="0" stroke-width="1" opacity="1" xlink:href="#cIfjtBIxn"/></g></g><g><use fill="#000" fill-opacity="0" opacity="1" xlink:href="#e3RCPkYvv"/><g><use fill-opacity="0" stroke="#000" stroke-opacity="0" stroke-width="1" opacity="1" xlink:href="#e3RCPkYvv"/></g></g><g><use fill="#000" fill-opacity="1" opacity="1" xlink:href="#aOnoaqJC2"/><g><use fill-opacity="0" stroke="#000" stroke-opacity="0" stroke-width="1" opacity="1" xlink:href="#aOnoaqJC2"/></g></g><g><use fill="#000" fill-opacity="0" opacity="1" xlink:href="#aOrPAddnB"/><g><use fill-opacity="0" stroke="#000" stroke-opacity="0" stroke-width="1" opacity="1" xlink:href="#aOrPAddnB"/></g></g><g><use fill="#000" fill-opacity="1" opacity="1" xlink:href="#f6x5FAUjac"/><g><use fill-opacity="0" stroke="#000" stroke-opacity="0" stroke-width="1" opacity="1" xlink:href="#f6x5FAUjac"/></g></g><g><use fill="#000" fill-opacity="0" opacity="1" xlink:href="#ecFenVQVZ"/><g><use fill-opacity="0" stroke="#000" stroke-opacity="0" stroke-width="1" opacity="1" xlink:href="#ecFenVQVZ"/></g></g><g><use fill="#000" fill-opacity="1" opacity="1" xlink:href="#alynUUUVF"/><g><use fill-opacity="0" stroke="#000" stroke-opacity="0" stroke-width="1" opacity="1" xlink:href="#alynUUUVF"/></g></g><g><use fill="#000" fill-opacity="0" opacity="1" xlink:href="#b5Zu7YkHoZ"/><g><use fill-opacity="0" stroke="#000" stroke-opacity="0" stroke-width="1" opacity="1" xlink:href="#b5Zu7YkHoZ"/></g></g><g><use fill="#000" fill-opacity="1" opacity="1" xlink:href="#b1utGTNPhR"/><g><use fill-opacity="0" stroke="#000" stroke-opacity="0" stroke-width="1" opacity="1" xlink:href="#b1utGTNPhR"/></g></g><g><use fill="#000" fill-opacity="0" opacity="1" xlink:href="#bpfixCWsy"/><g><use fill-opacity="0" stroke="#000" stroke-opacity="0" stroke-width="1" opacity="1" xlink:href="#bpfixCWsy"/></g></g><g><use fill="#000" fill-opacity="1" opacity="1" xlink:href="#c15kaZkbta"/><g><use fill-opacity="0" stroke="#000" stroke-opacity="0" stroke-width="1" opacity="1" xlink:href="#c15kaZkbta"/></g></g><g><use fill="#000" fill-opacity="0" opacity="1" xlink:href="#g3GvccLhpl"/><g><use fill-opacity="0" stroke="#000" stroke-opacity="0" stroke-width="1" opacity="1" xlink:href="#g3GvccLhpl"/></g></g><g><use fill="#000" fill-opacity="1" opacity="1" xlink:href="#hkWeJoipJ"/><g><use fill-opacity="0" stroke="#000" stroke-opacity="0" stroke-width="1" opacity="1" xlink:href="#hkWeJoipJ"/></g></g><g><use fill="#000" fill-opacity="0" opacity="1" xlink:href="#izYUbhMSU"/><g><use fill-opacity="0" stroke="#000" stroke-opacity="0" stroke-width="1" opacity="1" xlink:href="#izYUbhMSU"/></g></g><g><use fill="#000" fill-opacity="1" opacity="1" xlink:href="#a2VXQ0yGPT"/><g><use fill-opacity="0" stroke="#000" stroke-opacity="0" stroke-width="1" opacity="1" xlink:href="#a2VXQ0yGPT"/></g></g><g><use fill="#000" fill-opacity="0" opacity="1" xlink:href="#b4AY89MGh"/><g><use fill-opacity="0" stroke="#000" stroke-opacity="0" stroke-width="1" opacity="1" xlink:href="#b4AY89MGh"/></g></g><g><use fill="#000" fill-opacity="1" opacity="1" xlink:href="#d5B01Xa7s"/><g><use fill-opacity="0" stroke="#000" stroke-opacity="0" stroke-width="1" opacity="1" xlink:href="#d5B01Xa7s"/></g></g><g><use fill="#000" fill-opacity="0" opacity="1" xlink:href="#j3c5xOG3oa"/><g><use fill-opacity="0" stroke="#000" stroke-opacity="0" stroke-width="1" opacity="1" xlink:href="#j3c5xOG3oa"/></g></g><g><use fill="#000" fill-opacity="1" opacity="1" xlink:href="#b1k71PHbJi"/><g><use fill-opacity="0" stroke="#000" stroke-opacity="0" stroke-width="1" opacity="1" xlink:href="#b1k71PHbJi"/></g></g><g><use fill="#000" fill-opacity="0" opacity="1" xlink:href="#ajeH0mmz"/><g><use fill-opacity="0" stroke="#000" stroke-opacity="0" stroke-width="1" opacity="1" xlink:href="#ajeH0mmz"/></g></g><g><use fill="#000" fill-opacity="1" opacity="1" xlink:href="#g3aAUIpgnT"/><g><use fill-opacity="0" stroke="#000" stroke-opacity="0" stroke-width="1" opacity="1" xlink:href="#g3aAUIpgnT"/></g></g><g><use fill="#000" fill-opacity="0" opacity="1" xlink:href="#fePVyCkmM"/><g><use fill-opacity="0" stroke="#000" stroke-opacity="0" stroke-width="1" opacity="1" xlink:href="#fePVyCkmM"/></g></g><g><use fill="#000" fill-opacity="1" opacity="1" xlink:href="#a5I01g65g"/><g><use fill-opacity="0" stroke="#000" stroke-opacity="0" stroke-width="1" opacity="1" xlink:href="#a5I01g65g"/></g></g><g><use fill="#000" fill-opacity="0" opacity="1" xlink:href="#b6dREcgCCg"/><g><use fill-opacity="0" stroke="#000" stroke-opacity="0" stroke-width="1" opacity="1" xlink:href="#b6dREcgCCg"/></g></g><g><use fill="#000" fill-opacity="1" opacity="1" xlink:href="#h2zRLwjgdm"/><g><use fill-opacity="0" stroke="#000" stroke-opacity="0" stroke-width="1" opacity="1" xlink:href="#h2zRLwjgdm"/></g></g><g><use fill="#000" fill-opacity="0" opacity="1" xlink:href="#b5BImuJErr"/><g><use fill-opacity="0" stroke="#000" stroke-opacity="0" stroke-width="1" opacity="1" xlink:href="#b5BImuJErr"/></g></g><g><use fill="#000" fill-opacity="1" opacity="1" xlink:href="#eLBrQoc3"/><g><use fill-opacity="0" stroke="#000" stroke-opacity="0" stroke-width="1" opacity="1" xlink:href="#eLBrQoc3"/></g></g><g><use fill="#000" fill-opacity="0" opacity="1" xlink:href="#cfXccZePE"/><g><use fill-opacity="0" stroke="#000" stroke-opacity="0" stroke-width="1" opacity="1" xlink:href="#cfXccZePE"/></g></g><g><use fill="#000" fill-opacity="1" opacity="1" xlink:href="#ftK3wWgfB"/><g><use fill-opacity="0" stroke="#000" stroke-opacity="0" stroke-width="1" opacity="1" xlink:href="#ftK3wWgfB"/></g></g><g><use fill="#000" fill-opacity="0" opacity="1" xlink:href="#e2rKE5rMK"/><g><use fill-opacity="0" stroke="#000" stroke-opacity="0" stroke-width="1" opacity="1" xlink:href="#e2rKE5rMK"/></g></g><g><use fill="#000" fill-opacity="1" opacity="1" xlink:href="#aaEQwvIb3"/><g><use fill-opacity="0" stroke="#000" stroke-opacity="0" stroke-width="1" opacity="1" xlink:href="#aaEQwvIb3"/></g></g><g><use fill="#000" fill-opacity="0" opacity="1" xlink:href="#b2LVhTG7TX"/><g><use fill-opacity="0" stroke="#000" stroke-opacity="0" stroke-width="1" opacity="1" xlink:href="#b2LVhTG7TX"/></g></g><g><use fill="#000" fill-opacity="1" opacity="1" xlink:href="#cbwGp7rpE9"/><g><use fill-opacity="0" stroke="#000" stroke-opacity="0" stroke-width="1" opacity="1" xlink:href="#cbwGp7rpE9"/></g></g><g><use fill="#000" fill-opacity="0" opacity="1" xlink:href="#e1VmKBwRVc"/><g><use fill-opacity="0" stroke="#000" stroke-opacity="0" stroke-width="1" opacity="1" xlink:href="#e1VmKBwRVc"/></g></g><g><use fill="#000" fill-opacity="1" opacity="1" xlink:href="#e1shWWSJum"/><g><use fill-opacity="0" stroke="#000" stroke-opacity="0" stroke-width="1" opacity="1" xlink:href="#e1shWWSJum"/></g></g><g><use fill="#000" fill-opacity="0" opacity="1" xlink:href="#a2T6hRs0gX"/><g><use fill-opacity="0" stroke="#000" stroke-opacity="0" stroke-width="1" opacity="1" xlink:href="#a2T6hRs0gX"/></g></g><g><use fill="#000" fill-opacity="1" opacity="1" xlink:href="#f22U47uCog"/><g><use fill-opacity="0" stroke="#000" stroke-opacity="0" stroke-width="1" opacity="1" xlink:href="#f22U47uCog"/></g></g><g><use fill="#000" fill-opacity="0" opacity="1" xlink:href="#a4OoN4zE8a"/><g><use fill-opacity="0" stroke="#000" stroke-opacity="0" stroke-width="1" opacity="1" xlink:href="#a4OoN4zE8a"/></g></g><g><use fill="#000" fill-opacity="1" opacity="1" xlink:href="#h2BSjsSaXU"/><g><use fill-opacity="0" stroke="#000" stroke-opacity="0" stroke-width="1" opacity="1" xlink:href="#h2BSjsSaXU"/></g></g><g><use fill="#000" fill-opacity="0" opacity="1" xlink:href="#b1ddV0iCNL"/><g><use fill-opacity="0" stroke="#000" stroke-opacity="0" stroke-width="1" opacity="1" xlink:href="#b1ddV0iCNL"/></g></g><g><use fill="#000" fill-opacity="1" opacity="1" xlink:href="#c2jAqw6vQ5"/><g><use fill-opacity="0" stroke="#000" stroke-opacity="0" stroke-width="1" opacity="1" xlink:href="#c2jAqw6vQ5"/></g></g><g><use fill="#000" fill-opacity="0" opacity="1" xlink:href="#niFdlJURo"/><g><use fill-opacity="0" stroke="#000" stroke-opacity="0" stroke-width="1" opacity="1" xlink:href="#niFdlJURo"/></g></g><g><use fill="#000" fill-opacity="1" opacity="1" xlink:href="#bmb9hDiij"/><g><use fill-opacity="0" stroke="#000" stroke-opacity="0" stroke-width="1" opacity="1" xlink:href="#bmb9hDiij"/></g></g><g><use fill="#000" fill-opacity="0" opacity="1" xlink:href="#c2HYqq6Rp"/><g><use fill-opacity="0" stroke="#000" stroke-opacity="0" stroke-width="1" opacity="1" xlink:href="#c2HYqq6Rp"/></g></g><g><use fill="#f47774" fill-opacity="1" opacity="1" xlink:href="#d5c9XQQjG"/><g><use fill-opacity="0" stroke="#000" stroke-opacity="0" stroke-width="1" opacity="1" xlink:href="#d5c9XQQjG"/></g></g><g><use fill="#000" fill-opacity="0" opacity="1" xlink:href="#d17Qgh8EKt"/><g><use fill-opacity="0" stroke="#000" stroke-opacity="0" stroke-width="1" opacity="1" xlink:href="#d17Qgh8EKt"/></g></g><g><use fill="#000" fill-opacity="0" opacity="1" xlink:href="#aaj8Zfo6b"/><g><use fill-opacity="0" stroke="#000" stroke-opacity="0" stroke-width="1" opacity="1" xlink:href="#aaj8Zfo6b"/></g></g><g><use fill="#000" fill-opacity="0" opacity="1" xlink:href="#aq67bZ4xX"/><g><use fill-opacity="0" stroke="#000" stroke-opacity="0" stroke-width="1" opacity="1" xlink:href="#aq67bZ4xX"/></g></g><g><use fill="#000" fill-opacity="0" opacity="1" xlink:href="#a3LqoicfI"/><g><use fill-opacity="0" stroke="#000" stroke-opacity="0" stroke-width="1" opacity="1" xlink:href="#a3LqoicfI"/></g></g><g><use fill="#000" fill-opacity="0" opacity="1" xlink:href="#dUvrvt7aR"/><g><use fill-opacity="0" stroke="#000" stroke-opacity="0" stroke-width="1" opacity="1" xlink:href="#dUvrvt7aR"/></g></g><g><use fill="#000" fill-opacity="0" opacity="1" xlink:href="#j131IFFuIp"/><g><use fill-opacity="0" stroke="#000" stroke-opacity="0" stroke-width="1" opacity="1" xlink:href="#j131IFFuIp"/></g></g><g><use fill="#000" fill-opacity="0" opacity="1" xlink:href="#eV4jXzdOl"/><g><use fill-opacity="0" stroke="#000" stroke-opacity="0" stroke-width="1" opacity="1" xlink:href="#eV4jXzdOl"/></g></g><g><use fill="#f47774" fill-opacity="1" opacity="1" xlink:href="#nhdwJZhDv"/><g><use fill-opacity="0" stroke="#000" stroke-opacity="0" stroke-width="1" opacity="1" xlink:href="#nhdwJZhDv"/></g></g><g><use fill="#000" fill-opacity="0" opacity="1" xlink:href="#b3fzGZ7Iz8"/><g><use fill-opacity="0" stroke="#000" stroke-opacity="0" stroke-width="1" opacity="1" xlink:href="#b3fzGZ7Iz8"/></g></g><g><use fill="#000" fill-opacity="0" opacity="1" xlink:href="#h2DLVsEUan"/><g><use fill-opacity="0" stroke="#000" stroke-opacity="0" stroke-width="1" opacity="1" xlink:href="#h2DLVsEUan"/></g></g><g><use fill="#000" fill-opacity="0" opacity="1" xlink:href="#c1dEykwvh"/><g><use fill-opacity="0" stroke="#000" stroke-opacity="0" stroke-width="1" opacity="1" xlink:href="#c1dEykwvh"/></g></g><g><use fill="#000" fill-opacity="0" opacity="1" xlink:href="#az1qbr8Nc"/><g><use fill-opacity="0" stroke="#000" stroke-opacity="0" stroke-width="1" opacity="1" xlink:href="#az1qbr8Nc"/></g></g><g><use fill="#000" fill-opacity="0" opacity="1" xlink:href="#d36SNB0QMf"/><g><use fill-opacity="0" stroke="#000" stroke-opacity="0" stroke-width="1" opacity="1" xlink:href="#d36SNB0QMf"/></g></g><g><use fill="#000" fill-opacity="0" opacity="1" xlink:href="#cjTyrNCrn"/><g><use fill-opacity="0" stroke="#000" stroke-opacity="0" stroke-width="1" opacity="1" xlink:href="#cjTyrNCrn"/></g></g><g><use fill="#000" fill-opacity="0" opacity="1" xlink:href="#b1mtVk30vK"/><g><use fill-opacity="0" stroke="#000" stroke-opacity="0" stroke-width="1" opacity="1" xlink:href="#b1mtVk30vK"/></g></g><g><use fill="#f47774" fill-opacity="1" opacity="1" xlink:href="#bAYz45Br2"/><g><use fill-opacity="0" stroke="#000" stroke-opacity="0" stroke-width="1" opacity="1" xlink:href="#bAYz45Br2"/></g></g><g><use fill="#000" fill-opacity="0" opacity="1" xlink:href="#b1h9pKwrSl"/><g><use fill-opacity="0" stroke="#000" stroke-opacity="0" stroke-width="1" opacity="1" xlink:href="#b1h9pKwrSl"/></g></g><g><use fill="#000" fill-opacity="0" opacity="1" xlink:href="#ao9qd02nx"/><g><use fill-opacity="0" stroke="#000" stroke-opacity="0" stroke-width="1" opacity="1" xlink:href="#ao9qd02nx"/></g></g><g><use fill="#000" fill-opacity="0" opacity="1" xlink:href="#alP3smJa"/><g><use fill-opacity="0" stroke="#000" stroke-opacity="0" stroke-width="1" opacity="1" xlink:href="#alP3smJa"/></g></g><g><use fill="#000" fill-opacity="0" opacity="1" xlink:href="#akRF93y37"/><g><use fill-opacity="0" stroke="#000" stroke-opacity="0" stroke-width="1" opacity="1" xlink:href="#akRF93y37"/></g></g><g><use fill="#000" fill-opacity="0" opacity="1" xlink:href="#be3zDipQE"/><g><use fill-opacity="0" stroke="#000" stroke-opacity="0" stroke-width="1" opacity="1" xlink:href="#be3zDipQE"/></g></g><g><use fill="#000" fill-opacity="0" opacity="1" xlink:href="#a2zy6Wtyxw"/><g><use fill-opacity="0" stroke="#000" stroke-opacity="0" stroke-width="1" opacity="1" xlink:href="#a2zy6Wtyxw"/></g></g><g><use fill="#000" fill-opacity="0" opacity="1" xlink:href="#aWrvRTDlW"/><g><use fill-opacity="0" stroke="#000" stroke-opacity="0" stroke-width="1" opacity="1" xlink:href="#aWrvRTDlW"/></g></g><g><use fill="#4cbaba" fill-opacity="1" opacity="1" xlink:href="#e2ZX2l5xFj"/><g><use fill-opacity="0" stroke="#000" stroke-opacity="0" stroke-width="1" opacity="1" xlink:href="#e2ZX2l5xFj"/></g></g><g><use fill="#000" fill-opacity="0" opacity="1" xlink:href="#c2FKEwl80L"/><g><use fill-opacity="0" stroke="#000" stroke-opacity="0" stroke-width="1" opacity="1" xlink:href="#c2FKEwl80L"/></g></g><g><use fill="#000" fill-opacity="0" opacity="1" xlink:href="#aCslweO20"/><g><use fill-opacity="0" stroke="#000" stroke-opacity="0" stroke-width="1" opacity="1" xlink:href="#aCslweO20"/></g></g><g><use fill="#000" fill-opacity="0" opacity="1" xlink:href="#atpVKPrM"/><g><use fill-opacity="0" stroke="#000" stroke-opacity="0" stroke-width="1" opacity="1" xlink:href="#atpVKPrM"/></g></g><g><use fill="#000" fill-opacity="0" opacity="1" xlink:href="#d309wtY3C"/><g><use fill-opacity="0" stroke="#000" stroke-opacity="0" stroke-width="1" opacity="1" xlink:href="#d309wtY3C"/></g></g><g><use fill="#000" fill-opacity="0" opacity="1" xlink:href="#a1dE4c5lq2"/><g><use fill-opacity="0" stroke="#000" stroke-opacity="0" stroke-width="1" opacity="1" xlink:href="#a1dE4c5lq2"/></g></g><g><use fill="#000" fill-opacity="0" opacity="1" xlink:href="#a13iw8npST"/><g><use fill-opacity="0" stroke="#000" stroke-opacity="0" stroke-width="1" opacity="1" xlink:href="#a13iw8npST"/></g></g><g><use fill="#000" fill-opacity="0" opacity="1" xlink:href="#a9rihXn28"/><g><use fill-opacity="0" stroke="#000" stroke-opacity="0" stroke-width="1" opacity="1" xlink:href="#a9rihXn28"/></g></g><g><use fill="#4cbaba" fill-opacity="1" opacity="1" xlink:href="#aBpVLzj8Q"/><g><use fill-opacity="0" stroke="#000" stroke-opacity="0" stroke-width="1" opacity="1" xlink:href="#aBpVLzj8Q"/></g></g><g><use fill="#000" fill-opacity="0" opacity="1" xlink:href="#cu2EM24jl"/><g><use fill-opacity="0" stroke="#000" stroke-opacity="0" stroke-width="1" opacity="1" xlink:href="#cu2EM24jl"/></g></g><g><use fill="#000" fill-opacity="0" opacity="1" xlink:href="#eWpiQZkwo"/><g><use fill-opacity="0" stroke="#000" stroke-opacity="0" stroke-width="1" opacity="1" xlink:href="#eWpiQZkwo"/></g></g><g><use fill="#000" fill-opacity="0" opacity="1" xlink:href="#c1JIsP6H17"/><g><use fill-opacity="0" stroke="#000" stroke-opacity="0" stroke-width="1" opacity="1" xlink:href="#c1JIsP6H17"/></g></g><g><use fill="#000" fill-opacity="0" opacity="1" xlink:href="#bC9eTmyVs"/><g><use fill-opacity="0" stroke="#000" stroke-opacity="0" stroke-width="1" opacity="1" xlink:href="#bC9eTmyVs"/></g></g><g><use fill="#000" fill-opacity="0" opacity="1" xlink:href="#bFL9M3z5d"/><g><use fill-opacity="0" stroke="#000" stroke-opacity="0" stroke-width="1" opacity="1" xlink:href="#bFL9M3z5d"/></g></g><g><use fill="#000" fill-opacity="0" opacity="1" xlink:href="#d1WLo3Dle9"/><g><use fill-opacity="0" stroke="#000" stroke-opacity="0" stroke-width="1" opacity="1" xlink:href="#d1WLo3Dle9"/></g></g><g><use fill="#000" fill-opacity="0" opacity="1" xlink:href="#b8Ndee7eyx"/><g><use fill-opacity="0" stroke="#000" stroke-opacity="0" stroke-width="1" opacity="1" xlink:href="#b8Ndee7eyx"/></g></g><g><use fill="#4cbaba" fill-opacity="1" opacity="1" xlink:href="#fkTObsn7k"/><g><use fill-opacity="0" stroke="#000" stroke-opacity="0" stroke-width="1" opacity="1" xlink:href="#fkTObsn7k"/></g></g><g><use fill="#000" fill-opacity="0" opacity="1" xlink:href="#a3GjWmrykG"/><g><use fill-opacity="0" stroke="#000" stroke-opacity="0" stroke-width="1" opacity="1" xlink:href="#a3GjWmrykG"/></g></g><g><use fill="#000" fill-opacity="0" opacity="1" xlink:href="#eRzc5hy31"/><g><use fill-opacity="0" stroke="#000" stroke-opacity="0" stroke-width="1" opacity="1" xlink:href="#eRzc5hy31"/></g></g><g><use fill="#000" fill-opacity="0" opacity="1" xlink:href="#a1XMi4IS7Y"/><g><use fill-opacity="0" stroke="#000" stroke-opacity="0" stroke-width="1" opacity="1" xlink:href="#a1XMi4IS7Y"/></g></g><g><use fill="#000" fill-opacity="0" opacity="1" xlink:href="#b6hLmWE7p"/><g><use fill-opacity="0" stroke="#000" stroke-opacity="0" stroke-width="1" opacity="1" xlink:href="#b6hLmWE7p"/></g></g><g><use fill="#000" fill-opacity="0" opacity="1" xlink:href="#e1kkv4OWb8"/><g><use fill-opacity="0" stroke="#000" stroke-opacity="0" stroke-width="1" opacity="1" xlink:href="#e1kkv4OWb8"/></g></g><g><use fill="#000" fill-opacity="0" opacity="1" xlink:href="#b3bqqBz3X"/><g><use fill-opacity="0" stroke="#000" stroke-opacity="0" stroke-width="1" opacity="1" xlink:href="#b3bqqBz3X"/></g></g><g><use fill="#000" fill-opacity="0" opacity="1" xlink:href="#e2hv0xY0AG"/><g><use fill-opacity="0" stroke="#000" stroke-opacity="0" stroke-width="1" opacity="1" xlink:href="#e2hv0xY0AG"/></g></g></g></svg>