<svg xmlns="http://www.w3.org/2000/svg" xmlns:xlink="http://www.w3.org/1999/xlink" id="Layer_1" x="0" y="0" enable-background="new 0 0 48 48" version="1.0" viewBox="0 0 48 48" xml:space="preserve"><g><path fill="#FF5722" d="M32,15v28H10c-2.2,0-4-1.8-4-4V15H32z"/></g><g><path fill="#FFCCBC" d="M14,5v34c0,2.2-1.8,4-4,4h29c2.2,0,4-1.8,4-4V5H14z"/></g><g><rect width="18" height="4" x="20" y="10" fill="#FF5722"/><rect width="8" height="2" x="20" y="17" fill="#FF5722"/><rect width="8" height="2" x="30" y="17" fill="#FF5722"/><rect width="8" height="2" x="20" y="21" fill="#FF5722"/><rect width="8" height="2" x="30" y="21" fill="#FF5722"/><rect width="8" height="2" x="20" y="25" fill="#FF5722"/><rect width="8" height="2" x="30" y="25" fill="#FF5722"/><rect width="8" height="2" x="20" y="29" fill="#FF5722"/><rect width="8" height="2" x="30" y="29" fill="#FF5722"/><rect width="8" height="2" x="20" y="33" fill="#FF5722"/><rect width="8" height="2" x="30" y="33" fill="#FF5722"/><rect width="8" height="2" x="20" y="37" fill="#FF5722"/><rect width="8" height="2" x="30" y="37" fill="#FF5722"/></g></svg>